<svg width="199" height="12" viewBox="0 0 199 12" fill="none" xmlns="http://www.w3.org/2000/svg">
<g clip-path="url(#clip0_482_28240)">
<path d="M31.3986 11.9922C73.9608 11.6842 116.503 11.3842 159.065 11.0762C171.204 10.9902 183.323 10.9042 195.464 10.8112C197.992 10.7892 199.49 9.8512 198.855 9.0632C198.073 8.1172 195.464 7.6522 192.835 7.6452C143.722 7.5802 94.605 7.5232 45.4699 7.4582C31.4802 7.4442 17.4905 7.4222 3.50283 7.4082L7.28383 10.4812C52.7832 6.1612 99.7392 3.7412 146.862 3.2462C160.215 3.1102 173.588 3.1252 186.941 3.3042C189.343 3.3322 191.789 2.9312 191.747 1.9712C191.707 1.1262 189.281 0.188202 186.776 0.159202C138.502 -0.485798 90.1056 0.825202 42.7377 4.1632C29.1798 5.1232 15.7055 6.2332 2.35261 7.5082C0.0939561 7.7232 -0.461254 8.7122 0.360616 9.3642C1.38746 10.1872 3.64611 10.5812 6.13162 10.5812C55.2468 10.6462 104.362 10.7032 153.499 10.7682C167.489 10.7822 181.476 10.8032 195.464 10.8182L192.835 7.6522C150.273 7.9602 107.731 8.2612 65.1689 8.5692C53.0299 8.6552 40.9108 8.7402 28.7699 8.8342C26.2426 8.8552 24.7421 9.7942 25.3789 10.5812C26.1391 11.5052 28.7898 12.0142 31.3986 12.0002V11.9922Z" fill="#DC9937"/>
</g>
<defs>
<clipPath id="clip0_482_28240">
<rect width="199" height="12" fill="white"/>
</clipPath>
</defs>
</svg>
