<svg width="55" height="55" viewBox="0 0 55 55" fill="none" xmlns="http://www.w3.org/2000/svg">
<g clip-path="url(#clip0_734_34353)">
<path d="M39.4172 51.3333H13.7506C13.2447 51.3333 12.834 51.7439 12.834 52.2499V54.0833C12.834 54.5892 13.2447 54.9999 13.7506 54.9999C14.2566 54.9999 14.6672 54.5892 14.6672 54.0833V53.1666H39.4172C39.9232 53.1666 40.3339 52.7559 40.3339 52.25C40.3339 51.744 39.9233 51.3333 39.4172 51.3333Z" fill="#DC9937"/>
<path d="M20.166 22.9166C20.166 23.4226 20.5767 23.8333 21.0826 23.8333H24.7494C25.2553 23.8333 25.666 23.4226 25.666 22.9166V17.4166C25.666 16.9107 25.2553 16.5 24.7494 16.5H21.0828C20.5768 16.5 20.1661 16.9107 20.1661 17.4166L20.166 22.9166ZM21.9994 18.3334H23.8328V22H21.9994V18.3334Z" fill="#DC9937"/>
<path d="M11.9166 11H0.916631C0.410674 11 0 11.4107 0 11.9166V30.25C0 30.756 0.410674 31.1666 0.916631 31.1666C1.42259 31.1666 1.83326 30.756 1.83326 30.25V12.8334H11.9166C12.4226 12.8334 12.8333 12.4227 12.8333 11.9167C12.8333 11.4108 12.4227 11 11.9166 11Z" fill="#DC9937"/>
<path d="M44 44.9166C44 45.4226 44.4107 45.8333 44.9166 45.8333H48.5833C49.0892 45.8333 49.4999 45.4226 49.4999 44.9166V39.4166C49.4999 38.9107 49.0892 38.5 48.5833 38.5H44.9166C44.4107 38.5 44 38.9107 44 39.4166V44.9166ZM45.8334 40.3334H47.6667V44H45.8334V40.3334Z" fill="#DC9937"/>
<path d="M4.58337 33C0.052207 33 0 44.7975 0 44.9166C0 47.1304 1.5776 48.9811 3.66663 49.4074V54.0834C3.66663 54.5893 4.0773 55 4.58326 55C5.08922 55 5.49989 54.5893 5.49989 54.0834V49.4074C7.58893 48.9811 9.16652 47.1304 9.16652 44.9166C9.16663 44.7975 9.11442 33 4.58337 33ZM4.58337 47.6666C3.06722 47.6666 1.83337 46.4328 1.83337 44.9166C1.83337 40.3498 3.05991 34.8333 4.58337 34.8333C6.10683 34.8333 7.33337 40.3498 7.33337 44.9166C7.33337 46.4328 6.09952 47.6666 4.58337 47.6666Z" fill="#DC9937"/>
<path d="M10.0834 27.5H6.41663C5.91067 27.5 5.5 27.9107 5.5 28.4166V30.25C5.5 30.756 5.91067 31.1666 6.41663 31.1666C6.92259 31.1666 7.33326 30.756 7.33326 30.25V29.3334H9.16663V33.9167C9.16663 34.4227 9.5773 34.8334 10.0833 34.8334C10.5892 34.8334 10.9999 34.4227 10.9999 33.9167V28.4167C11 27.9107 10.5893 27.5 10.0834 27.5Z" fill="#DC9937"/>
<path d="M44.9166 23.8333H48.5833C49.0892 23.8333 49.4999 23.4226 49.4999 22.9166V17.4166C49.4999 16.9107 49.0892 16.5 48.5833 16.5H44.9166C44.4107 16.5 44 16.9107 44 17.4166V22.9166C44 23.4226 44.4107 23.8333 44.9166 23.8333ZM45.8334 18.3333H47.6667V21.9999H45.8334V18.3333Z" fill="#DC9937"/>
<path d="M10.0834 16.5H6.41663C5.91067 16.5 5.5 16.9107 5.5 17.4166V22.9166C5.5 23.4226 5.91067 23.8333 6.41663 23.8333H10.0833C10.5892 23.8333 10.9999 23.4226 10.9999 22.9166V17.4166C11 16.9107 10.5893 16.5 10.0834 16.5ZM9.16663 22H7.33337V18.3334H9.16674L9.16663 22Z" fill="#DC9937"/>
<path d="M29.334 22.9166C29.334 23.4226 29.7447 23.8333 30.2506 23.8333H33.9172C34.4232 23.8333 34.8339 23.4226 34.8339 22.9166V17.4166C34.8339 16.9107 34.4232 16.5 33.9172 16.5H30.2506C29.7447 16.5 29.334 16.9107 29.334 17.4166V22.9166ZM31.1672 18.3334H33.0006V22H31.1672V18.3334Z" fill="#DC9937"/>
<path d="M54.0826 11H43.0826C42.5767 11 42.166 11.4107 42.166 11.9166C42.166 12.4226 42.5767 12.8333 43.0826 12.8333H53.166V49.6687C52.8782 49.566 52.5729 49.5 52.2494 49.5C52.0908 49.5 51.9331 49.5137 51.7782 49.5412C51.1457 48.4018 49.9422 47.6666 48.5828 47.6666C47.2233 47.6666 46.0198 48.4018 45.3873 49.5412C45.2324 49.5137 45.0747 49.5 44.9161 49.5C43.4 49.5 42.1661 50.7338 42.1661 52.25C42.1661 53.7662 43.4 55 44.9161 55H52.2493C53.7654 55 54.9993 53.7662 54.9993 52.25V11.9166C54.9993 11.4107 54.5886 11 54.0826 11ZM52.2493 53.1666H44.9159C44.4108 53.1666 43.9993 52.7551 43.9993 52.25C43.9993 51.7449 44.4108 51.3334 44.9159 51.3334C45.0919 51.3334 45.2587 51.3838 45.4127 51.4828C45.6639 51.6441 45.9775 51.6735 46.2543 51.5616C46.5311 51.4498 46.7355 51.2096 46.8025 50.919C46.9959 50.0839 47.7283 49.5 48.5826 49.5C49.437 49.5 50.1694 50.0839 50.3628 50.919C50.4298 51.2096 50.6342 51.4498 50.911 51.5616C51.187 51.6735 51.5013 51.6441 51.7526 51.4828C52.3493 51.0978 53.166 51.5689 53.166 52.25C53.1659 52.7551 52.7544 53.1666 52.2493 53.1666Z" fill="#DC9937"/>
<path d="M30.2506 12.8333H33.9172C34.4232 12.8333 34.8339 12.4226 34.8339 11.9166V6.41663C34.8339 5.91067 34.4232 5.5 33.9172 5.5H30.2506C29.7447 5.5 29.334 5.91067 29.334 6.41663V11.9166C29.334 12.4226 29.7447 12.8333 30.2506 12.8333ZM31.1672 7.33326H33.0006V10.9999H31.1672V7.33326Z" fill="#DC9937"/>
<path d="M29.334 33.9166C29.334 34.4226 29.7447 34.8333 30.2506 34.8333H33.9172C34.4232 34.8333 34.8339 34.4226 34.8339 33.9166V28.4166C34.8339 27.9107 34.4232 27.5 33.9172 27.5H30.2506C29.7447 27.5 29.334 27.9107 29.334 28.4166V33.9166ZM31.1672 29.3334H33.0006V33H31.1672V29.3334Z" fill="#DC9937"/>
<path d="M21.0826 12.8333H24.7493C25.2552 12.8333 25.6659 12.4226 25.6659 11.9166V6.41663C25.6659 5.91067 25.2552 5.5 24.7493 5.5H21.0826C20.5767 5.5 20.166 5.91067 20.166 6.41663V11.9166C20.1659 12.4226 20.5766 12.8333 21.0826 12.8333ZM21.9993 7.33326H23.8326V10.9999H21.9993V7.33326Z" fill="#DC9937"/>
<path d="M26.8499 44.2659C26.6849 44.44 26.584 44.6784 26.584 44.9168C26.584 45.1551 26.6849 45.3934 26.8499 45.5676C27.024 45.7326 27.2624 45.8335 27.5007 45.8335C27.7391 45.8335 27.9774 45.7326 28.1516 45.5676C28.3166 45.3935 28.4175 45.1551 28.4175 44.9168C28.4175 44.6784 28.3166 44.4401 28.1516 44.2659C27.8032 43.9267 27.1982 43.9267 26.8499 44.2659Z" fill="#DC9937"/>
<path d="M20.166 33.9166C20.166 34.4226 20.5767 34.8333 21.0826 34.8333H24.7494C25.2553 34.8333 25.666 34.4226 25.666 33.9166V28.4166C25.666 27.9107 25.2553 27.5 24.7494 27.5H21.0828C20.5768 27.5 20.1661 27.9107 20.1661 28.4166L20.166 33.9166ZM21.9994 29.3334H23.8328V33H21.9994V29.3334Z" fill="#DC9937"/>
<path d="M18.334 39.4166C18.334 39.9226 18.7447 40.3333 19.2506 40.3333H22.0006V48.5833C22.0006 49.0892 22.4113 49.4999 22.9172 49.4999C23.4232 49.4999 23.8339 49.0892 23.8339 48.5833V40.3333H31.1672V48.5833C31.1672 49.0892 31.5779 49.4999 32.0839 49.4999C32.5898 49.4999 33.0005 49.0892 33.0005 48.5833V40.3333H35.7505C36.2565 40.3333 36.6671 39.9226 36.6671 39.4166C36.6671 38.9107 36.2565 38.5 35.7505 38.5H19.2506C18.7447 38.5 18.334 38.9107 18.334 39.4166Z" fill="#DC9937"/>
<path d="M44 33.9166C44 34.4226 44.4107 34.8333 44.9166 34.8333H48.5833C49.0892 34.8333 49.4999 34.4226 49.4999 33.9166V28.4166C49.4999 27.9107 49.0892 27.5 48.5833 27.5H44.9166C44.4107 27.5 44 27.9107 44 28.4166V33.9166ZM45.8334 29.3334H47.6667V33H45.8334V29.3334Z" fill="#DC9937"/>
<path d="M39.4159 0H15.5826C15.0767 0 14.666 0.410674 14.666 0.916631V48.5833C14.666 49.0892 15.0767 49.4999 15.5826 49.4999C16.0886 49.4999 16.4993 49.0892 16.4993 48.5833V1.83326H38.4993V48.5833C38.4993 49.0892 38.91 49.4999 39.4159 49.4999C39.9219 49.4999 40.3325 49.0892 40.3325 48.5833V0.916631C40.3326 0.410674 39.922 0 39.4159 0Z" fill="#DC9937"/>
</g>
<defs>
<clipPath id="clip0_734_34353">
<rect width="55" height="55" fill="white"/>
</clipPath>
</defs>
</svg>
