<svg width="31" height="31" viewBox="0 0 31 31" fill="none" xmlns="http://www.w3.org/2000/svg">
<path d="M25.1875 3.39062H22.7656V2.90625C22.7656 2.52086 22.6125 2.15125 22.34 1.87874C22.0675 1.60622 21.6979 1.45313 21.3125 1.45312C20.9271 1.45313 20.5575 1.60622 20.285 1.87874C20.0125 2.15125 19.8594 2.52086 19.8594 2.90625V3.39062H11.1406V2.90625C11.1406 2.52086 10.9875 2.15125 10.715 1.87874C10.4425 1.60622 10.0729 1.45313 9.6875 1.45312C9.30211 1.45313 8.9325 1.60622 8.65999 1.87874C8.38747 2.15125 8.23438 2.52086 8.23438 2.90625V3.39062H5.8125C5.17018 3.39062 4.55417 3.64579 4.09998 4.09998C3.64579 4.55417 3.39063 5.17018 3.39062 5.8125V25.1875C3.39063 25.8298 3.64579 26.4458 4.09998 26.9C4.55417 27.3542 5.17018 27.6094 5.8125 27.6094H25.1875C25.8298 27.6094 26.4458 27.3542 26.9 26.9C27.3542 26.4458 27.6094 25.8298 27.6094 25.1875V5.8125C27.6094 5.17018 27.3542 4.55417 26.9 4.09998C26.4458 3.64579 25.8298 3.39062 25.1875 3.39062ZM8.23438 6.29688C8.23438 6.68227 8.38747 7.05188 8.65999 7.32439C8.9325 7.5969 9.30211 7.75 9.6875 7.75C10.0729 7.75 10.4425 7.5969 10.715 7.32439C10.9875 7.05188 11.1406 6.68227 11.1406 6.29688H19.8594C19.8594 6.68227 20.0125 7.05188 20.285 7.32439C20.5575 7.5969 20.9271 7.75 21.3125 7.75C21.6979 7.75 22.0675 7.5969 22.34 7.32439C22.6125 7.05188 22.7656 6.68227 22.7656 6.29688H24.7031V9.20312H6.29688V6.29688H8.23438ZM6.29688 24.7031V12.1094H24.7031V24.7031H6.29688Z" fill="#DC9937"/>
</svg>
