<svg width="80" height="80" viewBox="0 0 80 80" fill="none" xmlns="http://www.w3.org/2000/svg">
<g clip-path="url(#clip0_734_34142)">
<path d="M1.6961 60.1675L1.69618 60.1674L1.68815 60.1632C0.595349 59.6005 0.176359 58.1926 0.824182 57.1407C3.27441 53.2249 4.1618 48.4346 3.03763 43.9242C2.74954 42.7681 2.42947 41.6585 2.11275 40.5715C2.08789 40.4862 2.06306 40.4011 2.03826 40.3161C1.74672 39.3164 1.4605 38.3349 1.20498 37.3466C0.650973 35.2038 0.244194 33.0391 0.250063 30.6319L6.34295e-05 30.6313L0.250063 30.6319C0.290912 13.6754 14.4059 -0.0731902 31.3462 0.255784C47.7067 0.585411 61.1932 14.3417 61.1934 30.7065C61.1936 52.0794 38.7894 67.0878 19.0159 58.8348L18.8806 58.7783L18.7653 58.8689C16.0618 60.9909 12.662 62.1467 9.2254 62.1467C6.59535 62.1467 4.02584 61.4757 1.6961 60.1675ZM5.75173 57.027L5.62659 57.288L5.90301 57.3738C9.74391 58.5667 14.0638 57.6146 17.0275 54.7493L16.8537 54.5696L17.0275 54.7493C17.6661 54.1318 18.6213 53.9764 19.4224 54.3597L19.4225 54.3597C36.6597 62.6011 56.9411 49.686 56.9409 30.7065C56.9409 16.5442 45.4215 4.79237 31.2604 4.50726L31.2604 4.50726C16.6676 4.21737 4.53762 16.0351 4.50243 30.6422C4.49671 32.9897 4.95207 35.097 5.5281 37.1577C5.72778 37.8721 5.94074 38.5773 6.15426 39.2843C6.55999 40.6279 6.96772 41.978 7.29006 43.4101C8.31754 47.9761 7.77619 52.8049 5.75173 57.027Z" fill="#DC9937" stroke="white" stroke-width="0.5"/>
<path d="M61.2324 76.4725L61.1171 76.382L60.9818 76.4384C50.4654 80.8274 37.9528 78.828 29.3303 71.3816C28.4416 70.6141 28.3433 69.2716 29.1107 68.3827C29.8783 67.494 31.2208 67.3956 32.1095 68.1633L32.1095 68.1633C39.896 74.8877 51.2955 76.3996 60.575 71.9633L60.5751 71.9633C61.3759 71.5799 62.3309 71.7354 62.97 72.3529C65.9335 75.218 70.2536 76.1707 74.0945 74.9772L74.3709 74.8914L74.2458 74.6304C71.8574 69.6488 71.5263 63.9418 73.3775 58.6575L73.3775 58.6574C73.3924 58.6147 73.409 58.5722 73.4271 58.5292C74.808 55.2734 75.5038 51.8129 75.4952 48.2456C75.4801 41.9575 73.3876 36.1366 69.4423 31.4166C68.6893 30.5154 68.8093 29.1747 69.7103 28.4216L69.7103 28.4216C70.611 27.6685 71.9521 27.7885 72.7052 28.6895C77.2284 34.1013 79.7303 41.0426 79.7476 48.2353C79.7576 52.3546 78.9585 56.3514 77.3726 60.1174L77.3694 60.125L77.3667 60.1328C75.6605 65.0718 76.4473 70.3551 79.1728 74.7432C79.8216 75.7952 79.4024 77.2038 78.3089 77.7671L78.3088 77.7669L78.301 77.7713C75.9717 79.079 73.4015 79.75 70.7719 79.7502C67.3355 79.7502 63.9355 78.5941 61.2324 76.4725Z" fill="#DC9937" stroke="white" stroke-width="0.5"/>
<path d="M34.2308 30.8248C34.2308 32.7621 32.6594 34.3328 30.7209 34.3328C28.7823 34.3328 27.2109 32.7621 27.2109 30.8248C27.2109 28.8876 28.7823 27.3169 30.7209 27.3169C32.6594 27.3169 34.2308 28.8876 34.2308 30.8248Z" fill="#DC9937" stroke="white" stroke-width="0.5"/>
<path d="M20.3792 30.8248C20.3792 32.7621 18.8079 34.3328 16.8693 34.3328C14.9307 34.3328 13.3594 32.7621 13.3594 30.8248C13.3594 28.8876 14.9307 27.3169 16.8693 27.3169C18.8079 27.3169 20.3792 28.8876 20.3792 30.8248Z" fill="#DC9937" stroke="white" stroke-width="0.5"/>
<path d="M48.0843 30.8248C48.0843 32.7621 46.513 34.3328 44.5744 34.3328C42.6358 34.3328 41.0645 32.7621 41.0645 30.8248C41.0645 28.8876 42.6358 27.3169 44.5744 27.3169C46.513 27.3169 48.0843 28.8876 48.0843 30.8248Z" fill="#DC9937" stroke="white" stroke-width="0.5"/>
</g>
<defs>
<clipPath id="clip0_734_34142">
<rect width="80" height="80" fill="white"/>
</clipPath>
</defs>
</svg>
