<svg width="16" height="16" viewBox="0 0 16 16" fill="none" xmlns="http://www.w3.org/2000/svg">
<path d="M15.5469 13.954C15.7582 14.1653 15.8769 14.452 15.8769 14.7509C15.8769 15.0497 15.7582 15.3364 15.5469 15.5477C15.3355 15.7591 15.0489 15.8778 14.75 15.8778C14.4511 15.8778 14.1645 15.7591 13.9531 15.5477L8.00094 9.59367L2.04687 15.5459C1.83553 15.7572 1.54888 15.8759 1.25 15.8759C0.951112 15.8759 0.664468 15.7572 0.453123 15.5459C0.241779 15.3345 0.123047 15.0479 0.123047 14.749C0.123047 14.4501 0.241779 14.1635 0.453123 13.9521L6.40719 7.99992L0.454998 2.04586C0.243654 1.83451 0.124922 1.54787 0.124922 1.24898C0.124922 0.950097 0.243654 0.663452 0.454998 0.452108C0.666342 0.240763 0.952987 0.122031 1.25187 0.122031C1.55076 0.122031 1.8374 0.240763 2.04875 0.452108L8.00094 6.40617L13.955 0.45117C14.1663 0.239826 14.453 0.121094 14.7519 0.121094C15.0508 0.121094 15.3374 0.239826 15.5487 0.45117C15.7601 0.662514 15.8788 0.949159 15.8788 1.24804C15.8788 1.54693 15.7601 1.83358 15.5487 2.04492L9.59469 7.99992L15.5469 13.954Z" fill="white"/>
</svg>
