<svg width="50" height="50" viewBox="0 0 50 50" fill="none" xmlns="http://www.w3.org/2000/svg">
<g clip-path="url(#clip0_482_15860)">
<circle cx="25" cy="25" r="25" fill="#DC9937"/>
<path d="M35.5 25.7505C35.5006 26.0051 35.4353 26.2556 35.3105 26.4775C35.1856 26.6995 35.0055 26.8853 34.7875 27.017L21.28 35.2802C21.0523 35.4196 20.7914 35.4957 20.5244 35.5007C20.2575 35.5056 19.994 35.4392 19.7613 35.3083C19.5307 35.1794 19.3387 34.9914 19.2049 34.7637C19.0711 34.536 19.0004 34.2768 19 34.0127V17.4883C19.0004 17.2242 19.0711 16.9649 19.2049 16.7372C19.3387 16.5095 19.5307 16.3215 19.7613 16.1927C19.994 16.0617 20.2575 15.9953 20.5244 16.0003C20.7914 16.0052 21.0523 16.0813 21.28 16.2208L34.7875 24.4839C35.0055 24.6156 35.1856 24.8015 35.3105 25.0234C35.4353 25.2453 35.5006 25.4958 35.5 25.7505Z" fill="white"/>
</g>
<defs>
<clipPath id="clip0_482_15860">
<rect width="50" height="50" rx="25" fill="white"/>
</clipPath>
</defs>
</svg>
