<svg width="26" height="26" viewBox="0 0 26 26" fill="none" xmlns="http://www.w3.org/2000/svg">
<g clip-path="url(#clip0_482_16972)">
<path d="M16.8472 14.0791L14.6697 16.264C13.7866 17.1501 12.2329 17.1692 11.3308 16.264L9.15316 14.0791L1.33203 21.9256C1.62316 22.0602 1.94415 22.1406 2.2854 22.1406H23.7151C24.0563 22.1406 24.3772 22.0603 24.6682 21.9257L16.8472 14.0791Z" fill="white"/>
<path d="M23.715 3.85938H2.2853C1.94405 3.85938 1.62306 3.93971 1.33203 4.07433L9.68946 12.4595C9.69002 12.46 9.69068 12.4601 9.69123 12.4607C9.69179 12.4613 9.69189 12.462 9.69189 12.462L12.4094 15.1885C12.698 15.4771 13.3024 15.4771 13.591 15.1885L16.3079 12.4625C16.3079 12.4625 16.3086 12.4613 16.3091 12.4607C16.3091 12.4607 16.3104 12.46 16.3109 12.4595L24.6681 4.07428C24.3771 3.93961 24.0562 3.85938 23.715 3.85938Z" fill="white"/>
<path d="M0.243039 5.13965C0.0924219 5.44423 0 5.78234 0 6.14451V19.8554C0 20.2176 0.0923203 20.5557 0.242988 20.8603L8.07767 13.0002L0.243039 5.13965Z" fill="white"/>
<path d="M25.7565 5.13965L17.9219 13.0003L25.7565 20.8605C25.9071 20.5559 25.9995 20.2178 25.9995 19.8555V6.14461C25.9995 5.78234 25.9071 5.44423 25.7565 5.13965Z" fill="white"/>
</g>
<defs>
<clipPath id="clip0_482_16972">
<rect width="26" height="26" fill="white"/>
</clipPath>
</defs>
</svg>
