<svg width="90" height="90" viewBox="0 0 90 90" fill="none" xmlns="http://www.w3.org/2000/svg">
<g clip-path="url(#clip0_734_34155)">
<mask id="mask0_734_34155" style="mask-type:luminance" maskUnits="userSpaceOnUse" x="0" y="0" width="90" height="90">
<path d="M0 7.62939e-06H90V90H0V7.62939e-06Z" fill="white"/>
</mask>
<g mask="url(#mask0_734_34155)">
<path d="M22.8516 67.1484C22.8516 71.0314 19.7033 74.1797 15.8203 74.1797C11.9373 74.1797 8.78906 71.0314 8.78906 67.1484C8.78906 63.2654 11.9373 60.1172 15.8203 60.1172C19.7033 60.1172 22.8516 63.2654 22.8516 67.1484Z" stroke="#DC9937" stroke-width="3" stroke-miterlimit="10" stroke-linecap="round" stroke-linejoin="round"/>
<path d="M29.8828 88.2422H1.75781C1.75781 82.4168 6.4793 77.6953 12.3047 77.6953H19.3359C25.1613 77.6953 29.8828 82.4168 29.8828 88.2422Z" stroke="#DC9937" stroke-width="3" stroke-miterlimit="10" stroke-linecap="round" stroke-linejoin="round"/>
<path d="M52.0312 67.1484C52.0312 71.0314 48.883 74.1797 45 74.1797C41.117 74.1797 37.9688 71.0314 37.9688 67.1484C37.9688 63.2654 41.117 60.1172 45 60.1172C48.883 60.1172 52.0312 63.2654 52.0312 67.1484Z" stroke="#DC9937" stroke-width="3" stroke-miterlimit="10" stroke-linecap="round" stroke-linejoin="round"/>
<path d="M81.2109 67.1484C81.2109 71.0314 78.0627 74.1797 74.1797 74.1797C70.2967 74.1797 67.1484 71.0314 67.1484 67.1484C67.1484 63.2654 70.2967 60.1172 74.1797 60.1172C78.0627 60.1172 81.2109 63.2654 81.2109 67.1484Z" stroke="#DC9937" stroke-width="3" stroke-miterlimit="10" stroke-linecap="round" stroke-linejoin="round"/>
<path d="M88.2422 88.2422H60.1172C60.1172 82.4168 64.8387 77.6953 70.6641 77.6953H77.6953C83.5207 77.6953 88.2422 82.4168 88.2422 88.2422Z" stroke="#DC9937" stroke-width="3" stroke-miterlimit="10" stroke-linecap="round" stroke-linejoin="round"/>
<path d="M62.5781 22.0709V33.611L45 41.4229L27.4219 33.611V22.0709" stroke="#DC9937" stroke-width="3" stroke-miterlimit="10" stroke-linecap="round" stroke-linejoin="round"/>
<path d="M76.6406 15.8203L45 1.75781L13.3594 15.8203L45 29.8828L76.6406 15.8203Z" stroke="#DC9937" stroke-width="3" stroke-miterlimit="10" stroke-linecap="round" stroke-linejoin="round"/>
<path d="M76.6406 15.8203V36.9141" stroke="#DC9937" stroke-width="3" stroke-miterlimit="10" stroke-linecap="round" stroke-linejoin="round"/>
<path d="M80.1562 47.4609H73.125V40.4297C73.125 38.4873 74.6982 36.9141 76.6406 36.9141C78.583 36.9141 80.1562 38.4873 80.1562 40.4297V47.4609Z" stroke="#DC9937" stroke-width="3" stroke-miterlimit="10" stroke-linecap="round" stroke-linejoin="round"/>
<path d="M45 15.8203H76.6406" stroke="#DC9937" stroke-width="3" stroke-miterlimit="10" stroke-linecap="round" stroke-linejoin="round"/>
<path d="M37.0898 88.2422H29.8828C29.8828 82.4168 34.6043 77.6953 40.4297 77.6953H49.5703C55.3957 77.6953 60.1172 82.4168 60.1172 88.2422H52.9102" stroke="#DC9937" stroke-width="3" stroke-miterlimit="10" stroke-linecap="round" stroke-linejoin="round"/>
<path d="M43.2422 88.2422C43.2422 87.2715 44.0292 86.4844 45 86.4844C45.9708 86.4844 46.7578 87.2715 46.7578 88.2422C46.7578 89.2129 45.9708 90 45 90C44.0292 90 43.2422 89.2129 43.2422 88.2422Z" fill="#DC9937"/>
</g>
</g>
<defs>
<clipPath id="clip0_734_34155">
<rect width="90" height="90" fill="white"/>
</clipPath>
</defs>
</svg>
