<svg width="71" height="71" viewBox="0 0 71 71" fill="none" xmlns="http://www.w3.org/2000/svg">
<path d="M68.6415 23.2296L40.3391 9.40372C37.8992 8.18379 33.7514 8.18379 31.3116 9.40372L2.35853 23.2296C0.325315 24.2056 0 25.5881 0 26.3201C0 27.0521 0.325315 28.3533 2.35853 29.4106L4.71707 30.5492V43.5618C3.25315 44.1311 2.19588 45.595 2.19588 47.2216C2.19588 48.8482 3.25315 50.3121 4.63574 50.8814L0.975945 62.5114H11.2234L7.56357 50.8814C9.02749 50.3121 10.0034 48.8482 10.0034 47.2216C10.0034 45.5137 8.94616 44.1311 7.48224 43.5618V31.9318L11.7927 34.0463V50.9627C11.7927 51.2067 11.874 51.4507 12.0367 51.6947C12.4433 52.1826 20.0069 62.5114 35.4593 62.5114C50.9118 62.5114 58.4754 52.1013 58.8007 51.6947C58.9633 51.4507 59.0447 51.2067 59.0447 50.9627V34.1277L68.6415 29.4106C70.6747 28.4346 71 27.0521 71 26.3201C70.9187 25.5881 70.6747 24.2056 68.6415 23.2296ZM56.4422 50.5561C55.1409 52.1826 48.1466 59.9902 35.4593 59.9902C22.772 59.9902 15.7778 52.1826 14.4765 50.5561V35.1849L31.3116 43.2365C32.5315 43.8058 34.1581 44.1311 35.7846 44.1311C37.4926 44.1311 39.1191 43.8058 40.3391 43.1551L56.4422 35.2663V50.5561ZM67.5029 27.1334L57.7434 31.9318C57.3368 31.9318 57.0115 32.0944 56.8488 32.4198L39.2005 40.9593C37.4926 41.8539 34.1581 41.8539 32.3688 40.9593L10.6541 30.5492L35.622 27.6214C36.354 27.54 36.8419 26.8894 36.7606 26.2388C36.6793 25.5068 36.0286 25.0188 35.378 25.1002L6.42497 28.516L3.49714 27.1334C2.76518 26.8081 2.60252 26.4014 2.60252 26.4014C2.60252 26.3201 2.76518 25.9948 3.49714 25.6695L32.4502 11.7623C33.3448 11.3556 34.5647 11.1116 35.7846 11.1116C37.0859 11.1116 38.3872 11.3556 39.2005 11.7623L67.5029 25.5881C68.2348 25.9135 68.3975 26.2388 68.3975 26.4014C68.3975 26.4014 68.1535 26.8081 67.5029 27.1334Z" fill="#DC9937"/>
</svg>
