<svg width="21" height="21" viewBox="0 0 21 21" fill="none" xmlns="http://www.w3.org/2000/svg">
<g clip-path="url(#clip0_739_18584)">
<path d="M16.2687 4.15479C16.0011 4.15479 15.7832 4.37264 15.7832 4.64033C15.7832 4.90803 16.0011 5.12588 16.2687 5.12588C16.5365 5.12588 16.7543 4.90807 16.7543 4.64033C16.7543 4.3726 16.5365 4.15479 16.2687 4.15479Z" fill="white"/>
<path d="M10.4549 6.14966C8.08141 6.14966 6.15039 8.08067 6.15039 10.4542C6.15039 12.8277 8.08141 14.7588 10.4549 14.7588C12.8285 14.7588 14.7595 12.8277 14.7595 10.4542C14.7595 8.08071 12.8285 6.14966 10.4549 6.14966Z" fill="white"/>
<path d="M14.9724 0.454102H5.93777C2.91461 0.454102 0.455078 2.91363 0.455078 5.93684V14.9714C0.455078 17.9946 2.91461 20.4541 5.93777 20.4541H14.9724C17.9956 20.4541 20.4551 17.9946 20.4551 14.9714V5.93684C20.4551 2.91363 17.9956 0.454102 14.9724 0.454102ZM10.4551 15.9397C7.43027 15.9397 4.96949 13.4789 4.96949 10.4541C4.96949 7.4293 7.43031 4.96855 10.4551 4.96855C13.4798 4.96855 15.9407 7.42934 15.9407 10.4541C15.9407 13.4789 13.4798 15.9397 10.4551 15.9397ZM16.2688 6.30707C15.3498 6.30707 14.6021 5.55941 14.6021 4.64043C14.6021 3.72145 15.3498 2.97375 16.2688 2.97375C17.1878 2.97375 17.9354 3.72141 17.9354 4.64039C17.9354 5.55938 17.1878 6.30707 16.2688 6.30707Z" fill="white"/>
</g>
<defs>
<clipPath id="clip0_739_18584">
<rect width="20" height="20" fill="white" transform="translate(0.455078 0.454102)"/>
</clipPath>
</defs>
</svg>
