<svg width="24" height="24" viewBox="0 0 24 24" fill="none" xmlns="http://www.w3.org/2000/svg">
<path d="M21 21.1811V14.522C21 11.2493 20.2955 8.74927 16.4773 8.74927C14.6364 8.74927 13.4091 9.74927 12.9091 10.7038H12.8636V9.04472H9.25V21.1811H13.0227V15.1584C13.0227 13.5674 13.3182 12.0447 15.2727 12.0447C17.2045 12.0447 17.2273 13.8402 17.2273 15.2493V21.1584H21V21.1811Z" fill="white"/>
<path d="M3.11328 9.04468H6.88601V21.181H3.11328V9.04468Z" fill="white"/>
<path d="M5.00018 2.99927C3.79563 2.99927 2.81836 3.97654 2.81836 5.18109C2.81836 6.38563 3.79563 7.38563 5.00018 7.38563C6.20472 7.38563 7.182 6.38563 7.182 5.18109C7.182 3.97654 6.20472 2.99927 5.00018 2.99927Z" fill="white"/>
</svg>
