<svg width="28" height="28" viewBox="0 0 28 28" fill="none" xmlns="http://www.w3.org/2000/svg">
<g clip-path="url(#clip0_482_16967)">
<path d="M13.9453 23.5703V13.7812C13.9453 11.0136 11.6545 7.92969 8.36719 7.92969H8.09375C4.86719 7.92969 2.24219 10.5547 2.24219 13.7812V22.75C2.24219 23.203 2.60947 23.5703 3.0625 23.5703H13.9453Z" fill="white"/>
<path d="M19.9053 7.92969H19.085V11.8125C19.085 12.2655 18.7178 12.6328 18.2647 12.6328C17.8117 12.6328 17.4444 12.2655 17.4444 11.8125C17.4444 11.1572 17.4444 6.96664 17.4444 6.07031H22.7491C23.386 6.07031 23.7801 5.37392 23.4525 4.82798L22.3901 3.05736L23.457 1.23473C23.7765 0.688953 23.3823 0 22.7491 0H16.6241C16.1711 0 15.8038 0.367281 15.8038 0.820312V7.92969H12.8008C14.5665 9.4092 15.585 11.6236 15.585 13.7812V23.5703H24.9366C25.3896 23.5703 25.7569 23.203 25.7569 22.75V13.7812C25.7569 10.5547 23.1319 7.92969 19.9053 7.92969Z" fill="white"/>
<path d="M12.3047 25.2109V27.1797C12.3047 27.6327 12.672 28 13.125 28H16.625C17.078 28 17.4453 27.6327 17.4453 27.1797V25.2109H12.3047Z" fill="white"/>
</g>
<defs>
<clipPath id="clip0_482_16967">
<rect width="28" height="28" fill="white"/>
</clipPath>
</defs>
</svg>
