<svg width="56" height="56" viewBox="0 0 56 56" fill="none" xmlns="http://www.w3.org/2000/svg">
<path d="M41.5689 29.4C41.2474 32.5163 39.8665 35.4279 37.6569 37.6488C35.4473 39.8696 32.5427 41.2652 29.428 41.6024C29.3653 41.6017 29.3031 41.6134 29.245 41.6371C29.1869 41.6608 29.1341 41.6958 29.0898 41.7401C29.0454 41.7845 29.0104 41.8373 28.9868 41.8954C28.9631 41.9535 28.9513 42.0157 28.952 42.0784V52.2648C28.952 52.5173 28.8517 52.7594 28.6732 52.938C28.4947 53.1165 28.2525 53.2168 28 53.2168C27.7476 53.2168 27.5054 53.1165 27.3269 52.938C27.1483 52.7594 27.048 52.5173 27.048 52.2648V48.5688C27.039 48.4456 26.9859 48.3297 26.8985 48.2423C26.8112 48.1549 26.6953 48.1019 26.5721 48.0928C22.338 47.7502 18.3218 46.0729 15.1015 43.3025C11.8813 40.5321 9.62315 36.8114 8.65205 32.676C8.6159 32.5535 8.60478 32.4249 8.61936 32.298C8.63393 32.1711 8.6739 32.0484 8.73688 31.9373C8.79986 31.8261 8.88456 31.7288 8.98594 31.6511C9.08733 31.5734 9.20332 31.5168 9.327 31.4849C9.45069 31.4529 9.57954 31.4462 9.70588 31.4651C9.83223 31.484 9.95348 31.5281 10.0624 31.5948C10.1713 31.6615 10.2657 31.7495 10.34 31.8535C10.4142 31.9575 10.4667 32.0753 10.4944 32.2C11.3578 35.912 13.3708 39.2568 16.2467 41.7576C19.1226 44.2584 22.7145 45.7876 26.5104 46.1272C26.6336 46.1888 26.7512 46.1272 26.8688 46.0096C26.931 45.9745 26.9813 45.9216 27.0132 45.8578C27.0451 45.7939 27.0573 45.722 27.048 45.6512V42.0784C27.0488 42.0157 27.037 41.9535 27.0133 41.8954C26.9897 41.8373 26.9547 41.7845 26.9103 41.7401C26.866 41.6958 26.8132 41.6608 26.7551 41.6371C26.697 41.6134 26.6348 41.6017 26.5721 41.6024C23.4723 41.2571 20.5797 39.8759 18.3624 37.6824C16.1456 35.4544 14.7617 32.5323 14.4424 29.4056C14.4243 29.2912 14.3668 29.1867 14.28 29.11C14.1931 29.0334 14.0822 28.9894 13.9664 28.9856H3.78005C3.52014 28.9856 3.27087 28.8824 3.08708 28.6986C2.9033 28.5148 2.80005 28.2655 2.80005 28.0056C2.80005 27.7457 2.9033 27.4964 3.08708 27.3126C3.27087 27.1289 3.52014 27.0256 3.78005 27.0256H7.64965C7.76512 27.0208 7.87542 26.9764 7.96208 26.9C8.04874 26.8235 8.10649 26.7196 8.12565 26.6056C8.37976 22.3778 9.95061 18.3356 12.6179 15.0456C15.2853 11.7556 18.9154 9.38283 22.9992 8.26C23.2466 8.21306 23.5025 8.26252 23.7145 8.39825C23.9265 8.53398 24.0785 8.74568 24.1394 8.98993C24.2003 9.23418 24.1654 9.49248 24.0419 9.71183C23.9184 9.93118 23.7157 10.095 23.4752 10.1696C19.8216 11.1548 16.5668 13.2564 14.1654 16.1809C11.7639 19.1055 10.3357 22.7069 10.08 26.4824C10.0643 26.552 10.0649 26.6242 10.0819 26.6935C10.0989 26.7628 10.1318 26.8271 10.178 26.8815C10.2242 26.9358 10.2824 26.9787 10.348 27.0066C10.4136 27.0345 10.4849 27.0468 10.556 27.0424H13.944C14.0598 27.0386 14.1707 26.9946 14.2576 26.918C14.3444 26.8413 14.4019 26.7368 14.42 26.6224C14.7372 23.5004 16.1175 20.5822 18.3298 18.3566C20.5421 16.1311 23.452 14.7334 26.5721 14.3976C26.6348 14.3984 26.697 14.3866 26.7551 14.3629C26.8132 14.3392 26.866 14.3042 26.9103 14.2599C26.9547 14.2155 26.9897 14.1627 27.0133 14.1046C27.037 14.0466 27.0488 13.9843 27.048 13.9216V3.7352C27.048 3.48272 27.1483 3.24057 27.3269 3.06204C27.5054 2.8835 27.7476 2.7832 28 2.7832C28.2525 2.7832 28.4947 2.8835 28.6732 3.06204C28.8517 3.24057 28.952 3.48272 28.952 3.7352V15.288C28.9584 15.4228 28.9366 15.5575 28.8879 15.6833C28.8392 15.8092 28.7648 15.9235 28.6694 16.0189C28.574 16.1144 28.4596 16.1888 28.3338 16.2375C28.2079 16.2862 28.0733 16.308 27.9384 16.3016C17.584 16.3016 12.4096 28.98 19.7288 36.3048C27.048 43.6296 39.5416 38.388 39.7208 28C39.7193 27.8746 39.7429 27.7501 39.7903 27.6339C39.8376 27.5177 39.9076 27.4122 39.9963 27.3235C40.085 27.2348 40.1906 27.1647 40.3068 27.1174C40.4229 27.0701 40.5474 27.0465 40.6728 27.048H52.2201C52.48 27.048 52.7292 27.1513 52.913 27.335C53.0968 27.5188 53.2001 27.7681 53.2001 28.028C53.2001 28.2879 53.0968 28.5372 52.913 28.721C52.7292 28.9048 52.48 29.008 52.2201 29.008H48.412C48.2939 29.0033 48.1785 29.0443 48.0898 29.1225C48.0011 29.2007 47.946 29.3102 47.936 29.428C47.627 33.6822 45.9818 37.7299 43.2353 40.9934C40.4887 44.2568 36.7814 46.5691 32.6425 47.6C31.3937 47.8968 30.9625 45.9928 32.2225 45.696C35.9187 44.777 39.2335 42.7215 41.6999 39.8191C44.1663 36.9167 45.6599 33.3137 45.9704 29.5176C45.9862 29.448 45.9856 29.3758 45.9686 29.3065C45.9516 29.2372 45.9187 29.1729 45.8725 29.1185C45.8263 29.0642 45.7681 29.0214 45.7025 28.9934C45.6369 28.9655 45.5656 28.9532 45.4944 28.9576H42.0448C41.9291 28.9614 41.8182 29.0054 41.7313 29.082C41.6445 29.1587 41.587 29.2632 41.5689 29.3776V29.4ZM49.28 13.5632L42.3976 20.4064C42.2295 20.5889 41.996 20.6976 41.7481 20.7088H37.1616C37.0364 20.7198 36.9156 20.7601 36.8088 20.8264L28.6552 29.0416C28.4719 29.2129 28.2293 29.3064 27.9784 29.3024C27.7275 29.2984 27.488 29.1972 27.3102 29.0201C27.1324 28.8431 27.0303 28.604 27.0252 28.3531C27.0202 28.1023 27.1127 27.8592 27.2832 27.6752L35.4368 19.4544C35.4917 19.4269 35.5376 19.3844 35.5694 19.3319C35.6011 19.2794 35.6173 19.219 35.616 19.1576V14.56C35.6149 14.4276 35.6406 14.2962 35.6916 14.174C35.7426 14.0518 35.8179 13.9411 35.9128 13.8488L42.756 7.0112C42.8882 6.86835 43.0603 6.76859 43.2499 6.72494C43.4396 6.68129 43.638 6.69576 43.8193 6.76646C44.0006 6.83717 44.1564 6.96084 44.2664 7.12136C44.3764 7.28187 44.4355 7.4718 44.436 7.6664V11.4184C44.444 11.542 44.4967 11.6586 44.5843 11.7462C44.6719 11.8338 44.7884 11.8865 44.912 11.8944H48.6025C48.7993 11.8892 48.9931 11.9435 49.1587 12.0501C49.3242 12.1567 49.4538 12.3107 49.5306 12.492C49.6074 12.6734 49.6277 12.8736 49.589 13.0667C49.5503 13.2597 49.4544 13.4367 49.3136 13.5744L49.28 13.5632ZM41.44 18.6032L45.4272 14.616C45.4965 14.552 45.5455 14.4691 45.568 14.3775C45.5906 14.2859 45.5858 14.1897 45.5542 14.1009C45.5226 14.012 45.4656 13.9344 45.3902 13.8776C45.3149 13.8209 45.2246 13.7875 45.1304 13.7816H43.4504C43.1904 13.7877 42.9383 13.6913 42.7487 13.5132C42.5591 13.3351 42.4471 13.0896 42.4368 12.8296V11.2C42.4364 11.1036 42.4076 11.0094 42.3541 10.9291C42.3007 10.8489 42.2248 10.7861 42.136 10.7485C42.0471 10.7109 41.9492 10.7003 41.8544 10.7178C41.7596 10.7354 41.672 10.7803 41.6025 10.8472L37.6824 14.8344C37.5778 14.9256 37.5134 15.0544 37.5033 15.1928V18.2896C37.5025 18.3523 37.5143 18.4146 37.538 18.4726C37.5616 18.5307 37.5966 18.5835 37.641 18.6279C37.6853 18.6722 37.7381 18.7072 37.7962 18.7309C37.8543 18.7546 37.9165 18.7664 37.9792 18.7656H41.132C41.2552 18.7656 41.3729 18.7656 41.4289 18.6424L41.44 18.6032ZM36.0864 28.0112C36.0887 29.6124 35.6158 31.1782 34.7278 32.5105C33.8397 33.8428 32.5763 34.8817 31.0976 35.4958C29.6188 36.1098 27.9912 36.2713 26.4206 35.9599C24.85 35.6485 23.4071 34.8781 22.2745 33.7463C21.1419 32.6145 20.3706 31.1721 20.0581 29.6018C19.7456 28.0314 19.906 26.4036 20.519 24.9244C21.132 23.4453 22.17 22.1812 23.5017 21.2922C24.8334 20.4032 26.3989 19.9293 28 19.9304C28.2406 19.9488 28.4654 20.0574 28.6294 20.2345C28.7934 20.4115 28.8845 20.6439 28.8845 20.8852C28.8845 21.1265 28.7934 21.3589 28.6294 21.5359C28.4654 21.713 28.2406 21.8216 28 21.84C26.3663 21.84 24.7995 22.489 23.6443 23.6442C22.489 24.7994 21.84 26.3663 21.84 28C21.84 29.6337 22.489 31.2006 23.6443 32.3558C24.7995 33.511 26.3663 34.16 28 34.16C31.5728 34.16 33.9528 31.4832 34.1264 28C34.1209 27.8649 34.1431 27.7301 34.1919 27.604C34.2406 27.4778 34.3148 27.3631 34.4098 27.2668C34.5048 27.1706 34.6186 27.095 34.7441 27.0446C34.8696 26.9942 35.0041 26.9702 35.1393 26.9741C35.2744 26.9779 35.4074 27.0095 35.5298 27.067C35.6522 27.1244 35.7615 27.2064 35.8509 27.3079C35.9402 27.4094 36.0078 27.5282 36.0493 27.6569C36.0908 27.7856 36.1053 27.9214 36.092 28.056L36.0864 28.0112Z" fill="white"/>
</svg>
