<svg width="41" height="41" viewBox="0 0 41 41" fill="none" xmlns="http://www.w3.org/2000/svg">
<mask id="mask0_482_8089" style="mask-type:luminance" maskUnits="userSpaceOnUse" x="0" y="0" width="41" height="41">
<path d="M0 3.8147e-06H41V41H0V3.8147e-06Z" fill="white"/>
</mask>
<g mask="url(#mask0_482_8089)">
<path d="M16.1245 15.821C16.0004 15.741 15.853 15.6953 15.6953 15.6953C15.2533 15.6953 14.8945 16.0541 14.8945 16.4961C14.8945 16.7059 14.9753 16.8973 15.1075 17.0398C15.2541 17.1984 15.463 17.2969 15.6953 17.2969C16.1373 17.2969 16.4961 16.9381 16.4961 16.4961C16.4961 16.2118 16.3479 15.9628 16.1245 15.821Z" fill="white"/>
<path d="M20.5 0.800781V6.08594" stroke="white" stroke-width="1.5" stroke-linecap="round" stroke-linejoin="round"/>
<path d="M20.5 34.9141V40.1992" stroke="white" stroke-width="1.5" stroke-linecap="round" stroke-linejoin="round"/>
<path d="M5.30835 6.9099L8.70606 10.3076" stroke="white" stroke-width="1.5" stroke-linecap="round" stroke-linejoin="round"/>
<path d="M32.2939 31.4929L35.6917 34.8906" stroke="white" stroke-width="1.5" stroke-linecap="round" stroke-linejoin="round"/>
<path d="M35.6917 6.9099L32.2939 10.3076" stroke="white" stroke-width="1.5" stroke-linecap="round" stroke-linejoin="round"/>
<path d="M8.70606 31.4929L5.30835 34.8906" stroke="white" stroke-width="1.5" stroke-linecap="round" stroke-linejoin="round"/>
<path d="M38.1172 20.5C38.1172 20.5 31.1144 30.9102 20.5 30.9102C9.88564 30.9102 2.88281 20.5 2.88281 20.5C2.88281 20.5 9.88564 10.0898 20.5 10.0898C31.1144 10.0898 38.1172 20.5 38.1172 20.5Z" stroke="white" stroke-width="1.5" stroke-linecap="round" stroke-linejoin="round"/>
<path d="M18.2106 14.515C18.2393 14.5038 18.2682 14.4933 18.2971 14.4829C18.329 14.4709 18.3611 14.4597 18.3931 14.4485C18.422 14.4381 18.4508 14.4285 18.4804 14.4189C18.5181 14.4061 18.5573 14.3932 18.5957 14.3812C18.6454 14.366 18.695 14.3508 18.7455 14.3372C18.7943 14.3228 18.844 14.3092 18.8944 14.2963C18.9473 14.2827 19.0001 14.2699 19.053 14.2579C19.1026 14.2467 19.1515 14.2355 19.2011 14.2259C19.2412 14.2171 19.2812 14.2091 19.3221 14.2019C19.3573 14.1954 19.3925 14.189 19.4278 14.1834C19.4469 14.1794 19.4669 14.1762 19.4869 14.1738C19.523 14.1674 19.5591 14.1626 19.5951 14.1578C19.6047 14.1562 19.6135 14.1546 19.6231 14.1538C19.6536 14.149 19.6848 14.145 19.716 14.141C19.7497 14.137 19.7833 14.133 19.8169 14.1298L19.865 14.125C19.8994 14.121 19.9346 14.1178 19.9691 14.1154C19.9874 14.1138 20.0059 14.1122 20.0243 14.1114C20.0475 14.109 20.0716 14.1074 20.0948 14.1066C20.1292 14.1042 20.1644 14.1026 20.1989 14.101C20.2437 14.0986 20.2886 14.097 20.3342 14.0962C20.3887 14.0946 20.4447 14.0938 20.5 14.0938C24.0379 14.0938 26.9062 16.9621 26.9062 20.5C26.9062 21.6059 26.626 22.6461 26.1327 23.5534C26.0838 23.6431 26.0333 23.732 25.9805 23.8184C25.9532 23.8641 25.9253 23.9081 25.8964 23.953C25.8452 24.033 25.7924 24.1115 25.7379 24.1892C25.7323 24.1972 25.7266 24.2044 25.7211 24.2124C25.6042 24.3774 25.4793 24.5367 25.3462 24.6889C25.2461 24.805 25.1413 24.9179 25.0323 25.0268C24.9339 25.1253 24.8321 25.2214 24.7273 25.3127C24.2877 25.6995 23.7952 26.027 23.2611 26.2816C23.173 26.3241 23.084 26.3641 22.9936 26.4026C22.8022 26.4834 22.6053 26.5555 22.4051 26.618C22.2041 26.6804 21.9999 26.7333 21.7909 26.7757C21.3737 26.8614 20.942 26.9062 20.5 26.9062C16.9621 26.9062 14.0938 24.0379 14.0938 20.5C14.0938 20.4447 14.0946 20.3895 14.0962 20.335C14.097 20.2902 14.0985 20.2462 14.101 20.2013C14.1026 20.1597 14.1049 20.118 14.1074 20.0772C14.1082 20.0652 14.109 20.0532 14.1098 20.0412C14.113 20.0027 14.1153 19.9643 14.1194 19.9258C14.1202 19.9162 14.121 19.9074 14.1217 19.8978C14.1258 19.8522 14.1306 19.8065 14.1362 19.7617V19.7601C14.1417 19.712 14.1474 19.664 14.1546 19.6159C14.1594 19.5799 14.1642 19.5439 14.1706 19.5078C14.177 19.4598 14.185 19.4133 14.1938 19.3661C14.1954 19.3533 14.1979 19.3413 14.2003 19.3285" stroke="white" stroke-width="1.5" stroke-linecap="round" stroke-linejoin="round"/>
<path d="M20.5 22.9023C19.1755 22.9023 18.0977 21.8245 18.0977 20.5C18.0977 19.1755 19.1755 18.0977 20.5 18.0977C21.8245 18.0977 22.9023 19.1755 22.9023 20.5C22.9023 21.8245 21.8245 22.9023 20.5 22.9023Z" stroke="white" stroke-width="1.5" stroke-linecap="round" stroke-linejoin="round"/>
</g>
</svg>
