<svg width="21" height="18" viewBox="0 0 21 18" fill="none" xmlns="http://www.w3.org/2000/svg">
<path d="M20.8209 8.55242C20.8209 8.87371 20.6911 9.18185 20.46 9.40904C20.2289 9.63622 19.9156 9.76386 19.5888 9.76386L4.49575 9.76386L9.7855 14.9639C10.017 15.1915 10.147 15.5002 10.147 15.822C10.147 16.1439 10.017 16.4526 9.7855 16.6801C9.55404 16.9077 9.24011 17.0356 8.91277 17.0356C8.58544 17.0356 8.27151 16.9077 8.04005 16.6801L0.647541 9.41153C0.532678 9.29899 0.44154 9.16525 0.379354 9.018C0.317168 8.87075 0.285158 8.71288 0.285158 8.55343C0.285158 8.39399 0.317168 8.23612 0.379354 8.08887C0.44154 7.94162 0.532678 7.80788 0.647541 7.69533L8.04004 0.426724C8.15465 0.314037 8.29071 0.224648 8.44045 0.163662C8.5902 0.102676 8.75069 0.0712876 8.91277 0.0712876C9.07485 0.0712875 9.23534 0.102676 9.38509 0.163662C9.53483 0.224648 9.67089 0.314036 9.7855 0.426724C9.9001 0.539411 9.99102 0.67319 10.053 0.820423C10.1151 0.967656 10.147 1.12546 10.147 1.28482C10.147 1.44419 10.1151 1.60199 10.053 1.74922C9.99102 1.89646 9.9001 2.03024 9.7855 2.14292L4.49575 7.34099L19.5888 7.34099C19.9155 7.34099 20.2289 7.46862 20.46 7.69581C20.6911 7.923 20.8209 8.23113 20.8209 8.55242Z" fill="white"/>
</svg>
