<svg width="90" height="90" viewBox="0 0 90 90" fill="none" xmlns="http://www.w3.org/2000/svg">
<g clip-path="url(#clip0_739_17734)">
<path d="M18 9H9V18H18V9Z" fill="#DC9937"/>
<path d="M63 0V4.5H58.5V9H63V27H67.5V31.5H63V36H67.5H72V27H85.5V31.5H90V27V0H63ZM85.5 22.5H67.5V4.5H85.5V22.5Z" fill="#DC9937"/>
<path d="M81 9H72V18H81V9Z" fill="#DC9937"/>
<path d="M18 72H9V81H18V72Z" fill="#DC9937"/>
<path d="M67.5 63H63V67.5H67.5V63Z" fill="#DC9937"/>
<path d="M45 85.5H40.5V90H45V85.5Z" fill="#DC9937"/>
<path d="M49.5 67.5H45V72H49.5V67.5Z" fill="#DC9937"/>
<path d="M49.5 76.5H45V81H49.5V76.5Z" fill="#DC9937"/>
<path d="M90 54H85.5V58.5H90V54Z" fill="#DC9937"/>
<path d="M4.5 54H0V58.5H4.5V54Z" fill="#DC9937"/>
<path d="M4.5 31.5H0V36H4.5V31.5Z" fill="#DC9937"/>
<path d="M49.5 4.5V9H40.5V13.5H54V9V4.5H49.5Z" fill="#DC9937"/>
<path d="M85.5 36V40.5H76.5V45H63V40.5H58.5V45H49.5V49.5H63V54H54H49.5V49.5H45V54H40.5V49.5H36V54H31.5V58.5H40.5V63H45V58.5H54V63H49.5V67.5H54V76.5H58.5V81H63V76.5H76.5V67.5H81V63H76.5V54H67.5V49.5H76.5V54H81V49.5H85.5V45H90V40.5V36H85.5ZM72 58.5V72H58.5V58.5H72Z" fill="#DC9937"/>
<path d="M58.5 27H54V31.5H49.5V36V40.5H54V36H58.5V31.5H63V27H58.5Z" fill="#DC9937"/>
<path d="M58.5 85.5H49.5V90H58.5V85.5Z" fill="#DC9937"/>
<path d="M40.5 4.5H36V9H40.5V4.5Z" fill="#DC9937"/>
<path d="M76.5 36H72V40.5H76.5V36Z" fill="#DC9937"/>
<path d="M81 31.5H76.5V36H81V31.5Z" fill="#DC9937"/>
<path d="M22.5 54H18V58.5H22.5V54Z" fill="#DC9937"/>
<path d="M27 85.5V67.5H31.5V63V58.5H27V63H13.5V58.5H9H4.5V63H0V90H27H36V85.5H27ZM22.5 85.5H4.5V67.5H22.5V85.5Z" fill="#DC9937"/>
<path d="M31.5 27H27V31.5H31.5V27Z" fill="#DC9937"/>
<path d="M31.5 0H27H0V27H4.5V31.5H9V27H13.5V31.5H18V27H27V18H31.5V13.5H27V4.5H31.5H36V0H31.5ZM22.5 22.5H4.5V4.5H22.5V22.5Z" fill="#DC9937"/>
<path d="M58.5 13.5H54V18H58.5V13.5Z" fill="#DC9937"/>
<path d="M49.5 0H45V4.5H49.5V0Z" fill="#DC9937"/>
<path d="M54 27V22.5H49.5V18H45V22.5H36V18H31.5V22.5V27H36V36H22.5V31.5H18V36H4.5V40.5H13.5V45H0V49.5H13.5V54H18V49.5H22.5V54H27V49.5H36V45H31.5V40.5H36H40.5V45H45H49.5V40.5H45V36H40.5V27H54ZM27 45H18V40.5H27V45Z" fill="#DC9937"/>
<path d="M40.5 72V67.5V63H36V67.5H31.5V72H36V76.5H31.5V81H40.5V76.5H45V72H40.5Z" fill="#DC9937"/>
<path d="M81 81V76.5H76.5V81H63V85.5H72V90H76.5V85.5H85.5V90H90V85.5V81H81Z" fill="#DC9937"/>
<path d="M85.5 63V67.5H81V72H90V67.5V63H85.5Z" fill="#DC9937"/>
</g>
<defs>
<clipPath id="clip0_739_17734">
<rect width="90" height="90" fill="white"/>
</clipPath>
</defs>
</svg>
