<svg width="124" height="124" viewBox="0 0 124 124" fill="none" xmlns="http://www.w3.org/2000/svg">
<g clip-path="url(#clip0_734_34477)">
<path d="M38.7507 118.831C37.3239 118.831 36.168 119.989 36.168 121.419C36.168 122.842 37.3239 124 38.7507 124C40.1774 124 41.3333 122.842 41.3333 121.419C41.3333 119.989 40.1774 118.831 38.7507 118.831Z" fill="black"/>
<path d="M43.9167 118.831C42.4899 118.831 41.332 119.989 41.332 121.419C41.332 122.842 42.4899 124 43.9167 124C45.3434 124 46.4993 122.842 46.4993 121.419C46.4993 119.989 45.3434 118.831 43.9167 118.831Z" fill="black"/>
<path d="M49.0827 118.831C47.656 118.831 46.5 119.989 46.5 121.419C46.5 122.842 47.656 124 49.0827 124C50.5094 124 51.6673 122.842 51.6673 121.419C51.6673 119.989 50.5094 118.831 49.0827 118.831Z" fill="black"/>
<path d="M59.4167 118.831C57.9899 118.831 56.832 119.989 56.832 121.419C56.832 122.842 57.9899 124 59.4167 124C60.8434 124 61.9993 122.842 61.9993 121.419C61.9993 119.989 60.8434 118.831 59.4167 118.831Z" fill="black"/>
<path d="M69.7507 118.831C68.3239 118.831 67.1699 119.989 67.1699 121.419C67.1699 122.842 68.3242 124 69.7507 124C71.1772 124 72.3314 122.842 72.3314 121.419C72.3314 119.989 71.1774 118.831 69.7507 118.831Z" fill="black"/>
<path d="M80.0808 118.831C78.6579 118.831 77.5 119.989 77.5 121.419C77.5 122.842 78.6579 124 80.0808 124C81.5111 124 82.6692 122.842 82.6692 121.419C82.6692 119.989 81.5114 118.831 80.0808 118.831Z" fill="black"/>
<path d="M85.2507 118.831C83.8242 118.831 82.6699 119.989 82.6699 121.419C82.6699 122.842 83.8239 124 85.2507 124C86.6774 124 87.8314 122.842 87.8314 121.419C87.8314 119.989 86.6772 118.831 85.2507 118.831Z" fill="black"/>
<path d="M95.5808 118.831C94.1579 118.831 93 119.989 93 121.419C93 122.842 94.1579 124 95.5808 124C97.0111 124 98.1692 122.842 98.1692 121.419C98.1692 119.989 97.0111 118.831 95.5808 118.831Z" fill="black"/>
<path d="M100.751 118.831C99.3242 118.831 98.1699 119.989 98.1699 121.419C98.1699 122.842 99.3242 124 100.751 124C102.177 124 103.331 122.842 103.331 121.419C103.331 119.989 102.177 118.831 100.751 118.831Z" fill="black"/>
<path d="M105.919 118.831C104.488 118.831 103.33 119.989 103.33 121.419C103.33 122.842 104.488 124 105.919 124C107.341 124 108.499 122.842 108.499 121.419C108.499 119.989 107.341 118.831 105.919 118.831Z" fill="black"/>
<path d="M116.251 118.831C114.824 118.831 113.67 119.989 113.67 121.419C113.67 122.842 114.824 124 116.251 124C117.677 124 118.831 122.842 118.831 121.419C118.831 119.989 117.677 118.831 116.251 118.831Z" fill="black"/>
<path d="M38.7507 113.669C37.3239 113.669 36.168 114.824 36.168 116.25C36.168 117.676 37.3239 118.831 38.7507 118.831C40.1774 118.831 41.3333 117.677 41.3333 116.25C41.3333 114.823 40.1774 113.669 38.7507 113.669Z" fill="black"/>
<path d="M49.0827 113.669C47.656 113.669 46.5 114.824 46.5 116.25C46.5 117.676 47.656 118.831 49.0827 118.831C50.5094 118.831 51.6673 117.676 51.6673 116.25C51.6673 114.824 50.5094 113.669 49.0827 113.669Z" fill="black"/>
<path d="M54.2507 113.669C52.8239 113.669 51.668 114.824 51.668 116.25C51.668 117.676 52.8239 118.831 54.2507 118.831C55.6774 118.831 56.8333 117.676 56.8333 116.25C56.8333 114.824 55.6774 113.669 54.2507 113.669Z" fill="black"/>
<path d="M59.4167 113.669C57.9899 113.669 56.832 114.824 56.832 116.25C56.832 117.676 57.9899 118.831 59.4167 118.831C60.8434 118.831 61.9993 117.677 61.9993 116.25C61.9993 114.823 60.8434 113.669 59.4167 113.669Z" fill="black"/>
<path d="M64.5827 113.669C63.156 113.669 62 114.823 62 116.25C62 117.677 63.156 118.831 64.5827 118.831C66.0111 118.831 67.1692 117.676 67.1692 116.25C67.1692 114.824 66.0114 113.669 64.5827 113.669Z" fill="black"/>
<path d="M74.9186 113.669C73.4882 113.669 72.3301 114.823 72.3301 116.25C72.3301 117.677 73.488 118.831 74.9186 118.831C76.3414 118.831 77.4993 117.676 77.4993 116.25C77.4993 114.824 76.3414 113.669 74.9186 113.669Z" fill="black"/>
<path d="M80.0808 113.669C78.6579 113.669 77.5 114.824 77.5 116.25C77.5 117.676 78.6579 118.831 80.0808 118.831C81.5111 118.831 82.6692 117.676 82.6692 116.25C82.6692 114.824 81.5114 113.669 80.0808 113.669Z" fill="black"/>
<path d="M90.4186 113.669C88.9882 113.669 87.8301 114.824 87.8301 116.25C87.8301 117.676 88.988 118.831 90.4186 118.831C91.8414 118.831 92.9993 117.676 92.9993 116.25C92.9993 114.824 91.8414 113.669 90.4186 113.669Z" fill="black"/>
<path d="M95.5808 113.669C94.1579 113.669 93 114.824 93 116.25C93 117.676 94.1579 118.831 95.5808 118.831C97.0111 118.831 98.1692 117.677 98.1692 116.25C98.1692 114.823 97.0114 113.669 95.5808 113.669Z" fill="black"/>
<path d="M100.751 113.669C99.3242 113.669 98.1699 114.823 98.1699 116.25C98.1699 117.677 99.3242 118.831 100.751 118.831C102.177 118.831 103.331 117.676 103.331 116.25C103.331 114.824 102.177 113.669 100.751 113.669Z" fill="black"/>
<path d="M111.081 113.669C109.658 113.669 108.5 114.824 108.5 116.25C108.5 117.676 109.658 118.831 111.081 118.831C112.511 118.831 113.669 117.676 113.669 116.25C113.669 114.824 112.511 113.669 111.081 113.669Z" fill="black"/>
<path d="M116.251 113.669C114.824 113.669 113.67 114.824 113.67 116.25C113.67 117.676 114.824 118.831 116.251 118.831C117.677 118.831 118.831 117.677 118.831 116.25C118.831 114.823 117.677 113.669 116.251 113.669Z" fill="black"/>
<path d="M43.9167 108.5C42.4899 108.5 41.332 109.658 41.332 111.081C41.332 112.511 42.4899 113.669 43.9167 113.669C45.3434 113.669 46.4993 112.511 46.4993 111.081C46.4993 109.658 45.3434 108.5 43.9167 108.5Z" fill="black"/>
<path d="M49.0827 108.5C47.656 108.5 46.5 109.658 46.5 111.081C46.5 112.511 47.656 113.669 49.0827 113.669C50.5094 113.669 51.6673 112.511 51.6673 111.081C51.6673 109.658 50.5094 108.5 49.0827 108.5Z" fill="black"/>
<path d="M64.5827 108.5C63.156 108.5 62 109.658 62 111.081C62 112.511 63.156 113.669 64.5827 113.669C66.0111 113.669 67.1692 112.511 67.1692 111.081C67.1692 109.658 66.0111 108.5 64.5827 108.5Z" fill="black"/>
<path d="M69.7507 108.5C68.3242 108.5 67.1699 109.658 67.1699 111.081C67.1699 112.511 68.3242 113.669 69.7507 113.669C71.1772 113.669 72.3314 112.511 72.3314 111.081C72.3314 109.658 71.1772 108.5 69.7507 108.5Z" fill="black"/>
<path d="M74.9186 108.5C73.4882 108.5 72.3301 109.658 72.3301 111.081C72.3301 112.511 73.4882 113.669 74.9186 113.669C76.3414 113.669 77.4993 112.511 77.4993 111.081C77.4993 109.658 76.3414 108.5 74.9186 108.5Z" fill="black"/>
<path d="M85.2507 108.5C83.8239 108.5 82.6699 109.658 82.6699 111.081C82.6699 112.511 83.8242 113.669 85.2507 113.669C86.6772 113.669 87.8314 112.511 87.8314 111.081C87.8314 109.658 86.6774 108.5 85.2507 108.5Z" fill="black"/>
<path d="M90.4186 108.5C88.9882 108.5 87.8301 109.658 87.8301 111.081C87.8301 112.511 88.988 113.669 90.4186 113.669C91.8414 113.669 92.9993 112.511 92.9993 111.081C92.9993 109.658 91.8414 108.5 90.4186 108.5Z" fill="black"/>
<path d="M100.751 108.5C99.3242 108.5 98.1699 109.658 98.1699 111.081C98.1699 112.511 99.3242 113.669 100.751 113.669C102.177 113.669 103.331 112.511 103.331 111.081C103.331 109.658 102.177 108.5 100.751 108.5Z" fill="black"/>
<path d="M111.081 108.5C109.658 108.5 108.5 109.658 108.5 111.081C108.5 112.511 109.658 113.669 111.081 113.669C112.511 113.669 113.669 112.511 113.669 111.081C113.669 109.658 112.511 108.5 111.081 108.5Z" fill="black"/>
<path d="M121.419 108.5C119.988 108.5 118.83 109.658 118.83 111.081C118.83 112.511 119.988 113.669 121.419 113.669C122.841 113.669 123.999 112.511 123.999 111.081C123.999 109.658 122.841 108.5 121.419 108.5Z" fill="black"/>
<path d="M38.7507 103.331C37.3239 103.331 36.168 104.489 36.168 105.919C36.168 107.342 37.3239 108.5 38.7507 108.5C40.1774 108.5 41.3333 107.342 41.3333 105.919C41.3333 104.489 40.1774 103.331 38.7507 103.331Z" fill="black"/>
<path d="M43.9167 103.331C42.4899 103.331 41.332 104.489 41.332 105.919C41.332 107.342 42.4899 108.5 43.9167 108.5C45.3434 108.5 46.4993 107.342 46.4993 105.919C46.4993 104.489 45.3434 103.331 43.9167 103.331Z" fill="black"/>
<path d="M49.0827 103.331C47.656 103.331 46.5 104.489 46.5 105.919C46.5 107.342 47.656 108.5 49.0827 108.5C50.5094 108.5 51.6673 107.342 51.6673 105.919C51.6673 104.489 50.5094 103.331 49.0827 103.331Z" fill="black"/>
<path d="M64.5827 103.331C63.156 103.331 62 104.489 62 105.919C62 107.342 63.156 108.5 64.5827 108.5C66.0111 108.5 67.1692 107.342 67.1692 105.919C67.1692 104.489 66.0114 103.331 64.5827 103.331Z" fill="black"/>
<path d="M69.7507 103.331C68.3242 103.331 67.1699 104.489 67.1699 105.919C67.1699 107.342 68.3242 108.5 69.7507 108.5C71.1772 108.5 72.3314 107.342 72.3314 105.919C72.3314 104.489 71.1772 103.331 69.7507 103.331Z" fill="black"/>
<path d="M80.0808 103.331C78.6579 103.331 77.5 104.489 77.5 105.919C77.5 107.342 78.6579 108.5 80.0808 108.5C81.5111 108.5 82.6692 107.342 82.6692 105.919C82.6692 104.489 81.5111 103.331 80.0808 103.331Z" fill="black"/>
<path d="M116.251 103.331C114.824 103.331 113.67 104.489 113.67 105.919C113.67 107.342 114.824 108.5 116.251 108.5C117.677 108.5 118.831 107.342 118.831 105.919C118.831 104.489 117.677 103.331 116.251 103.331Z" fill="black"/>
<path d="M121.419 103.331C119.988 103.331 118.83 104.489 118.83 105.919C118.83 107.342 119.988 108.5 121.419 108.5C122.841 108.5 123.999 107.342 123.999 105.919C123.999 104.489 122.841 103.331 121.419 103.331Z" fill="black"/>
<path d="M38.7507 98.1693C37.3239 98.1693 36.168 99.3235 36.168 100.75C36.168 102.176 37.3239 103.331 38.7507 103.331C40.1774 103.331 41.3333 102.177 41.3333 100.75C41.3333 99.3233 40.1774 98.1693 38.7507 98.1693Z" fill="black"/>
<path d="M49.0827 98.1693C47.656 98.1693 46.5 99.3233 46.5 100.75C46.5 102.177 47.656 103.331 49.0827 103.331C50.5094 103.331 51.6673 102.177 51.6673 100.75C51.6673 99.3233 50.5094 98.1693 49.0827 98.1693Z" fill="black"/>
<path d="M54.2507 98.1693C52.8239 98.1693 51.668 99.3235 51.668 100.75C51.668 102.176 52.8239 103.331 54.2507 103.331C55.6774 103.331 56.8333 102.176 56.8333 100.75C56.8333 99.3235 55.6774 98.1693 54.2507 98.1693Z" fill="black"/>
<path d="M64.5827 98.1693C63.156 98.1693 62 99.3235 62 100.75C62 102.176 63.156 103.331 64.5827 103.331C66.0111 103.331 67.1692 102.177 67.1692 100.75C67.1692 99.3233 66.0114 98.1693 64.5827 98.1693Z" fill="black"/>
<path d="M69.7507 98.1693C68.3242 98.1693 67.1699 99.3233 67.1699 100.75C67.1699 102.177 68.3242 103.331 69.7507 103.331C71.1772 103.331 72.3314 102.176 72.3314 100.75C72.3314 99.3235 71.1772 98.1693 69.7507 98.1693Z" fill="black"/>
<path d="M80.0808 98.1693C78.6579 98.1693 77.5 99.3235 77.5 100.75C77.5 102.176 78.6579 103.331 80.0808 103.331C81.5111 103.331 82.6692 102.177 82.6692 100.75C82.6692 99.3233 81.5114 98.1693 80.0808 98.1693Z" fill="black"/>
<path d="M116.251 98.1693C114.824 98.1693 113.67 99.3233 113.67 100.75C113.67 102.177 114.824 103.331 116.251 103.331C117.677 103.331 118.831 102.176 118.831 100.75C118.831 99.3235 117.677 98.1693 116.251 98.1693Z" fill="black"/>
<path d="M38.7507 93C37.3239 93 36.168 94.1579 36.168 95.5808C36.168 97.0111 37.3239 98.1692 38.7507 98.1692C40.1774 98.1692 41.3333 97.0111 41.3333 95.5808C41.3333 94.1579 40.1774 93 38.7507 93Z" fill="black"/>
<path d="M49.0827 93C47.656 93 46.5 94.1579 46.5 95.5808C46.5 97.0111 47.656 98.1692 49.0827 98.1692C50.5094 98.1692 51.6673 97.0111 51.6673 95.5808C51.6673 94.1579 50.5094 93 49.0827 93Z" fill="black"/>
<path d="M59.4167 93C57.9899 93 56.832 94.1579 56.832 95.5808C56.832 97.0111 57.9899 98.1692 59.4167 98.1692C60.8434 98.1692 61.9993 97.0111 61.9993 95.5808C61.9993 94.1579 60.8434 93 59.4167 93Z" fill="black"/>
<path d="M69.7507 93C68.3239 93 67.1699 94.1579 67.1699 95.5808C67.1699 97.0111 68.3242 98.1692 69.7507 98.1692C71.1772 98.1692 72.3314 97.0114 72.3314 95.5808C72.3314 94.1579 71.1774 93 69.7507 93Z" fill="black"/>
<path d="M74.9186 93C73.4882 93 72.3301 94.1579 72.3301 95.5808C72.3301 97.0111 73.488 98.1692 74.9186 98.1692C76.3414 98.1692 77.4993 97.0114 77.4993 95.5808C77.4993 94.1579 76.3414 93 74.9186 93Z" fill="black"/>
<path d="M111.081 93C109.658 93 108.5 94.1579 108.5 95.5808C108.5 97.0111 109.658 98.1692 111.081 98.1692C112.511 98.1692 113.669 97.0114 113.669 95.5808C113.669 94.1579 112.511 93 111.081 93Z" fill="black"/>
<path d="M116.251 93C114.824 93 113.67 94.1579 113.67 95.5808C113.67 97.0111 114.824 98.1692 116.251 98.1692C117.677 98.1692 118.831 97.0114 118.831 95.5808C118.831 94.1579 117.677 93 116.251 93Z" fill="black"/>
<path d="M121.419 93C119.988 93 118.83 94.1579 118.83 95.5808C118.83 97.0111 119.988 98.1692 121.419 98.1692C122.841 98.1692 123.999 97.0114 123.999 95.5808C123.999 94.1579 122.841 93 121.419 93Z" fill="black"/>
<path d="M43.9167 87.8307C42.4899 87.8307 41.332 88.9886 41.332 90.4192C41.332 91.8421 42.4899 93 43.9167 93C45.3434 93 46.4993 91.8421 46.4993 90.4192C46.4993 88.9889 45.3434 87.8307 43.9167 87.8307Z" fill="black"/>
<path d="M49.0827 87.8307C47.656 87.8307 46.5 88.9889 46.5 90.4192C46.5 91.8421 47.656 93 49.0827 93C50.5094 93 51.6673 91.8421 51.6673 90.4192C51.6673 88.9889 50.5094 87.8307 49.0827 87.8307Z" fill="black"/>
<path d="M54.2507 87.8307C52.8239 87.8307 51.668 88.9889 51.668 90.4192C51.668 91.8421 52.8239 93 54.2507 93C55.6774 93 56.8333 91.8421 56.8333 90.4192C56.8333 88.9889 55.6774 87.8307 54.2507 87.8307Z" fill="black"/>
<path d="M59.4167 87.8307C57.9899 87.8307 56.832 88.9886 56.832 90.4192C56.832 91.8421 57.9899 93 59.4167 93C60.8434 93 61.9993 91.8421 61.9993 90.4192C61.9993 88.9889 60.8434 87.8307 59.4167 87.8307Z" fill="black"/>
<path d="M64.5827 87.8307C63.156 87.8307 62 88.9886 62 90.4192C62 91.8421 63.156 93 64.5827 93C66.0111 93 67.1692 91.8421 67.1692 90.4192C67.1692 88.9889 66.0114 87.8307 64.5827 87.8307Z" fill="black"/>
<path d="M74.9186 87.8307C73.4882 87.8307 72.3301 88.9886 72.3301 90.4192C72.3301 91.8421 73.488 93 74.9186 93C76.3414 93 77.4993 91.8421 77.4993 90.4192C77.4993 88.9889 76.3414 87.8307 74.9186 87.8307Z" fill="black"/>
<path d="M80.0808 87.8307C78.6579 87.8307 77.5 88.9886 77.5 90.4192C77.5 91.8421 78.6579 93 80.0808 93C81.5111 93 82.6692 91.8421 82.6692 90.4192C82.6692 88.9889 81.5111 87.8307 80.0808 87.8307Z" fill="black"/>
<path d="M111.081 87.8307C109.658 87.8307 108.5 88.9886 108.5 90.4192C108.5 91.8421 109.658 93 111.081 93C112.511 93 113.669 91.8421 113.669 90.4192C113.669 88.9889 112.511 87.8307 111.081 87.8307Z" fill="black"/>
<path d="M121.419 87.8307C119.988 87.8307 118.83 88.9886 118.83 90.4192C118.83 91.8421 119.988 93 121.419 93C122.841 93 123.999 91.8421 123.999 90.4192C123.999 88.9889 122.841 87.8307 121.419 87.8307Z" fill="black"/>
<path d="M2.58269 82.6693C1.15596 82.6693 0 83.8233 0 85.25C0 86.6767 1.15596 87.8308 2.58269 87.8308C4.00941 87.8308 5.16731 86.6767 5.16731 85.25C5.16731 83.8233 4.00941 82.6693 2.58269 82.6693Z" fill="black"/>
<path d="M7.75066 82.6693C6.32393 82.6693 5.16797 83.8235 5.16797 85.25C5.16797 86.6765 6.32393 87.8308 7.75066 87.8308C9.17738 87.8308 10.3333 86.6767 10.3333 85.25C10.3333 83.8233 9.17738 82.6693 7.75066 82.6693Z" fill="black"/>
<path d="M12.9167 82.6693C11.4899 82.6693 10.332 83.8233 10.332 85.25C10.332 86.6767 11.4899 87.8308 12.9167 87.8308C14.3434 87.8308 15.4993 86.6767 15.4993 85.25C15.4993 83.8233 14.3434 82.6693 12.9167 82.6693Z" fill="black"/>
<path d="M23.2507 82.6693C21.8239 82.6693 20.668 83.8233 20.668 85.25C20.668 86.6767 21.8239 87.8308 23.2507 87.8308C24.6774 87.8308 25.8333 86.6765 25.8333 85.25C25.8333 83.8235 24.6774 82.6693 23.2507 82.6693Z" fill="black"/>
<path d="M33.5827 82.6693C32.156 82.6693 31 83.8233 31 85.25C31 86.6767 32.156 87.8308 33.5827 87.8308C35.0094 87.8308 36.1673 86.6765 36.1673 85.25C36.1673 83.8235 35.0094 82.6693 33.5827 82.6693Z" fill="black"/>
<path d="M38.7507 82.6693C37.3239 82.6693 36.168 83.8235 36.168 85.25C36.168 86.6765 37.3239 87.8308 38.7507 87.8308C40.1774 87.8308 41.3333 86.6765 41.3333 85.25C41.3333 83.8235 40.1774 82.6693 38.7507 82.6693Z" fill="black"/>
<path d="M49.0827 82.6693C47.656 82.6693 46.5 83.8233 46.5 85.25C46.5 86.6767 47.656 87.8308 49.0827 87.8308C50.5094 87.8308 51.6673 86.6767 51.6673 85.25C51.6673 83.8233 50.5094 82.6693 49.0827 82.6693Z" fill="black"/>
<path d="M54.2507 82.6693C52.8239 82.6693 51.668 83.8233 51.668 85.25C51.668 86.6767 52.8239 87.8308 54.2507 87.8308C55.6774 87.8308 56.8333 86.6765 56.8333 85.25C56.8333 83.8235 55.6774 82.6693 54.2507 82.6693Z" fill="black"/>
<path d="M64.5827 82.6693C63.156 82.6693 62 83.8235 62 85.25C62 86.6765 63.156 87.8308 64.5827 87.8308C66.0111 87.8308 67.1692 86.6767 67.1692 85.25C67.1692 83.8233 66.0114 82.6693 64.5827 82.6693Z" fill="black"/>
<path d="M80.0808 82.6693C78.6579 82.6693 77.5 83.8235 77.5 85.25C77.5 86.6765 78.6579 87.8308 80.0808 87.8308C81.5111 87.8308 82.6692 86.6767 82.6692 85.25C82.6692 83.8233 81.5114 82.6693 80.0808 82.6693Z" fill="black"/>
<path d="M116.251 82.6693C114.824 82.6693 113.67 83.8235 113.67 85.25C113.67 86.6765 114.824 87.8308 116.251 87.8308C117.677 87.8308 118.831 86.6765 118.831 85.25C118.831 83.8235 117.677 82.6693 116.251 82.6693Z" fill="black"/>
<path d="M2.58269 77.5C1.15596 77.5 0 78.6579 0 80.0808C0 81.5111 1.15596 82.6692 2.58269 82.6692C4.00941 82.6692 5.16731 81.5111 5.16731 80.0808C5.16731 78.6579 4.00941 77.5 2.58269 77.5Z" fill="black"/>
<path d="M12.9167 77.5C11.4899 77.5 10.332 78.6579 10.332 80.0808C10.332 81.5111 11.4899 82.6692 12.9167 82.6692C14.3434 82.6692 15.4993 81.5111 15.4993 80.0808C15.4993 78.6579 14.3434 77.5 12.9167 77.5Z" fill="black"/>
<path d="M23.2507 77.5C21.8239 77.5 20.668 78.6579 20.668 80.0808C20.668 81.5111 21.8239 82.6692 23.2507 82.6692C24.6774 82.6692 25.8333 81.5114 25.8333 80.0808C25.8333 78.6579 24.6774 77.5 23.2507 77.5Z" fill="black"/>
<path d="M33.5827 77.5C32.156 77.5 31 78.6579 31 80.0808C31 81.5111 32.156 82.6692 33.5827 82.6692C35.0094 82.6692 36.1673 81.5114 36.1673 80.0808C36.1673 78.6579 35.0094 77.5 33.5827 77.5Z" fill="black"/>
<path d="M43.9167 77.5C42.4899 77.5 41.332 78.6579 41.332 80.0808C41.332 81.5111 42.4899 82.6692 43.9167 82.6692C45.3434 82.6692 46.4993 81.5111 46.4993 80.0808C46.4993 78.6579 45.3434 77.5 43.9167 77.5Z" fill="black"/>
<path d="M49.0827 77.5C47.656 77.5 46.5 78.6579 46.5 80.0808C46.5 81.5111 47.656 82.6692 49.0827 82.6692C50.5094 82.6692 51.6673 81.5111 51.6673 80.0808C51.6673 78.6579 50.5094 77.5 49.0827 77.5Z" fill="black"/>
<path d="M54.2507 77.5C52.8239 77.5 51.668 78.6579 51.668 80.0808C51.668 81.5111 52.8239 82.6692 54.2507 82.6692C55.6774 82.6692 56.8333 81.5114 56.8333 80.0808C56.8333 78.6579 55.6774 77.5 54.2507 77.5Z" fill="black"/>
<path d="M64.5827 77.5C63.156 77.5 62 78.6579 62 80.0808C62 81.5111 63.156 82.6692 64.5827 82.6692C66.0111 82.6692 67.1692 81.5111 67.1692 80.0808C67.1692 78.6579 66.0114 77.5 64.5827 77.5Z" fill="black"/>
<path d="M74.9186 77.5C73.4882 77.5 72.3301 78.6579 72.3301 80.0808C72.3301 81.5111 73.488 82.6692 74.9186 82.6692C76.3414 82.6692 77.4993 81.5114 77.4993 80.0808C77.4993 78.6579 76.3414 77.5 74.9186 77.5Z" fill="black"/>
<path d="M90.4186 77.5C88.9882 77.5 87.8301 78.6579 87.8301 80.0808C87.8301 81.5111 88.988 82.6692 90.4186 82.6692C91.8414 82.6692 92.9993 81.5111 92.9993 80.0808C92.9993 78.6579 91.8414 77.5 90.4186 77.5Z" fill="black"/>
<path d="M95.5808 77.5C94.1579 77.5 93 78.6579 93 80.0808C93 81.5111 94.1579 82.6692 95.5808 82.6692C97.0111 82.6692 98.1692 81.5114 98.1692 80.0808C98.1692 78.6579 97.0114 77.5 95.5808 77.5Z" fill="black"/>
<path d="M105.919 77.5C104.488 77.5 103.33 78.6579 103.33 80.0808C103.33 81.5111 104.488 82.6692 105.919 82.6692C107.341 82.6692 108.499 81.5111 108.499 80.0808C108.499 78.6579 107.341 77.5 105.919 77.5Z" fill="black"/>
<path d="M111.081 77.5C109.658 77.5 108.5 78.6579 108.5 80.0808C108.5 81.5111 109.658 82.6692 111.081 82.6692C112.511 82.6692 113.669 81.5114 113.669 80.0808C113.669 78.6579 112.511 77.5 111.081 77.5Z" fill="black"/>
<path d="M121.419 77.5C119.988 77.5 118.83 78.6579 118.83 80.0808C118.83 81.5111 119.988 82.6692 121.419 82.6692C122.841 82.6692 123.999 81.5114 123.999 80.0808C123.999 78.6579 122.841 77.5 121.419 77.5Z" fill="black"/>
<path d="M2.58269 72.3307C1.15596 72.3307 0 73.4889 0 74.9192C0 76.3421 1.15596 77.5 2.58269 77.5C4.00941 77.5 5.16731 76.3421 5.16731 74.9192C5.16731 73.4889 4.00941 72.3307 2.58269 72.3307Z" fill="black"/>
<path d="M12.9167 72.3307C11.4899 72.3307 10.332 73.4886 10.332 74.9192C10.332 76.3421 11.4899 77.5 12.9167 77.5C14.3434 77.5 15.4993 76.3421 15.4993 74.9192C15.4993 73.4889 14.3434 72.3307 12.9167 72.3307Z" fill="black"/>
<path d="M18.0827 72.3307C16.656 72.3307 15.5 73.4886 15.5 74.9192C15.5 76.3421 16.656 77.5 18.0827 77.5C19.5094 77.5 20.6673 76.3421 20.6673 74.9192C20.6673 73.4889 19.5094 72.3307 18.0827 72.3307Z" fill="black"/>
<path d="M23.2507 72.3307C21.8239 72.3307 20.668 73.4886 20.668 74.9192C20.668 76.3421 21.8239 77.5 23.2507 77.5C24.6774 77.5 25.8333 76.3421 25.8333 74.9192C25.8333 73.4889 24.6774 72.3307 23.2507 72.3307Z" fill="black"/>
<path d="M28.4167 72.3307C26.9899 72.3307 25.832 73.4886 25.832 74.9192C25.832 76.3421 26.9899 77.5 28.4167 77.5C29.8434 77.5 30.9993 76.3421 30.9993 74.9192C30.9993 73.4889 29.8434 72.3307 28.4167 72.3307Z" fill="black"/>
<path d="M33.5827 72.3307C32.156 72.3307 31 73.4886 31 74.9192C31 76.3421 32.156 77.5 33.5827 77.5C35.0094 77.5 36.1673 76.3421 36.1673 74.9192C36.1673 73.4889 35.0094 72.3307 33.5827 72.3307Z" fill="black"/>
<path d="M38.7507 72.3307C37.3239 72.3307 36.168 73.4889 36.168 74.9192C36.168 76.3421 37.3239 77.5 38.7507 77.5C40.1774 77.5 41.3333 76.3421 41.3333 74.9192C41.3333 73.4889 40.1774 72.3307 38.7507 72.3307Z" fill="black"/>
<path d="M54.2507 72.3307C52.8239 72.3307 51.668 73.4886 51.668 74.9192C51.668 76.3421 52.8239 77.5 54.2507 77.5C55.6774 77.5 56.8333 76.3421 56.8333 74.9192C56.8333 73.4889 55.6774 72.3307 54.2507 72.3307Z" fill="black"/>
<path d="M64.5827 72.3307C63.156 72.3307 62 73.4886 62 74.9192C62 76.3421 63.156 77.5 64.5827 77.5C66.0111 77.5 67.1692 76.3421 67.1692 74.9192C67.1692 73.4889 66.0114 72.3307 64.5827 72.3307Z" fill="black"/>
<path d="M74.9186 72.3307C73.4882 72.3307 72.3301 73.4889 72.3301 74.9192C72.3301 76.3421 73.488 77.5 74.9186 77.5C76.3414 77.5 77.4993 76.3421 77.4993 74.9192C77.4993 73.4889 76.3414 72.3307 74.9186 72.3307Z" fill="black"/>
<path d="M80.0808 72.3307C78.6579 72.3307 77.5 73.4886 77.5 74.9192C77.5 76.3421 78.6579 77.5 80.0808 77.5C81.5111 77.5 82.6692 76.3421 82.6692 74.9192C82.6692 73.4889 81.5114 72.3307 80.0808 72.3307Z" fill="black"/>
<path d="M95.5808 72.3307C94.1579 72.3307 93 73.4886 93 74.9192C93 76.3421 94.1579 77.5 95.5808 77.5C97.0111 77.5 98.1692 76.3421 98.1692 74.9192C98.1692 73.4889 97.0114 72.3307 95.5808 72.3307Z" fill="black"/>
<path d="M105.919 72.3307C104.488 72.3307 103.33 73.4886 103.33 74.9192C103.33 76.3421 104.488 77.5 105.919 77.5C107.341 77.5 108.499 76.3421 108.499 74.9192C108.499 73.4889 107.341 72.3307 105.919 72.3307Z" fill="black"/>
<path d="M121.419 72.3307C119.988 72.3307 118.83 73.4889 118.83 74.9192C118.83 76.3421 119.988 77.5 121.419 77.5C122.841 77.5 123.999 76.3421 123.999 74.9192C123.999 73.4889 122.841 72.3307 121.419 72.3307Z" fill="black"/>
<path d="M7.75066 67.1693C6.32393 67.1693 5.16797 68.3235 5.16797 69.75C5.16797 71.1765 6.32393 72.3308 7.75066 72.3308C9.17738 72.3308 10.3333 71.1767 10.3333 69.75C10.3333 68.3233 9.17738 67.1693 7.75066 67.1693Z" fill="black"/>
<path d="M12.9167 67.1693C11.4899 67.1693 10.332 68.3233 10.332 69.75C10.332 71.1767 11.4899 72.3308 12.9167 72.3308C14.3434 72.3308 15.4993 71.1767 15.4993 69.75C15.4993 68.3233 14.3434 67.1693 12.9167 67.1693Z" fill="black"/>
<path d="M28.4167 67.1693C26.9899 67.1693 25.832 68.3233 25.832 69.75C25.832 71.1767 26.9899 72.3308 28.4167 72.3308C29.8434 72.3308 30.9993 71.1767 30.9993 69.75C30.9993 68.3233 29.8434 67.1693 28.4167 67.1693Z" fill="black"/>
<path d="M38.7507 67.1693C37.3239 67.1693 36.168 68.3235 36.168 69.75C36.168 71.1765 37.3239 72.3308 38.7507 72.3308C40.1774 72.3308 41.3333 71.1765 41.3333 69.75C41.3333 68.3235 40.1774 67.1693 38.7507 67.1693Z" fill="black"/>
<path d="M43.9167 67.1693C42.4899 67.1693 41.332 68.3233 41.332 69.75C41.332 71.1767 42.4899 72.3308 43.9167 72.3308C45.3434 72.3308 46.4993 71.1767 46.4993 69.75C46.4993 68.3233 45.3434 67.1693 43.9167 67.1693Z" fill="black"/>
<path d="M59.4167 67.1693C57.9899 67.1693 56.832 68.3233 56.832 69.75C56.832 71.1767 57.9899 72.3308 59.4167 72.3308C60.8434 72.3308 61.9993 71.1767 61.9993 69.75C61.9993 68.3233 60.8434 67.1693 59.4167 67.1693Z" fill="black"/>
<path d="M69.7507 67.1693C68.3239 67.1693 67.1699 68.3235 67.1699 69.75C67.1699 71.1765 68.3242 72.3308 69.7507 72.3308C71.1772 72.3308 72.3314 71.1765 72.3314 69.75C72.3314 68.3235 71.1774 67.1693 69.7507 67.1693Z" fill="black"/>
<path d="M74.9186 67.1693C73.4882 67.1693 72.3301 68.3233 72.3301 69.75C72.3301 71.1767 73.488 72.3308 74.9186 72.3308C76.3414 72.3308 77.4993 71.1765 77.4993 69.75C77.4993 68.3235 76.3414 67.1693 74.9186 67.1693Z" fill="black"/>
<path d="M90.4186 67.1693C88.9882 67.1693 87.8301 68.3235 87.8301 69.75C87.8301 71.1765 88.988 72.3308 90.4186 72.3308C91.8414 72.3308 92.9993 71.1765 92.9993 69.75C92.9993 68.3235 91.8414 67.1693 90.4186 67.1693Z" fill="black"/>
<path d="M95.5808 67.1693C94.1579 67.1693 93 68.3235 93 69.75C93 71.1765 94.1579 72.3308 95.5808 72.3308C97.0111 72.3308 98.1692 71.1767 98.1692 69.75C98.1692 68.3233 97.0114 67.1693 95.5808 67.1693Z" fill="black"/>
<path d="M100.751 67.1693C99.3242 67.1693 98.1699 68.3235 98.1699 69.75C98.1699 71.1765 99.3239 72.3308 100.751 72.3308C102.177 72.3308 103.331 71.1765 103.331 69.75C103.331 68.3235 102.177 67.1693 100.751 67.1693Z" fill="black"/>
<path d="M111.081 67.1693C109.658 67.1693 108.5 68.3235 108.5 69.75C108.5 71.1765 109.658 72.3308 111.081 72.3308C112.511 72.3308 113.669 71.1765 113.669 69.75C113.669 68.3235 112.511 67.1693 111.081 67.1693Z" fill="black"/>
<path d="M116.251 67.1693C114.824 67.1693 113.67 68.3235 113.67 69.75C113.67 71.1765 114.824 72.3308 116.251 72.3308C117.677 72.3308 118.831 71.1765 118.831 69.75C118.831 68.3235 117.677 67.1693 116.251 67.1693Z" fill="black"/>
<path d="M121.419 67.1693C119.988 67.1693 118.83 68.3235 118.83 69.75C118.83 71.1765 119.988 72.3308 121.419 72.3308C122.841 72.3308 123.999 71.1767 123.999 69.75C123.999 68.3233 122.841 67.1693 121.419 67.1693Z" fill="black"/>
<path d="M2.58269 62C1.15596 62 0 63.156 0 64.5827C0 66.0111 1.15596 67.1692 2.58269 67.1692C4.00941 67.1692 5.16731 66.0114 5.16731 64.5827C5.16731 63.156 4.00941 62 2.58269 62Z" fill="black"/>
<path d="M7.75066 62C6.32393 62 5.16797 63.156 5.16797 64.5827C5.16797 66.0111 6.32393 67.1692 7.75066 67.1692C9.17738 67.1692 10.3333 66.0111 10.3333 64.5827C10.3333 63.156 9.17738 62 7.75066 62Z" fill="black"/>
<path d="M12.9167 62C11.4899 62 10.332 63.156 10.332 64.5827C10.332 66.0111 11.4899 67.1692 12.9167 67.1692C14.3434 67.1692 15.4993 66.0111 15.4993 64.5827C15.4993 63.156 14.3434 62 12.9167 62Z" fill="black"/>
<path d="M18.0827 62C16.656 62 15.5 63.156 15.5 64.5827C15.5 66.0111 16.656 67.1692 18.0827 67.1692C19.5094 67.1692 20.6673 66.0114 20.6673 64.5827C20.6673 63.156 19.5094 62 18.0827 62Z" fill="black"/>
<path d="M23.2507 62C21.8239 62 20.668 63.156 20.668 64.5827C20.668 66.0111 21.8239 67.1692 23.2507 67.1692C24.6774 67.1692 25.8333 66.0114 25.8333 64.5827C25.8333 63.156 24.6774 62 23.2507 62Z" fill="black"/>
<path d="M28.4167 62C26.9899 62 25.832 63.156 25.832 64.5827C25.832 66.0111 26.9899 67.1692 28.4167 67.1692C29.8434 67.1692 30.9993 66.0111 30.9993 64.5827C30.9993 63.156 29.8434 62 28.4167 62Z" fill="black"/>
<path d="M33.5827 62C32.156 62 31 63.156 31 64.5827C31 66.0111 32.156 67.1692 33.5827 67.1692C35.0094 67.1692 36.1673 66.0114 36.1673 64.5827C36.1673 63.156 35.0094 62 33.5827 62Z" fill="black"/>
<path d="M43.9167 62C42.4899 62 41.332 63.156 41.332 64.5827C41.332 66.0111 42.4899 67.1692 43.9167 67.1692C45.3434 67.1692 46.4993 66.0111 46.4993 64.5827C46.4993 63.156 45.3434 62 43.9167 62Z" fill="black"/>
<path d="M49.0827 62C47.656 62 46.5 63.156 46.5 64.5827C46.5 66.0111 47.656 67.1692 49.0827 67.1692C50.5094 67.1692 51.6673 66.0114 51.6673 64.5827C51.6673 63.156 50.5094 62 49.0827 62Z" fill="black"/>
<path d="M54.2507 62C52.8239 62 51.668 63.156 51.668 64.5827C51.668 66.0111 52.8239 67.1692 54.2507 67.1692C55.6774 67.1692 56.8333 66.0114 56.8333 64.5827C56.8333 63.156 55.6774 62 54.2507 62Z" fill="black"/>
<path d="M59.4167 62C57.9899 62 56.832 63.156 56.832 64.5827C56.832 66.0111 57.9899 67.1692 59.4167 67.1692C60.8434 67.1692 61.9993 66.0114 61.9993 64.5827C61.9993 63.156 60.8434 62 59.4167 62Z" fill="black"/>
<path d="M69.7507 62C68.3242 62 67.1699 63.156 67.1699 64.5827C67.1699 66.0111 68.3242 67.1692 69.7507 67.1692C71.1772 67.1692 72.3314 66.0111 72.3314 64.5827C72.3314 63.156 71.1772 62 69.7507 62Z" fill="black"/>
<path d="M74.9186 62C73.4882 62 72.3301 63.156 72.3301 64.5827C72.3301 66.0111 73.488 67.1692 74.9186 67.1692C76.3414 67.1692 77.4993 66.0114 77.4993 64.5827C77.4993 63.156 76.3414 62 74.9186 62Z" fill="black"/>
<path d="M85.2507 62C83.8239 62 82.6699 63.156 82.6699 64.5827C82.6699 66.0111 83.8242 67.1692 85.2507 67.1692C86.6772 67.1692 87.8314 66.0114 87.8314 64.5827C87.8314 63.156 86.6774 62 85.2507 62Z" fill="black"/>
<path d="M90.4186 62C88.9882 62 87.8301 63.156 87.8301 64.5827C87.8301 66.0111 88.988 67.1692 90.4186 67.1692C91.8414 67.1692 92.9993 66.0111 92.9993 64.5827C92.9993 63.156 91.8414 62 90.4186 62Z" fill="black"/>
<path d="M105.919 62C104.488 62 103.33 63.156 103.33 64.5827C103.33 66.0111 104.488 67.1692 105.919 67.1692C107.341 67.1692 108.499 66.0114 108.499 64.5827C108.499 63.156 107.341 62 105.919 62Z" fill="black"/>
<path d="M116.251 62C114.824 62 113.67 63.156 113.67 64.5827C113.67 66.0111 114.824 67.1692 116.251 67.1692C117.677 67.1692 118.831 66.0111 118.831 64.5827C118.831 63.156 117.677 62 116.251 62Z" fill="black"/>
<path d="M2.58269 56.8327C1.15596 56.8327 0 57.9906 0 59.4173C0 60.8441 1.15596 62 2.58269 62C4.00941 62 5.16731 60.8441 5.16731 59.4173C5.16731 57.9906 4.00941 56.8327 2.58269 56.8327Z" fill="black"/>
<path d="M7.75066 56.8327C6.32393 56.8327 5.16797 57.9906 5.16797 59.4173C5.16797 60.8441 6.32393 62 7.75066 62C9.17738 62 10.3333 60.8441 10.3333 59.4173C10.3333 57.9906 9.17738 56.8327 7.75066 56.8327Z" fill="black"/>
<path d="M18.0827 56.8327C16.656 56.8327 15.5 57.9906 15.5 59.4173C15.5 60.8441 16.656 62 18.0827 62C19.5094 62 20.6673 60.8441 20.6673 59.4173C20.6673 57.9906 19.5094 56.8327 18.0827 56.8327Z" fill="black"/>
<path d="M28.4167 56.8327C26.9899 56.8327 25.832 57.9906 25.832 59.4173C25.832 60.8441 26.9899 62 28.4167 62C29.8434 62 30.9993 60.8441 30.9993 59.4173C30.9993 57.9906 29.8434 56.8327 28.4167 56.8327Z" fill="black"/>
<path d="M38.7507 56.8327C37.3239 56.8327 36.168 57.9906 36.168 59.4173C36.168 60.8441 37.3239 62 38.7507 62C40.1774 62 41.3333 60.8441 41.3333 59.4173C41.3333 57.9906 40.1774 56.8327 38.7507 56.8327Z" fill="black"/>
<path d="M43.9167 56.8327C42.4899 56.8327 41.332 57.9906 41.332 59.4173C41.332 60.8441 42.4899 62 43.9167 62C45.3434 62 46.4993 60.8441 46.4993 59.4173C46.4993 57.9906 45.3434 56.8327 43.9167 56.8327Z" fill="black"/>
<path d="M69.7507 56.8327C68.3242 56.8327 67.1699 57.9906 67.1699 59.4173C67.1699 60.8441 68.3242 62 69.7507 62C71.1772 62 72.3314 60.8441 72.3314 59.4173C72.3314 57.9906 71.1772 56.8327 69.7507 56.8327Z" fill="black"/>
<path d="M74.9186 56.8327C73.4882 56.8327 72.3301 57.9906 72.3301 59.4173C72.3301 60.8441 73.4882 62 74.9186 62C76.3414 62 77.4993 60.8441 77.4993 59.4173C77.4993 57.9906 76.3414 56.8327 74.9186 56.8327Z" fill="black"/>
<path d="M85.2507 56.8327C83.8242 56.8327 82.6699 57.9906 82.6699 59.4173C82.6699 60.8441 83.8239 62 85.2507 62C86.6774 62 87.8314 60.8441 87.8314 59.4173C87.8314 57.9906 86.6772 56.8327 85.2507 56.8327Z" fill="black"/>
<path d="M95.5808 56.8327C94.1579 56.8327 93 57.9906 93 59.4173C93 60.8441 94.1579 62 95.5808 62C97.0111 62 98.1692 60.8441 98.1692 59.4173C98.1692 57.9906 97.0111 56.8327 95.5808 56.8327Z" fill="black"/>
<path d="M100.751 56.8327C99.3242 56.8327 98.1699 57.9906 98.1699 59.4173C98.1699 60.8441 99.3242 62 100.751 62C102.177 62 103.331 60.8441 103.331 59.4173C103.331 57.9906 102.177 56.8327 100.751 56.8327Z" fill="black"/>
<path d="M105.919 56.8327C104.488 56.8327 103.33 57.9906 103.33 59.4173C103.33 60.8441 104.488 62 105.919 62C107.341 62 108.499 60.8441 108.499 59.4173C108.499 57.9906 107.341 56.8327 105.919 56.8327Z" fill="black"/>
<path d="M111.081 56.8327C109.658 56.8327 108.5 57.9906 108.5 59.4173C108.5 60.8441 109.658 62 111.081 62C112.511 62 113.669 60.8441 113.669 59.4173C113.669 57.9906 112.511 56.8327 111.081 56.8327Z" fill="black"/>
<path d="M121.419 56.8327C119.988 56.8327 118.83 57.9906 118.83 59.4173C118.83 60.8441 119.988 62 121.419 62C122.841 62 123.999 60.8441 123.999 59.4173C123.999 57.9906 122.841 56.8327 121.419 56.8327Z" fill="black"/>
<path d="M7.75066 56.8327C9.17703 56.8327 10.3333 55.6764 10.3333 54.25C10.3333 52.8236 9.17703 51.6673 7.75066 51.6673C6.32428 51.6673 5.16797 52.8236 5.16797 54.25C5.16797 55.6764 6.32428 56.8327 7.75066 56.8327Z" fill="black"/>
<path d="M12.9167 51.6673C11.4899 51.6673 10.332 52.8233 10.332 54.25C10.332 55.6767 11.4899 56.8327 12.9167 56.8327C14.3434 56.8327 15.4993 55.6767 15.4993 54.25C15.4993 52.8233 14.3434 51.6673 12.9167 51.6673Z" fill="black"/>
<path d="M18.0827 51.6673C16.656 51.6673 15.5 52.8233 15.5 54.25C15.5 55.6767 16.656 56.8327 18.0827 56.8327C19.5094 56.8327 20.6673 55.6767 20.6673 54.25C20.6673 52.8233 19.5094 51.6673 18.0827 51.6673Z" fill="black"/>
<path d="M23.2507 56.8327C24.677 56.8327 25.8333 55.6764 25.8333 54.25C25.8333 52.8236 24.677 51.6673 23.2507 51.6673C21.8243 51.6673 20.668 52.8236 20.668 54.25C20.668 55.6764 21.8243 56.8327 23.2507 56.8327Z" fill="black"/>
<path d="M28.4167 51.6673C26.9899 51.6673 25.832 52.8233 25.832 54.25C25.832 55.6767 26.9899 56.8327 28.4167 56.8327C29.8434 56.8327 30.9993 55.6767 30.9993 54.25C30.9993 52.8233 29.8434 51.6673 28.4167 51.6673Z" fill="black"/>
<path d="M33.5827 51.6673C32.156 51.6673 31 52.8233 31 54.25C31 55.6767 32.156 56.8327 33.5827 56.8327C35.0094 56.8327 36.1673 55.6767 36.1673 54.25C36.1673 52.8233 35.0094 51.6673 33.5827 51.6673Z" fill="black"/>
<path d="M38.7507 56.8327C40.177 56.8327 41.3333 55.6764 41.3333 54.25C41.3333 52.8236 40.177 51.6673 38.7507 51.6673C37.3243 51.6673 36.168 52.8236 36.168 54.25C36.168 55.6764 37.3243 56.8327 38.7507 56.8327Z" fill="black"/>
<path d="M43.9167 51.6673C42.4899 51.6673 41.332 52.8233 41.332 54.25C41.332 55.6767 42.4899 56.8327 43.9167 56.8327C45.3434 56.8327 46.4993 55.6767 46.4993 54.25C46.4993 52.8233 45.3434 51.6673 43.9167 51.6673Z" fill="black"/>
<path d="M49.0827 51.6673C47.656 51.6673 46.5 52.8233 46.5 54.25C46.5 55.6767 47.656 56.8327 49.0827 56.8327C50.5094 56.8327 51.6673 55.6767 51.6673 54.25C51.6673 52.8233 50.5094 51.6673 49.0827 51.6673Z" fill="black"/>
<path d="M54.2507 56.8327C55.677 56.8327 56.8333 55.6764 56.8333 54.25C56.8333 52.8236 55.677 51.6673 54.2507 51.6673C52.8243 51.6673 51.668 52.8236 51.668 54.25C51.668 55.6764 52.8243 56.8327 54.2507 56.8327Z" fill="black"/>
<path d="M64.5827 51.6673C63.156 51.6673 62 52.8233 62 54.25C62 55.6767 63.156 56.8327 64.5827 56.8327C66.0111 56.8327 67.1692 55.6767 67.1692 54.25C67.1692 52.8233 66.0111 51.6673 64.5827 51.6673Z" fill="black"/>
<path d="M69.7507 51.6673C68.3242 51.6673 67.1699 52.8233 67.1699 54.25C67.1699 55.6767 68.3242 56.8327 69.7507 56.8327C71.1772 56.8327 72.3314 55.6767 72.3314 54.25C72.3314 52.8233 71.1772 51.6673 69.7507 51.6673Z" fill="black"/>
<path d="M85.2507 51.6673C83.8242 51.6673 82.6699 52.8233 82.6699 54.25C82.6699 55.6767 83.8242 56.8327 85.2507 56.8327C86.6772 56.8327 87.8314 55.6767 87.8314 54.25C87.8314 52.8233 86.6772 51.6673 85.2507 51.6673Z" fill="black"/>
<path d="M90.4186 51.6673C88.9882 51.6673 87.8301 52.8233 87.8301 54.25C87.8301 55.6767 88.9882 56.8327 90.4186 56.8327C91.8414 56.8327 92.9993 55.6767 92.9993 54.25C92.9993 52.8233 91.8414 51.6673 90.4186 51.6673Z" fill="black"/>
<path d="M100.751 51.6673C99.3242 51.6673 98.1699 52.8233 98.1699 54.25C98.1699 55.6767 99.3242 56.8327 100.751 56.8327C102.177 56.8327 103.331 55.6767 103.331 54.25C103.331 52.8233 102.177 51.6673 100.751 51.6673Z" fill="black"/>
<path d="M111.081 51.6673C109.658 51.6673 108.5 52.8233 108.5 54.25C108.5 55.6767 109.658 56.8327 111.081 56.8327C112.511 56.8327 113.669 55.6767 113.669 54.25C113.669 52.8233 112.511 51.6673 111.081 51.6673Z" fill="black"/>
<path d="M121.419 51.6673C119.988 51.6673 118.83 52.8233 118.83 54.25C118.83 55.6767 119.988 56.8327 121.419 56.8327C122.841 56.8327 123.999 55.6767 123.999 54.25C123.999 52.8233 122.841 51.6673 121.419 51.6673Z" fill="black"/>
<path d="M2.58269 46.5C1.15596 46.5 0 47.656 0 49.0827C0 50.5094 1.15596 51.6673 2.58269 51.6673C4.00941 51.6673 5.16731 50.5094 5.16731 49.0827C5.16731 47.656 4.00941 46.5 2.58269 46.5Z" fill="black"/>
<path d="M12.9167 46.5C11.4899 46.5 10.332 47.656 10.332 49.0827C10.332 50.5094 11.4899 51.6673 12.9167 51.6673C14.3434 51.6673 15.4993 50.5094 15.4993 49.0827C15.4993 47.656 14.3434 46.5 12.9167 46.5Z" fill="black"/>
<path d="M33.5827 46.5C32.156 46.5 31 47.656 31 49.0827C31 50.5094 32.156 51.6673 33.5827 51.6673C35.0094 51.6673 36.1673 50.5094 36.1673 49.0827C36.1673 47.656 35.0094 46.5 33.5827 46.5Z" fill="black"/>
<path d="M38.7507 46.5C37.3239 46.5 36.168 47.656 36.168 49.0827C36.168 50.5094 37.3239 51.6673 38.7507 51.6673C40.1774 51.6673 41.3333 50.5094 41.3333 49.0827C41.3333 47.656 40.1774 46.5 38.7507 46.5Z" fill="black"/>
<path d="M49.0827 46.5C47.656 46.5 46.5 47.656 46.5 49.0827C46.5 50.5094 47.656 51.6673 49.0827 51.6673C50.5094 51.6673 51.6673 50.5094 51.6673 49.0827C51.6673 47.656 50.5094 46.5 49.0827 46.5Z" fill="black"/>
<path d="M64.5827 46.5C63.156 46.5 62 47.656 62 49.0827C62 50.5094 63.156 51.6673 64.5827 51.6673C66.0111 51.6673 67.1692 50.5094 67.1692 49.0827C67.1692 47.656 66.0114 46.5 64.5827 46.5Z" fill="black"/>
<path d="M69.7507 46.5C68.3239 46.5 67.1699 47.656 67.1699 49.0827C67.1699 50.5094 68.3242 51.6673 69.7507 51.6673C71.1772 51.6673 72.3314 50.5094 72.3314 49.0827C72.3314 47.656 71.1774 46.5 69.7507 46.5Z" fill="black"/>
<path d="M74.9186 46.5C73.4882 46.5 72.3301 47.656 72.3301 49.0827C72.3301 50.5094 73.488 51.6673 74.9186 51.6673C76.3414 51.6673 77.4993 50.5094 77.4993 49.0827C77.4993 47.656 76.3414 46.5 74.9186 46.5Z" fill="black"/>
<path d="M80.0808 46.5C78.6579 46.5 77.5 47.656 77.5 49.0827C77.5 50.5094 78.6579 51.6673 80.0808 51.6673C81.5111 51.6673 82.6692 50.5094 82.6692 49.0827C82.6692 47.656 81.5111 46.5 80.0808 46.5Z" fill="black"/>
<path d="M90.4186 46.5C88.9882 46.5 87.8301 47.656 87.8301 49.0827C87.8301 50.5094 88.988 51.6673 90.4186 51.6673C91.8414 51.6673 92.9993 50.5094 92.9993 49.0827C92.9993 47.656 91.8414 46.5 90.4186 46.5Z" fill="black"/>
<path d="M95.5808 46.5C94.1579 46.5 93 47.656 93 49.0827C93 50.5094 94.1579 51.6673 95.5808 51.6673C97.0111 51.6673 98.1692 50.5094 98.1692 49.0827C98.1692 47.656 97.0111 46.5 95.5808 46.5Z" fill="black"/>
<path d="M100.751 46.5C99.3239 46.5 98.1699 47.656 98.1699 49.0827C98.1699 50.5094 99.3239 51.6673 100.751 51.6673C102.177 51.6673 103.331 50.5094 103.331 49.0827C103.331 47.656 102.177 46.5 100.751 46.5Z" fill="black"/>
<path d="M105.919 46.5C104.488 46.5 103.33 47.656 103.33 49.0827C103.33 50.5094 104.488 51.6673 105.919 51.6673C107.341 51.6673 108.499 50.5094 108.499 49.0827C108.499 47.656 107.341 46.5 105.919 46.5Z" fill="black"/>
<path d="M121.419 46.5C119.988 46.5 118.83 47.656 118.83 49.0827C118.83 50.5094 119.988 51.6673 121.419 51.6673C122.841 51.6673 123.999 50.5094 123.999 49.0827C123.999 47.656 122.841 46.5 121.419 46.5Z" fill="black"/>
<path d="M2.58269 41.3327C1.15596 41.3327 0 42.4906 0 43.9173C0 45.3441 1.15596 46.5 2.58269 46.5C4.00941 46.5 5.16731 45.3441 5.16731 43.9173C5.16731 42.4906 4.00941 41.3327 2.58269 41.3327Z" fill="black"/>
<path d="M7.75066 41.3327C6.32393 41.3327 5.16797 42.4906 5.16797 43.9173C5.16797 45.3441 6.32393 46.5 7.75066 46.5C9.17738 46.5 10.3333 45.3441 10.3333 43.9173C10.3333 42.4906 9.17738 41.3327 7.75066 41.3327Z" fill="black"/>
<path d="M18.0827 41.3327C16.656 41.3327 15.5 42.4906 15.5 43.9173C15.5 45.3441 16.656 46.5 18.0827 46.5C19.5094 46.5 20.6673 45.3441 20.6673 43.9173C20.6673 42.4906 19.5094 41.3327 18.0827 41.3327Z" fill="black"/>
<path d="M28.4167 41.3327C26.9899 41.3327 25.832 42.4906 25.832 43.9173C25.832 45.3441 26.9899 46.5 28.4167 46.5C29.8434 46.5 30.9993 45.3441 30.9993 43.9173C30.9993 42.4906 29.8434 41.3327 28.4167 41.3327Z" fill="black"/>
<path d="M33.5827 41.3327C32.156 41.3327 31 42.4906 31 43.9173C31 45.3441 32.156 46.5 33.5827 46.5C35.0094 46.5 36.1673 45.3441 36.1673 43.9173C36.1673 42.4906 35.0094 41.3327 33.5827 41.3327Z" fill="black"/>
<path d="M38.7507 41.3327C37.3239 41.3327 36.168 42.4906 36.168 43.9173C36.168 45.3441 37.3239 46.5 38.7507 46.5C40.1774 46.5 41.3333 45.3441 41.3333 43.9173C41.3333 42.4906 40.1774 41.3327 38.7507 41.3327Z" fill="black"/>
<path d="M43.9167 41.3327C42.4899 41.3327 41.332 42.4906 41.332 43.9173C41.332 45.3441 42.4899 46.5 43.9167 46.5C45.3434 46.5 46.4993 45.3441 46.4993 43.9173C46.4993 42.4906 45.3434 41.3327 43.9167 41.3327Z" fill="black"/>
<path d="M54.2507 41.3327C52.8239 41.3327 51.668 42.4906 51.668 43.9173C51.668 45.3441 52.8239 46.5 54.2507 46.5C55.6774 46.5 56.8333 45.3441 56.8333 43.9173C56.8333 42.4906 55.6774 41.3327 54.2507 41.3327Z" fill="black"/>
<path d="M59.4167 41.3327C57.9899 41.3327 56.832 42.4906 56.832 43.9173C56.832 45.3441 57.9899 46.5 59.4167 46.5C60.8434 46.5 61.9993 45.3441 61.9993 43.9173C61.9993 42.4906 60.8434 41.3327 59.4167 41.3327Z" fill="black"/>
<path d="M64.5827 41.3327C63.156 41.3327 62 42.4906 62 43.9173C62 45.3441 63.156 46.5 64.5827 46.5C66.0111 46.5 67.1692 45.3441 67.1692 43.9173C67.1692 42.4906 66.0114 41.3327 64.5827 41.3327Z" fill="black"/>
<path d="M74.9186 41.3327C73.4882 41.3327 72.3301 42.4906 72.3301 43.9173C72.3301 45.3441 73.488 46.5 74.9186 46.5C76.3414 46.5 77.4993 45.3441 77.4993 43.9173C77.4993 42.4906 76.3414 41.3327 74.9186 41.3327Z" fill="black"/>
<path d="M85.2507 41.3327C83.8239 41.3327 82.6699 42.4906 82.6699 43.9173C82.6699 45.3441 83.8239 46.5 85.2507 46.5C86.6774 46.5 87.8314 45.3441 87.8314 43.9173C87.8314 42.4906 86.6774 41.3327 85.2507 41.3327Z" fill="black"/>
<path d="M90.4186 41.3327C88.9882 41.3327 87.8301 42.4906 87.8301 43.9173C87.8301 45.3441 88.9882 46.5 90.4186 46.5C91.8414 46.5 92.9993 45.3441 92.9993 43.9173C92.9993 42.4906 91.8414 41.3327 90.4186 41.3327Z" fill="black"/>
<path d="M105.919 41.3327C104.488 41.3327 103.33 42.4906 103.33 43.9173C103.33 45.3441 104.488 46.5 105.919 46.5C107.341 46.5 108.499 45.3441 108.499 43.9173C108.499 42.4906 107.341 41.3327 105.919 41.3327Z" fill="black"/>
<path d="M111.081 41.3327C109.658 41.3327 108.5 42.4906 108.5 43.9173C108.5 45.3441 109.658 46.5 111.081 46.5C112.511 46.5 113.669 45.3441 113.669 43.9173C113.669 42.4906 112.511 41.3327 111.081 41.3327Z" fill="black"/>
<path d="M121.419 41.3327C119.988 41.3327 118.83 42.4906 118.83 43.9173C118.83 45.3441 119.988 46.5 121.419 46.5C122.841 46.5 123.999 45.3441 123.999 43.9173C123.999 42.4906 122.841 41.3327 121.419 41.3327Z" fill="black"/>
<path d="M7.75066 41.3327C9.17703 41.3327 10.3333 40.1764 10.3333 38.75C10.3333 37.3236 9.17703 36.1673 7.75066 36.1673C6.32428 36.1673 5.16797 37.3236 5.16797 38.75C5.16797 40.1764 6.32428 41.3327 7.75066 41.3327Z" fill="black"/>
<path d="M12.9167 36.1673C11.4899 36.1673 10.332 37.3233 10.332 38.75C10.332 40.1767 11.4899 41.3327 12.9167 41.3327C14.3434 41.3327 15.4993 40.1767 15.4993 38.75C15.4993 37.3233 14.3434 36.1673 12.9167 36.1673Z" fill="black"/>
<path d="M18.0827 36.1673C16.656 36.1673 15.5 37.3233 15.5 38.75C15.5 40.1767 16.656 41.3327 18.0827 41.3327C19.5094 41.3327 20.6673 40.1767 20.6673 38.75C20.6673 37.3233 19.5094 36.1673 18.0827 36.1673Z" fill="black"/>
<path d="M23.2507 41.3327C24.677 41.3327 25.8333 40.1764 25.8333 38.75C25.8333 37.3236 24.677 36.1673 23.2507 36.1673C21.8243 36.1673 20.668 37.3236 20.668 38.75C20.668 40.1764 21.8243 41.3327 23.2507 41.3327Z" fill="black"/>
<path d="M28.4167 36.1673C26.9899 36.1673 25.832 37.3233 25.832 38.75C25.832 40.1767 26.9899 41.3327 28.4167 41.3327C29.8434 41.3327 30.9993 40.1767 30.9993 38.75C30.9993 37.3233 29.8434 36.1673 28.4167 36.1673Z" fill="black"/>
<path d="M38.7507 41.3327C40.177 41.3327 41.3333 40.1764 41.3333 38.75C41.3333 37.3236 40.177 36.1673 38.7507 36.1673C37.3243 36.1673 36.168 37.3236 36.168 38.75C36.168 40.1764 37.3243 41.3327 38.7507 41.3327Z" fill="black"/>
<path d="M43.9167 36.1673C42.4899 36.1673 41.332 37.3233 41.332 38.75C41.332 40.1767 42.4899 41.3327 43.9167 41.3327C45.3434 41.3327 46.4993 40.1767 46.4993 38.75C46.4993 37.3233 45.3434 36.1673 43.9167 36.1673Z" fill="black"/>
<path d="M49.0827 36.1673C47.656 36.1673 46.5 37.3233 46.5 38.75C46.5 40.1767 47.656 41.3327 49.0827 41.3327C50.5094 41.3327 51.6673 40.1767 51.6673 38.75C51.6673 37.3233 50.5094 36.1673 49.0827 36.1673Z" fill="black"/>
<path d="M59.4167 36.1673C57.9899 36.1673 56.832 37.3233 56.832 38.75C56.832 40.1767 57.9899 41.3327 59.4167 41.3327C60.8434 41.3327 61.9993 40.1767 61.9993 38.75C61.9993 37.3233 60.8434 36.1673 59.4167 36.1673Z" fill="black"/>
<path d="M64.5827 36.1673C63.156 36.1673 62 37.3233 62 38.75C62 40.1767 63.156 41.3327 64.5827 41.3327C66.0111 41.3327 67.1692 40.1767 67.1692 38.75C67.1692 37.3233 66.0114 36.1673 64.5827 36.1673Z" fill="black"/>
<path d="M69.7507 36.1673C68.3242 36.1673 67.1699 37.3233 67.1699 38.75C67.1699 40.1767 68.3239 41.3327 69.7507 41.3327C71.1774 41.3327 72.3314 40.1767 72.3314 38.75C72.3314 37.3233 71.1772 36.1673 69.7507 36.1673Z" fill="black"/>
<path d="M74.9186 36.1673C73.4882 36.1673 72.3301 37.3233 72.3301 38.75C72.3301 40.1767 73.488 41.3327 74.9186 41.3327C76.3414 41.3327 77.4993 40.1767 77.4993 38.75C77.4993 37.3233 76.3414 36.1673 74.9186 36.1673Z" fill="black"/>
<path d="M85.2507 36.1673C83.8242 36.1673 82.6699 37.3233 82.6699 38.75C82.6699 40.1767 83.8242 41.3327 85.2507 41.3327C86.6772 41.3327 87.8314 40.1767 87.8314 38.75C87.8314 37.3233 86.6772 36.1673 85.2507 36.1673Z" fill="black"/>
<path d="M90.4186 36.1673C88.9882 36.1673 87.8301 37.3233 87.8301 38.75C87.8301 40.1767 88.9882 41.3327 90.4186 41.3327C91.8414 41.3327 92.9993 40.1767 92.9993 38.75C92.9993 37.3233 91.8414 36.1673 90.4186 36.1673Z" fill="black"/>
<path d="M100.751 36.1673C99.3239 36.1673 98.1699 37.3233 98.1699 38.75C98.1699 40.1767 99.3242 41.3327 100.751 41.3327C102.177 41.3327 103.331 40.1767 103.331 38.75C103.331 37.3233 102.177 36.1673 100.751 36.1673Z" fill="black"/>
<path d="M105.919 36.1673C104.488 36.1673 103.33 37.3233 103.33 38.75C103.33 40.1767 104.488 41.3327 105.919 41.3327C107.341 41.3327 108.499 40.1767 108.499 38.75C108.499 37.3233 107.341 36.1673 105.919 36.1673Z" fill="black"/>
<path d="M116.251 36.1673C114.824 36.1673 113.67 37.3233 113.67 38.75C113.67 40.1767 114.824 41.3327 116.251 41.3327C117.677 41.3327 118.831 40.1767 118.831 38.75C118.831 37.3233 117.677 36.1673 116.251 36.1673Z" fill="black"/>
<path d="M38.7507 31C37.3239 31 36.168 32.156 36.168 33.5827C36.168 35.0094 37.3239 36.1673 38.7507 36.1673C40.1774 36.1673 41.3333 35.0094 41.3333 33.5827C41.3333 32.156 40.1774 31 38.7507 31Z" fill="black"/>
<path d="M49.0827 31C47.656 31 46.5 32.156 46.5 33.5827C46.5 35.0094 47.656 36.1673 49.0827 36.1673C50.5094 36.1673 51.6673 35.0094 51.6673 33.5827C51.6673 32.156 50.5094 31 49.0827 31Z" fill="black"/>
<path d="M54.2507 31C52.8239 31 51.668 32.156 51.668 33.5827C51.668 35.0094 52.8239 36.1673 54.2507 36.1673C55.6774 36.1673 56.8333 35.0094 56.8333 33.5827C56.8333 32.156 55.6774 31 54.2507 31Z" fill="black"/>
<path d="M59.4167 31C57.9899 31 56.832 32.156 56.832 33.5827C56.832 35.0094 57.9899 36.1673 59.4167 36.1673C60.8434 36.1673 61.9993 35.0094 61.9993 33.5827C61.9993 32.156 60.8434 31 59.4167 31Z" fill="black"/>
<path d="M74.9186 31C73.4882 31 72.3301 32.156 72.3301 33.5827C72.3301 35.0094 73.488 36.1673 74.9186 36.1673C76.3414 36.1673 77.4993 35.0094 77.4993 33.5827C77.4993 32.156 76.3414 31 74.9186 31Z" fill="black"/>
<path d="M80.0808 31C78.6579 31 77.5 32.156 77.5 33.5827C77.5 35.0094 78.6579 36.1673 80.0808 36.1673C81.5111 36.1673 82.6692 35.0094 82.6692 33.5827C82.6692 32.156 81.5111 31 80.0808 31Z" fill="black"/>
<path d="M85.2507 31C83.8242 31 82.6699 32.156 82.6699 33.5827C82.6699 35.0094 83.8242 36.1673 85.2507 36.1673C86.6772 36.1673 87.8314 35.0094 87.8314 33.5827C87.8314 32.156 86.6772 31 85.2507 31Z" fill="black"/>
<path d="M38.7507 25.8327C37.3239 25.8327 36.168 26.9906 36.168 28.4173C36.168 29.8441 37.3239 31 38.7507 31C40.1774 31 41.3333 29.8441 41.3333 28.4173C41.3333 26.9906 40.1774 25.8327 38.7507 25.8327Z" fill="black"/>
<path d="M43.9167 25.8327C42.4899 25.8327 41.332 26.9906 41.332 28.4173C41.332 29.8441 42.4899 31 43.9167 31C45.3434 31 46.4993 29.8441 46.4993 28.4173C46.4993 26.9906 45.3434 25.8327 43.9167 25.8327Z" fill="black"/>
<path d="M59.4167 25.8327C57.9899 25.8327 56.832 26.9906 56.832 28.4173C56.832 29.8441 57.9899 31 59.4167 31C60.8434 31 61.9993 29.8441 61.9993 28.4173C61.9993 26.9906 60.8434 25.8327 59.4167 25.8327Z" fill="black"/>
<path d="M64.5827 25.8327C63.156 25.8327 62 26.9906 62 28.4173C62 29.8441 63.156 31 64.5827 31C66.0111 31 67.1692 29.8441 67.1692 28.4173C67.1692 26.9906 66.0114 25.8327 64.5827 25.8327Z" fill="black"/>
<path d="M69.7507 25.8327C68.3242 25.8327 67.1699 26.9906 67.1699 28.4173C67.1699 29.8441 68.3239 31 69.7507 31C71.1774 31 72.3314 29.8441 72.3314 28.4173C72.3314 26.9906 71.1772 25.8327 69.7507 25.8327Z" fill="black"/>
<path d="M80.0808 25.8327C78.6579 25.8327 77.5 26.9906 77.5 28.4173C77.5 29.8441 78.6579 31 80.0808 31C81.5111 31 82.6692 29.8441 82.6692 28.4173C82.6692 26.9906 81.5114 25.8327 80.0808 25.8327Z" fill="black"/>
<path d="M38.7507 25.8327C40.177 25.8327 41.3333 24.6764 41.3333 23.25C41.3333 21.8236 40.177 20.6673 38.7507 20.6673C37.3243 20.6673 36.168 21.8236 36.168 23.25C36.168 24.6764 37.3243 25.8327 38.7507 25.8327Z" fill="black"/>
<path d="M43.9167 20.6673C42.4899 20.6673 41.332 21.8233 41.332 23.25C41.332 24.6767 42.4899 25.8327 43.9167 25.8327C45.3434 25.8327 46.4993 24.6767 46.4993 23.25C46.4993 21.8233 45.3434 20.6673 43.9167 20.6673Z" fill="black"/>
<path d="M49.0827 20.6673C47.656 20.6673 46.5 21.8233 46.5 23.25C46.5 24.6767 47.656 25.8327 49.0827 25.8327C50.5094 25.8327 51.6673 24.6767 51.6673 23.25C51.6673 21.8233 50.5094 20.6673 49.0827 20.6673Z" fill="black"/>
<path d="M54.2507 25.8327C55.677 25.8327 56.8333 24.6764 56.8333 23.25C56.8333 21.8236 55.677 20.6673 54.2507 20.6673C52.8243 20.6673 51.668 21.8236 51.668 23.25C51.668 24.6764 52.8243 25.8327 54.2507 25.8327Z" fill="black"/>
<path d="M64.5827 20.6673C63.156 20.6673 62 21.8233 62 23.25C62 24.6767 63.156 25.8327 64.5827 25.8327C66.0111 25.8327 67.1692 24.6767 67.1692 23.25C67.1692 21.8233 66.0114 20.6673 64.5827 20.6673Z" fill="black"/>
<path d="M74.9186 20.6673C73.4882 20.6673 72.3301 21.8233 72.3301 23.25C72.3301 24.6767 73.488 25.8327 74.9186 25.8327C76.3414 25.8327 77.4993 24.6767 77.4993 23.25C77.4993 21.8233 76.3414 20.6673 74.9186 20.6673Z" fill="black"/>
<path d="M85.2507 20.6673C83.8239 20.6673 82.6699 21.8233 82.6699 23.25C82.6699 24.6767 83.8242 25.8327 85.2507 25.8327C86.6772 25.8327 87.8314 24.6767 87.8314 23.25C87.8314 21.8233 86.6774 20.6673 85.2507 20.6673Z" fill="black"/>
<path d="M54.2507 15.5C52.8239 15.5 51.668 16.656 51.668 18.0827C51.668 19.5094 52.8239 20.6673 54.2507 20.6673C55.6774 20.6673 56.8333 19.5094 56.8333 18.0827C56.8333 16.656 55.6774 15.5 54.2507 15.5Z" fill="black"/>
<path d="M59.4167 15.5C57.9899 15.5 56.832 16.656 56.832 18.0827C56.832 19.5094 57.9899 20.6673 59.4167 20.6673C60.8434 20.6673 61.9993 19.5094 61.9993 18.0827C61.9993 16.656 60.8434 15.5 59.4167 15.5Z" fill="black"/>
<path d="M64.5827 15.5C63.156 15.5 62 16.656 62 18.0827C62 19.5094 63.156 20.6673 64.5827 20.6673C66.0111 20.6673 67.1692 19.5094 67.1692 18.0827C67.1692 16.656 66.0111 15.5 64.5827 15.5Z" fill="black"/>
<path d="M69.7507 15.5C68.3239 15.5 67.1699 16.656 67.1699 18.0827C67.1699 19.5094 68.3239 20.6673 69.7507 20.6673C71.1774 20.6673 72.3314 19.5094 72.3314 18.0827C72.3314 16.656 71.1774 15.5 69.7507 15.5Z" fill="black"/>
<path d="M74.9186 15.5C73.4882 15.5 72.3301 16.656 72.3301 18.0827C72.3301 19.5094 73.4882 20.6673 74.9186 20.6673C76.3414 20.6673 77.4993 19.5094 77.4993 18.0827C77.4993 16.656 76.3414 15.5 74.9186 15.5Z" fill="black"/>
<path d="M80.0808 15.5C78.6579 15.5 77.5 16.656 77.5 18.0827C77.5 19.5094 78.6579 20.6673 80.0808 20.6673C81.5111 20.6673 82.6692 19.5094 82.6692 18.0827C82.6692 16.656 81.5111 15.5 80.0808 15.5Z" fill="black"/>
<path d="M38.7507 10.3327C37.3239 10.3327 36.168 11.4906 36.168 12.9173C36.168 14.344 37.3239 15.5 38.7507 15.5C40.1774 15.5 41.3333 14.344 41.3333 12.9173C41.3333 11.4906 40.1774 10.3327 38.7507 10.3327Z" fill="black"/>
<path d="M43.9167 10.3327C42.4899 10.3327 41.332 11.4906 41.332 12.9173C41.332 14.344 42.4899 15.5 43.9167 15.5C45.3434 15.5 46.4993 14.344 46.4993 12.9173C46.4993 11.4906 45.3434 10.3327 43.9167 10.3327Z" fill="black"/>
<path d="M49.0827 10.3327C47.656 10.3327 46.5 11.4906 46.5 12.9173C46.5 14.344 47.656 15.5 49.0827 15.5C50.5094 15.5 51.6673 14.344 51.6673 12.9173C51.6673 11.4906 50.5094 10.3327 49.0827 10.3327Z" fill="black"/>
<path d="M54.2507 10.3327C52.8239 10.3327 51.668 11.4906 51.668 12.9173C51.668 14.344 52.8239 15.5 54.2507 15.5C55.6774 15.5 56.8333 14.344 56.8333 12.9173C56.8333 11.4906 55.6774 10.3327 54.2507 10.3327Z" fill="black"/>
<path d="M59.4167 10.3327C57.9899 10.3327 56.832 11.4906 56.832 12.9173C56.832 14.344 57.9899 15.5 59.4167 15.5C60.8434 15.5 61.9993 14.344 61.9993 12.9173C61.9993 11.4906 60.8434 10.3327 59.4167 10.3327Z" fill="black"/>
<path d="M64.5827 10.3327C63.156 10.3327 62 11.4906 62 12.9173C62 14.344 63.156 15.5 64.5827 15.5C66.0111 15.5 67.1692 14.344 67.1692 12.9173C67.1692 11.4906 66.0114 10.3327 64.5827 10.3327Z" fill="black"/>
<path d="M74.9186 10.3327C73.4882 10.3327 72.3301 11.4906 72.3301 12.9173C72.3301 14.344 73.4882 15.5 74.9186 15.5C76.3414 15.5 77.4993 14.344 77.4993 12.9173C77.4993 11.4906 76.3414 10.3327 74.9186 10.3327Z" fill="black"/>
<path d="M80.0808 10.3327C78.6579 10.3327 77.5 11.4906 77.5 12.9173C77.5 14.344 78.6579 15.5 80.0808 15.5C81.5111 15.5 82.6692 14.344 82.6692 12.9173C82.6692 11.4906 81.5114 10.3327 80.0808 10.3327Z" fill="black"/>
<path d="M85.2507 10.3327C83.8239 10.3327 82.6699 11.4906 82.6699 12.9173C82.6699 14.344 83.8239 15.5 85.2507 15.5C86.6774 15.5 87.8314 14.344 87.8314 12.9173C87.8314 11.4906 86.6774 10.3327 85.2507 10.3327Z" fill="black"/>
<path d="M38.7507 10.3327C40.177 10.3327 41.3333 9.17638 41.3333 7.75C41.3333 6.32362 40.177 5.16731 38.7507 5.16731C37.3243 5.16731 36.168 6.32362 36.168 7.75C36.168 9.17638 37.3243 10.3327 38.7507 10.3327Z" fill="black"/>
<path d="M43.9167 5.16731C42.4899 5.16731 41.332 6.32327 41.332 7.75C41.332 9.17673 42.4899 10.3327 43.9167 10.3327C45.3434 10.3327 46.4993 9.17673 46.4993 7.75C46.4993 6.32327 45.3434 5.16731 43.9167 5.16731Z" fill="black"/>
<path d="M49.0827 5.16731C47.656 5.16731 46.5 6.32327 46.5 7.75C46.5 9.17673 47.656 10.3327 49.0827 10.3327C50.5094 10.3327 51.6673 9.17673 51.6673 7.75C51.6673 6.32327 50.5094 5.16731 49.0827 5.16731Z" fill="black"/>
<path d="M54.2507 10.3327C55.677 10.3327 56.8333 9.17638 56.8333 7.75C56.8333 6.32362 55.677 5.16731 54.2507 5.16731C52.8243 5.16731 51.668 6.32362 51.668 7.75C51.668 9.17638 52.8243 10.3327 54.2507 10.3327Z" fill="black"/>
<path d="M74.9186 5.16731C73.4882 5.16731 72.3301 6.32327 72.3301 7.75C72.3301 9.17673 73.488 10.3327 74.9186 10.3327C76.3414 10.3327 77.4993 9.17673 77.4993 7.75C77.4993 6.32327 76.3414 5.16731 74.9186 5.16731Z" fill="black"/>
<path d="M80.0808 5.16731C78.6579 5.16731 77.5 6.32327 77.5 7.75C77.5 9.17673 78.6579 10.3327 80.0808 10.3327C81.5111 10.3327 82.6692 9.17673 82.6692 7.75C82.6692 6.32327 81.5114 5.16731 80.0808 5.16731Z" fill="black"/>
<path d="M38.7507 0C37.3239 0 36.168 1.15596 36.168 2.58269C36.168 4.00941 37.3239 5.16731 38.7507 5.16731C40.1774 5.16731 41.3333 4.00941 41.3333 2.58269C41.3333 1.15596 40.1774 0 38.7507 0Z" fill="black"/>
<path d="M49.0827 0C47.656 0 46.5 1.15596 46.5 2.58269C46.5 4.00941 47.656 5.16731 49.0827 5.16731C50.5094 5.16731 51.6673 4.00941 51.6673 2.58269C51.6673 1.15596 50.5094 0 49.0827 0Z" fill="black"/>
<path d="M64.5827 0C63.156 0 62 1.15596 62 2.58269C62 4.00941 63.156 5.16731 64.5827 5.16731C66.0111 5.16731 67.1692 4.00941 67.1692 2.58269C67.1692 1.15596 66.0111 0 64.5827 0Z" fill="black"/>
<path d="M69.7507 0C68.3239 0 67.1699 1.15596 67.1699 2.58269C67.1699 4.00941 68.3239 5.16731 69.7507 5.16731C71.1774 5.16731 72.3314 4.00941 72.3314 2.58269C72.3314 1.15596 71.1774 0 69.7507 0Z" fill="black"/>
<path d="M74.9186 0C73.4882 0 72.3301 1.15596 72.3301 2.58269C72.3301 4.00941 73.488 5.16731 74.9186 5.16731C76.3414 5.16731 77.4993 4.00941 77.4993 2.58269C77.4993 1.15596 76.3414 0 74.9186 0Z" fill="black"/>
<path d="M85.2507 0C83.8239 0 82.6699 1.15596 82.6699 2.58269C82.6699 4.00941 83.8239 5.16731 85.2507 5.16731C86.6774 5.16731 87.8314 4.00941 87.8314 2.58269C87.8314 1.15596 86.6774 0 85.2507 0Z" fill="black"/>
<path d="M0 0V31H31V0H0ZM25.8327 25.8327H5.16731V5.16731H25.8327V25.8327Z" fill="black"/>
<path d="M7.75 7.75V23.25H23.25V7.75H7.75ZM18.0827 18.0827H12.9173V12.9173H18.0827V18.0827Z" fill="black"/>
<path d="M0 93V124H31V93H0ZM25.8327 118.831H5.16731V98.1692H25.8327V118.831Z" fill="black"/>
<path d="M7.75 100.75V116.25H23.25V100.75H7.75ZM18.0827 111.081H12.9173V105.919H18.0827V111.081Z" fill="black"/>
<path d="M93 0V31H124V0H93ZM118.831 25.8327H98.1692V5.16731H118.831V25.8327Z" fill="black"/>
<path d="M100.75 7.75V23.25H116.25V7.75H100.75ZM111.081 18.0827H105.919V12.9173H111.081V18.0827Z" fill="black"/>
<path d="M105.92 82.6693H95.5814H90.4199H82.6699V85.25V90.4193V100.75V105.919V108.5H85.2507H90.4199H100.751H108.501V95.5808V90.4193V82.6693H105.92ZM103.331 103.331H87.8314V87.8308H103.331V103.331Z" fill="black"/>
<path d="M95.5808 93C94.1579 93 93 94.1579 93 95.5808C93 97.0111 94.1579 98.1692 95.5808 98.1692C97.0111 98.1692 98.1692 97.0114 98.1692 95.5808C98.1692 94.1579 97.0114 93 95.5808 93Z" fill="black"/>
</g>
<defs>
<clipPath id="clip0_734_34477">
<rect width="124" height="124" fill="white"/>
</clipPath>
</defs>
</svg>
