<svg width="62" height="47" viewBox="0 0 62 47" fill="none" xmlns="http://www.w3.org/2000/svg">
<path d="M5.57303 43.1985C2.08989 39.3971 0 35.25 0 28.3382C0 16.2426 8.70787 5.52941 20.8989 0L24.0337 4.49265C12.5393 10.7132 10.1011 18.6618 9.4045 23.8456C11.1461 22.8088 13.5843 22.4632 16.0225 22.8088C22.2921 23.5 27.1685 28.3382 27.1685 34.9044C27.1685 38.0147 25.7753 41.125 23.6854 43.5441C21.2472 45.9632 18.4607 47 14.9775 47C11.1461 47 7.66292 45.2721 5.57303 43.1985ZM40.4045 43.1985C36.9214 39.3971 34.8315 35.25 34.8315 28.3382C34.8315 16.2426 43.5393 5.52941 55.7303 0L58.8652 4.49265C47.3708 10.7132 44.9326 18.6618 44.236 23.8456C45.9775 22.8088 48.4157 22.4632 50.8539 22.8088C57.1236 23.5 62 28.3382 62 34.9044C62 38.0147 60.6067 41.125 58.5169 43.5441C56.427 45.9632 53.2921 47 49.809 47C45.9775 47 42.4944 45.2721 40.4045 43.1985Z" fill="white" fill-opacity="0.3"/>
</svg>
