<svg width="24" height="24" viewBox="0 0 24 24" fill="none" xmlns="http://www.w3.org/2000/svg">
<path d="M22.5461 9.70495L15.0461 2.20495C14.8888 2.04749 14.6883 1.94022 14.4701 1.89671C14.2518 1.8532 14.0256 1.8754 13.8199 1.96051C13.6143 2.04561 13.4385 2.1898 13.3148 2.37482C13.1912 2.55985 13.1251 2.7774 13.1251 2.99995V6.44432C10.7101 6.73682 8.09451 7.93401 5.92982 9.76963C3.19607 12.089 1.49357 15.0843 1.13544 18.2071C1.09916 18.5205 1.16261 18.8373 1.31675 19.1126C1.4709 19.3878 1.7079 19.6075 1.99406 19.7403C2.28021 19.8731 2.60095 19.9123 2.91066 19.8523C3.22038 19.7923 3.5033 19.6362 3.71919 19.4062C4.69982 18.3618 8.12544 15.1181 13.1251 14.6793V17.9999C13.1253 18.2223 13.1914 18.4396 13.315 18.6244C13.4387 18.8093 13.6143 18.9533 13.8197 19.0384C14.0252 19.1234 14.2512 19.1457 14.4693 19.1024C14.6874 19.0591 14.8878 18.9521 15.0451 18.7949L22.5451 11.2949C22.7559 11.0841 22.8744 10.7983 22.8746 10.5001C22.8748 10.202 22.7566 9.91601 22.5461 9.70495ZM15.3751 15.2812V13.4999C15.3751 13.2016 15.2566 12.9154 15.0456 12.7045C14.8346 12.4935 14.5485 12.3749 14.2501 12.3749C9.65638 12.3749 6.13419 14.3962 3.95732 16.1353C4.62576 14.4328 5.79763 12.8334 7.38576 11.4862C9.49701 9.69463 12.0629 8.62495 14.2501 8.62495C14.5485 8.62495 14.8346 8.50642 15.0456 8.29544C15.2566 8.08446 15.3751 7.79832 15.3751 7.49995V5.7187L20.1564 10.4999L15.3751 15.2812Z" fill="#2C362B"/>
</svg>
