<svg width="84" height="84" viewBox="0 0 84 84" fill="none" xmlns="http://www.w3.org/2000/svg">
<mask id="mask0_734_34107" style="mask-type:luminance" maskUnits="userSpaceOnUse" x="0" y="0" width="84" height="84">
<path d="M0 7.62939e-06H84V84H0V7.62939e-06Z" fill="white"/>
</mask>
<g mask="url(#mask0_734_34107)">
<path d="M33.0356 32.4138C32.7813 32.2498 32.4793 32.1563 32.1562 32.1563C31.2506 32.1563 30.5156 32.8913 30.5156 33.7969C30.5156 34.2267 30.6812 34.6188 30.952 34.9109C31.2523 35.2357 31.6803 35.4375 32.1562 35.4375C33.0617 35.4375 33.7969 34.7025 33.7969 33.7969C33.7969 33.2145 33.4934 32.7042 33.0356 32.4138Z" fill="#DC9937"/>
<path d="M42 1.64062V12.4688" stroke="#DC9937" stroke-width="3" stroke-linecap="round" stroke-linejoin="round"/>
<path d="M42 71.5312V82.3594" stroke="#DC9937" stroke-width="3" stroke-linecap="round" stroke-linejoin="round"/>
<path d="M10.875 14.157L17.8362 21.1182" stroke="#DC9937" stroke-width="3" stroke-linecap="round" stroke-linejoin="round"/>
<path d="M66.1641 64.5225L73.1252 71.4836" stroke="#DC9937" stroke-width="3" stroke-linecap="round" stroke-linejoin="round"/>
<path d="M73.1252 14.157L66.1641 21.1182" stroke="#DC9937" stroke-width="3" stroke-linecap="round" stroke-linejoin="round"/>
<path d="M17.8362 64.5225L10.875 71.4836" stroke="#DC9937" stroke-width="3" stroke-linecap="round" stroke-linejoin="round"/>
<path d="M78.0937 42C78.0937 42 63.7465 63.3281 42 63.3281C20.2535 63.3281 5.90625 42 5.90625 42C5.90625 42 20.2535 20.6719 42 20.6719C63.7465 20.6719 78.0937 42 78.0937 42Z" stroke="#DC9937" stroke-width="3" stroke-linecap="round" stroke-linejoin="round"/>
<path d="M37.3095 29.738C37.3684 29.715 37.4276 29.6937 37.4866 29.6723C37.5521 29.6477 37.6179 29.6248 37.6835 29.6018C37.7426 29.5805 37.8016 29.5608 37.8623 29.5411C37.9395 29.5148 38.0198 29.4886 38.0986 29.464C38.2003 29.4328 38.302 29.4016 38.4054 29.3738C38.5055 29.3442 38.6072 29.3163 38.7105 29.2901C38.8188 29.2622 38.9269 29.2359 39.0354 29.2113C39.1371 29.1884 39.2372 29.1654 39.3389 29.1457C39.4209 29.1277 39.503 29.1113 39.5866 29.0965C39.6588 29.0834 39.731 29.0702 39.8032 29.0588C39.8424 29.0505 39.8834 29.044 39.9244 29.0391C39.9984 29.0259 40.0723 29.0161 40.1461 29.0063C40.1658 29.003 40.1838 28.9997 40.2035 28.998C40.2659 28.9882 40.3298 28.98 40.3938 28.9718C40.4627 28.9636 40.5316 28.9554 40.6005 28.9488L40.699 28.939C40.7695 28.9308 40.8417 28.9242 40.9123 28.9193C40.9498 28.916 40.9877 28.9127 41.0253 28.9111C41.0729 28.9062 41.1223 28.9029 41.1698 28.9013C41.2404 28.8963 41.3124 28.893 41.3831 28.8898C41.475 28.8848 41.5669 28.8816 41.6604 28.8799C41.772 28.8766 41.8866 28.875 42 28.875C49.2483 28.875 55.125 34.7517 55.125 42C55.125 44.2657 54.5508 46.3969 53.5402 48.2557C53.4401 48.4395 53.3366 48.6216 53.2284 48.7987C53.1725 48.8923 53.1152 48.9825 53.056 49.0744C52.9512 49.2384 52.8429 49.3992 52.7313 49.5584C52.7198 49.5748 52.7082 49.5895 52.6969 49.6059C52.4573 49.9439 52.2014 50.2704 51.9289 50.5821C51.7238 50.82 51.5091 51.0513 51.2858 51.2745C51.0841 51.4763 50.8756 51.6731 50.6609 51.8602C49.7602 52.6526 48.7512 53.3236 47.6569 53.8453C47.4764 53.9323 47.2941 54.0143 47.1087 54.093C46.7168 54.2587 46.3132 54.4064 45.903 54.5344C45.4912 54.6623 45.0729 54.7706 44.6447 54.8576C43.7899 55.0331 42.9055 55.125 42 55.125C34.7517 55.125 28.875 49.2483 28.875 42C28.875 41.8868 28.8766 41.7736 28.8799 41.662C28.8816 41.5702 28.8847 41.4799 28.8898 41.388C28.893 41.3027 28.8978 41.2174 28.9029 41.1338C28.9045 41.1091 28.9062 41.0845 28.9078 41.0599C28.9144 40.9812 28.9191 40.9024 28.9275 40.8237C28.9291 40.804 28.9308 40.7859 28.9323 40.7663C28.9406 40.6727 28.9505 40.5792 28.962 40.4873V40.4841C28.9733 40.3856 28.9849 40.2872 28.9997 40.1887C29.0095 40.1149 29.0194 40.0411 29.0325 39.9673C29.0456 39.8688 29.0619 39.7737 29.0801 39.6769C29.0832 39.6506 29.0883 39.626 29.0932 39.5998" stroke="#DC9937" stroke-width="3" stroke-linecap="round" stroke-linejoin="round"/>
<path d="M42 46.9219C39.2864 46.9219 37.0781 44.7136 37.0781 42C37.0781 39.2864 39.2864 37.0781 42 37.0781C44.7136 37.0781 46.9219 39.2864 46.9219 42C46.9219 44.7136 44.7136 46.9219 42 46.9219Z" stroke="#DC9937" stroke-width="3" stroke-linecap="round" stroke-linejoin="round"/>
</g>
</svg>
