<svg width="59" height="59" viewBox="0 0 59 59" fill="none" xmlns="http://www.w3.org/2000/svg">
<g clip-path="url(#clip0_734_34292)">
<path d="M23.7584 31.1294H18.0918" stroke="#DC9937" stroke-width="2.3" stroke-miterlimit="10" stroke-linecap="round" stroke-linejoin="round"/>
<path d="M40.9069 31.1294H35.2402" stroke="#DC9937" stroke-width="2.3" stroke-miterlimit="10" stroke-linecap="round" stroke-linejoin="round"/>
<mask id="mask0_734_34292" style="mask-type:luminance" maskUnits="userSpaceOnUse" x="0" y="0" width="59" height="59">
<path d="M0 3.8147e-06H59V59H0V3.8147e-06Z" fill="white"/>
</mask>
<g mask="url(#mask0_734_34292)">
<path d="M17.8672 24.3237C17.9801 22.4293 19.2385 20.7803 21.0592 20.1822L27.0548 18.2082" stroke="#DC9937" stroke-width="2.3" stroke-miterlimit="10" stroke-linecap="round" stroke-linejoin="round"/>
<path d="M31.9434 18.2082L37.939 20.1822C39.7597 20.7803 41.0181 22.4293 41.131 24.3237" stroke="#DC9937" stroke-width="2.3" stroke-miterlimit="10" stroke-linecap="round" stroke-linejoin="round"/>
<path d="M31.9439 15.2985V18.2086C31.9439 19.5587 30.8494 20.6531 29.4993 20.6531C28.1492 20.6531 27.0547 19.5587 27.0547 18.2086V15.2985" stroke="#DC9937" stroke-width="2.3" stroke-miterlimit="10" stroke-linecap="round" stroke-linejoin="round"/>
<path d="M35.0872 6.45172C35.0872 3.36586 32.5856 0.864242 29.4997 0.864242C26.4137 0.864242 23.9121 3.36586 23.9121 6.45172V10.1767C23.9121 13.2625 26.4137 15.7642 29.4997 15.7642C32.5856 15.7642 35.0872 13.2625 35.0872 10.1767V6.45172Z" stroke="#DC9937" stroke-width="2.3" stroke-miterlimit="10" stroke-linecap="round" stroke-linejoin="round"/>
<path d="M34.916 43.2832C35.1962 41.5939 36.3899 40.1696 38.0538 39.6211L44.0495 37.6482" stroke="#DC9937" stroke-width="2.3" stroke-miterlimit="10" stroke-linecap="round" stroke-linejoin="round"/>
<path d="M58.1354 49.4069V50.5696H46.4944H41.1406" stroke="#DC9937" stroke-width="2.3" stroke-miterlimit="10" stroke-linecap="round" stroke-linejoin="round"/>
<path d="M48.9395 37.6482L54.9351 39.621C56.8445 40.2502 58.1352 42.034 58.1352 44.0449V45.3694" stroke="#DC9937" stroke-width="2.3" stroke-miterlimit="10" stroke-linecap="round" stroke-linejoin="round"/>
<path d="M14.9492 37.6482L20.9447 39.6211C22.6088 40.1696 23.8026 41.5939 24.0827 43.2832" stroke="#DC9937" stroke-width="2.3" stroke-miterlimit="10" stroke-linecap="round" stroke-linejoin="round"/>
<path d="M17.858 50.5693H12.5041H0.863281V49.4066" stroke="#DC9937" stroke-width="2.3" stroke-miterlimit="10" stroke-linecap="round" stroke-linejoin="round"/>
<path d="M0.863281 45.3694V44.0449C0.863281 42.034 2.15391 40.2502 4.06334 39.621L10.059 37.6482" stroke="#DC9937" stroke-width="2.3" stroke-miterlimit="10" stroke-linecap="round" stroke-linejoin="round"/>
<path d="M48.9379 34.7382V37.6483C48.9379 38.9984 47.8434 40.0928 46.4933 40.0928C45.1432 40.0928 44.0488 38.9984 44.0488 37.6483V34.7382" stroke="#DC9937" stroke-width="2.3" stroke-miterlimit="10" stroke-linecap="round" stroke-linejoin="round"/>
<path d="M52.0812 25.8914C52.0812 22.8056 49.5796 20.3039 46.4937 20.3039C43.4078 20.3039 40.9062 22.8056 40.9062 25.8914V29.6164C40.9062 32.7022 43.4079 35.2039 46.4937 35.2039C49.5796 35.2039 52.0812 32.7022 52.0812 29.6164V25.8914Z" stroke="#DC9937" stroke-width="2.3" stroke-miterlimit="10" stroke-linecap="round" stroke-linejoin="round"/>
<path d="M53.2461 47.5428V50.5693" stroke="#DC9937" stroke-width="2.3" stroke-miterlimit="10" stroke-linecap="round" stroke-linejoin="round"/>
<path d="M14.9476 34.7382V37.6483C14.9476 38.9984 13.8533 40.0928 12.5032 40.0928C11.1531 40.0928 10.0586 38.9984 10.0586 37.6483V34.7382" stroke="#DC9937" stroke-width="2.3" stroke-miterlimit="10" stroke-linecap="round" stroke-linejoin="round"/>
<path d="M18.091 25.8914C18.091 22.8056 15.5894 20.3039 12.5036 20.3039C9.41764 20.3039 6.91602 22.8056 6.91602 25.8914V29.6164C6.91602 32.7022 9.41764 35.2039 12.5036 35.2039C15.5894 35.2039 18.091 32.7022 18.091 29.6164V25.8914Z" stroke="#DC9937" stroke-width="2.3" stroke-miterlimit="10" stroke-linecap="round" stroke-linejoin="round"/>
<path d="M5.75195 47.5428V50.5693" stroke="#DC9937" stroke-width="2.3" stroke-miterlimit="10" stroke-linecap="round" stroke-linejoin="round"/>
<path d="M41.1405 56.9813V58.1357H29.4999H17.8594V48.7007C17.8594 46.69 19.1501 44.9064 21.06 44.2778L27.0554 42.3046" stroke="#DC9937" stroke-width="2.3" stroke-miterlimit="10" stroke-linecap="round" stroke-linejoin="round"/>
<path d="M31.9434 42.3045L37.9387 44.2778C39.8487 44.9063 41.1394 46.6899 41.1394 48.7006V52.946" stroke="#DC9937" stroke-width="2.3" stroke-miterlimit="10" stroke-linecap="round" stroke-linejoin="round"/>
<path d="M31.9439 39.3946V42.3047C31.9439 43.6548 30.8494 44.7493 29.4993 44.7493C28.1492 44.7493 27.0547 43.6548 27.0547 42.3047V39.3946" stroke="#DC9937" stroke-width="2.3" stroke-miterlimit="10" stroke-linecap="round" stroke-linejoin="round"/>
<path d="M35.0872 30.5477C35.0872 27.4618 32.5856 24.9602 29.4997 24.9602C26.4137 24.9602 23.9121 27.4618 23.9121 30.5477V34.2726C23.9121 37.3585 26.4137 39.8601 29.4997 39.8601C32.5856 39.8601 35.0872 37.3585 35.0872 34.2726V30.5477Z" stroke="#DC9937" stroke-width="2.3" stroke-miterlimit="10" stroke-linecap="round" stroke-linejoin="round"/>
<path d="M36.25 52.1991V58.1357" stroke="#DC9937" stroke-width="2.3" stroke-miterlimit="10" stroke-linecap="round" stroke-linejoin="round"/>
<path d="M22.748 52.1991V58.1357" stroke="#DC9937" stroke-width="2.3" stroke-miterlimit="10" stroke-linecap="round" stroke-linejoin="round"/>
</g>
</g>
<defs>
<clipPath id="clip0_734_34292">
<rect width="59" height="59" fill="white"/>
</clipPath>
</defs>
</svg>
