<svg width="63" height="63" viewBox="0 0 63 63" fill="none" xmlns="http://www.w3.org/2000/svg">
<g clip-path="url(#clip0_734_34235)">
<path d="M15.3808 54.1117C16.1494 54.1117 16.9295 54.0014 17.7034 53.7694C18.1181 53.6465 18.4142 53.2811 18.4499 52.8496C18.913 47.2436 14.629 46.4467 11.186 45.8072C9.76641 45.5426 8.42556 45.2938 7.39551 44.7761C7.01751 44.5861 6.56601 44.6407 6.24471 44.9137C5.92341 45.1856 5.79531 45.6235 5.92026 46.0267C7.45536 50.9711 11.2868 54.1117 15.3808 54.1117ZM10.8028 47.8715C14.2657 48.5152 16.3247 49.0486 16.3825 51.9277C13.3858 52.4422 10.4647 50.6918 8.76891 47.4557C9.43881 47.6174 10.1255 47.7455 10.8028 47.8715Z" fill="#DC9937"/>
<path d="M7.0842 43.4931C7.42335 43.4931 7.7478 43.3283 7.94625 43.0416C11.153 38.4195 7.8402 35.5866 5.1795 33.3113C4.43085 32.6708 3.72315 32.0649 3.1341 31.4276C2.68365 30.9425 2.0127 30.7661 1.3827 30.9698C0.763204 31.1703 0.330604 31.6964 0.252904 32.3432C-0.414896 37.8095 2.29515 42.3822 6.8406 43.4637C6.92145 43.4837 7.0023 43.4921 7.08315 43.4921L7.0842 43.4931ZM2.26155 33.5307C2.76135 34.0064 3.2937 34.4621 3.8145 34.9083C6.4899 37.1973 8.0061 38.6883 6.61905 41.2083C3.81555 40.172 2.11875 37.1784 2.26155 33.5307Z" fill="#DC9937"/>
<path d="M4.11002 15.5599C3.47267 15.4287 2.83427 15.6639 2.44262 16.1836C-0.866982 20.5842 -0.808182 25.8993 2.58752 29.1102C2.78702 29.2992 3.04742 29.3968 3.30992 29.3968C3.46217 29.3968 3.61442 29.3643 3.75827 29.296C8.84552 26.8957 7.39337 22.7871 6.22787 19.4848C5.89922 18.5556 5.58947 17.6778 5.39837 16.8336C5.25032 16.1868 4.75682 15.6985 4.11002 15.5599ZM3.52412 27.0448C1.61627 24.7453 1.64252 21.3034 3.58922 18.2164C3.78452 18.8779 4.01762 19.5394 4.24652 20.1852C5.41937 23.5053 5.98742 25.5549 3.52412 27.0448Z" fill="#DC9937"/>
<path d="M12.4185 3.28433C7.35224 5.43998 4.74509 10.0726 6.08174 14.5498C6.20459 14.9645 6.56999 15.2606 7.00049 15.2953C7.28399 15.3184 7.55384 15.331 7.81319 15.331C12.6873 15.331 13.4359 11.3021 14.0449 8.03243C14.2245 7.06433 14.3946 6.14978 14.6508 5.32553C14.8482 4.69133 14.6665 4.02248 14.1762 3.57938C13.6932 3.14153 13.0201 3.02918 12.4185 3.28433ZM11.9796 7.64918C11.337 11.1121 10.8036 13.1711 7.92554 13.2289C7.42259 10.2836 9.16559 7.31633 12.3954 5.61743C12.2337 6.28733 12.1056 6.97508 11.9796 7.64918Z" fill="#DC9937"/>
<path d="M43.0131 54.4542C42.1689 54.2631 41.2921 53.9523 40.3639 53.6247C37.4638 52.5988 33.9421 51.3567 31.5009 54.5151C29.0596 51.3577 25.5379 52.5999 22.6389 53.6247C21.7096 53.9523 20.8329 54.2631 19.9887 54.4552C19.3419 54.6022 18.8536 55.0947 18.715 55.7425C18.5796 56.3788 18.819 57.0183 19.3398 57.4089C21.5059 59.0385 23.8936 59.8512 26.1427 59.8512C28.1178 59.8512 29.9836 59.218 31.5019 57.9664C33.0192 59.218 34.884 59.8512 36.8611 59.8512C39.1102 59.8512 41.499 59.0385 43.6641 57.4089C44.1849 57.0183 44.4243 56.3799 44.2888 55.7425C44.1502 55.0957 43.6609 54.6022 43.0131 54.4542ZM21.3705 56.2623C22.032 56.067 22.6935 55.8339 23.3392 55.605C26.6614 54.4321 28.71 53.8651 30.1989 56.3263C27.9004 58.2352 24.4564 58.2079 21.3705 56.2623ZM32.8039 56.3263C34.2949 53.863 36.3456 54.4321 39.6636 55.605C40.3093 55.8339 40.9708 56.067 41.6323 56.2623C38.5453 58.2079 35.1024 58.2352 32.8039 56.3263Z" fill="#DC9937"/>
<path d="M55.6046 44.7762C54.5745 45.2939 53.2326 45.5427 51.8141 45.8073C48.3711 46.4468 44.0871 47.2437 44.5502 52.8497C44.5859 53.2812 44.882 53.6466 45.2967 53.7695C46.0716 54.0015 46.8497 54.1118 47.6193 54.1118C51.7112 54.1118 55.5447 50.9702 57.0798 46.0257C57.2048 45.6225 57.0767 45.1847 56.7554 44.9127C56.4341 44.6408 55.9826 44.5883 55.6046 44.7762ZM46.6166 51.9288C46.6754 49.0497 48.7344 48.5163 52.1963 47.8727C52.8735 47.7477 53.5602 47.6196 54.2301 47.4569C52.5333 50.693 49.6143 52.4475 46.6166 51.9288Z" fill="#DC9937"/>
<path d="M62.7483 32.3453C62.6696 31.6985 62.237 31.1725 61.6175 30.9709C60.9896 30.7672 60.3176 30.9425 59.864 31.4308C59.276 32.066 58.5693 32.6719 57.8207 33.3124C55.16 35.5877 51.8483 38.4196 55.0539 43.0427C55.2524 43.3283 55.5768 43.4942 55.916 43.4942C55.9968 43.4942 56.0777 43.4848 56.1585 43.4659C60.704 42.3844 63.414 37.8116 62.7473 32.3464L62.7483 32.3453ZM56.3811 41.2073C54.9941 38.6873 56.5103 37.1963 59.1857 34.9073C59.7065 34.4611 60.2399 34.0064 60.7386 33.5297C60.8814 37.1774 59.1846 40.1699 56.3811 41.2073Z" fill="#DC9937"/>
<path d="M60.5586 16.1847C60.167 15.6639 59.5307 15.4266 58.8912 15.5599C58.2455 15.6985 57.752 16.1868 57.6039 16.8346C57.4128 17.6788 57.1031 18.5566 56.7744 19.4848C55.6089 22.7871 54.1568 26.8957 59.244 29.296C59.3879 29.3632 59.5401 29.3968 59.6924 29.3968C59.9549 29.3968 60.2142 29.2981 60.4148 29.1102C63.8094 25.8993 63.8682 20.5852 60.5586 16.1847ZM59.4771 27.0448C57.0138 25.5549 57.5819 23.5053 58.7547 20.1852C58.9836 19.5394 59.2167 18.8779 59.412 18.2164C61.3587 21.3034 61.385 24.7453 59.4771 27.0448Z" fill="#DC9937"/>
<path d="M50.5811 3.28433C49.9795 3.02918 49.3085 3.14153 48.8245 3.57938C48.3341 4.02248 48.1525 4.69238 48.3499 5.32343C48.6061 6.14978 48.7762 7.06433 48.9557 8.03243C49.5637 11.3021 50.3123 15.331 55.1875 15.331C55.4458 15.331 55.7177 15.3184 56.0002 15.2953C56.4307 15.2606 56.7961 14.9645 56.9189 14.5498C58.2545 10.0715 55.6484 5.43893 50.5811 3.28433ZM55.0751 13.2299C52.1971 13.1711 51.6637 11.111 51.0211 7.65023C50.8961 6.97718 50.768 6.28838 50.6053 5.61848C53.834 7.31843 55.577 10.2847 55.0751 13.2299Z" fill="#DC9937"/>
<path d="M31.5004 5.25C18.7628 5.25 8.40039 15.6125 8.40039 28.35C8.40039 41.0876 18.7628 51.45 31.5004 51.45C44.2379 51.45 54.6004 41.0876 54.6004 28.35C54.6004 15.6125 44.2379 5.25 31.5004 5.25ZM48.2605 15.75H42.056C41.0911 12.9654 39.8185 10.4895 38.2876 8.49765C42.2986 9.87315 45.7562 12.4278 48.2605 15.75ZM34.5737 49.0991C33.908 49.1978 33.2339 49.2629 32.5504 49.2965V40.95H39.8479C38.5637 44.3951 36.7567 47.2406 34.5737 49.0991ZM23.1529 40.95H30.4504V49.2965C29.7668 49.2629 29.0927 49.1967 28.427 49.0991C26.2441 47.2406 24.437 44.3951 23.1529 40.95ZM10.5539 29.4H18.9235C19.0075 32.7096 19.48 35.9153 20.2895 38.85H13.3427C11.7131 36.0434 10.7251 32.8304 10.555 29.4H10.5539ZM28.427 7.60095C29.0927 7.50225 29.7668 7.43715 30.4504 7.40355V15.75H23.1529C24.437 12.305 26.2441 9.45945 28.427 7.60095ZM39.8479 15.75H32.5504V7.40355C33.2339 7.43715 33.908 7.5033 34.5737 7.60095C36.7567 9.45945 38.5637 12.305 39.8479 15.75ZM40.5398 17.85C41.3882 20.7449 41.8901 23.9579 41.9783 27.3H32.5504V17.85H40.5398ZM30.4504 17.85V27.3H21.0224C21.1106 23.9579 21.6125 20.7449 22.4609 17.85H30.4504ZM18.9235 27.3H10.5539C10.7251 23.8697 11.7131 20.6567 13.3417 17.85H20.2885C19.48 20.7848 19.0075 23.9904 18.9235 27.3ZM21.0224 29.4H30.4504V38.85H22.4609C21.6125 35.9552 21.1106 32.7422 21.0224 29.4ZM32.5504 38.85V29.4H41.9783C41.8901 32.7422 41.3882 35.9552 40.5398 38.85H32.5504ZM44.0773 29.4H52.4468C52.2757 32.8304 51.2876 36.0434 49.6591 38.85H42.7123C43.5208 35.9153 43.9933 32.7096 44.0773 29.4ZM44.0773 27.3C43.9933 23.9904 43.5208 20.7848 42.7112 17.85H49.658C51.2876 20.6567 52.2757 23.8697 52.4458 27.3H44.0773ZM24.7132 8.49765C23.1833 10.4895 21.9097 12.9665 20.9447 15.75H14.7403C17.2445 12.4278 20.7011 9.87315 24.7132 8.49765ZM14.7403 40.95H20.9447C21.9097 43.7346 23.1823 46.2105 24.7132 48.2024C20.7022 46.8269 17.2445 44.2722 14.7403 40.95ZM38.2876 48.2024C39.8174 46.2105 41.0911 43.7336 42.056 40.95H48.2605C45.7562 44.2722 42.2996 46.8269 38.2876 48.2024Z" fill="#DC9937"/>
</g>
<defs>
<clipPath id="clip0_734_34235">
<rect width="63" height="63" fill="white"/>
</clipPath>
</defs>
</svg>
