<svg width="25" height="31" viewBox="0 0 25 31" fill="none" xmlns="http://www.w3.org/2000/svg">
<path d="M25 15.5C25.0009 15.9048 24.902 16.303 24.7128 16.6558C24.5237 17.0086 24.2507 17.3041 23.9204 17.5134L3.45454 30.649C3.1095 30.8707 2.7143 30.9917 2.30977 30.9996C1.90524 31.0075 1.50604 30.9019 1.15341 30.6937C0.804133 30.4888 0.513176 30.19 0.31046 29.8281C0.107744 29.4661 0.000583605 29.054 0 28.6341V2.36587C0.000583605 1.94603 0.107744 1.53392 0.31046 1.17194C0.513176 0.809952 0.804133 0.51115 1.15341 0.306258C1.50604 0.0981336 1.90524 -0.00745087 2.30977 0.000408862C2.7143 0.00826859 3.1095 0.129288 3.45454 0.350968L23.9204 13.4866C24.2507 13.6959 24.5237 13.9914 24.7128 14.3442C24.902 14.697 25.0009 15.0952 25 15.5Z" fill="white"/>
</svg>
