<svg width="28" height="28" viewBox="0 0 28 28" fill="none" xmlns="http://www.w3.org/2000/svg">
<g clip-path="url(#clip0_734_30917)">
<mask id="mask0_734_30917" style="mask-type:luminance" maskUnits="userSpaceOnUse" x="0" y="0" width="28" height="28">
<path d="M0 1.90735e-06H28V28H0V1.90735e-06Z" fill="white"/>
</mask>
<g mask="url(#mask0_734_30917)">
<path d="M8.99954 16.1252C7.35952 16.2271 5.87595 16.3777 4.62109 16.5659" stroke="#2C362B" stroke-miterlimit="10" stroke-linecap="round" stroke-linejoin="round"/>
<path d="M23.4327 16.5742C22.1633 16.382 20.6566 16.2282 18.9883 16.1248" stroke="#2C362B" stroke-miterlimit="10" stroke-linecap="round" stroke-linejoin="round"/>
<path d="M24.2109 1.77182C26.3141 2.14736 27.5895 2.63993 27.5895 3.1792" stroke="#2C362B" stroke-miterlimit="10" stroke-linecap="round" stroke-linejoin="round"/>
<path d="M0.410156 3.1792C0.410156 2.00123 6.49469 1.04639 14 1.04639C17.128 1.04639 20.0092 1.21225 22.306 1.49094" stroke="#2C362B" stroke-miterlimit="10" stroke-linecap="round" stroke-linejoin="round"/>
<path d="M27.5898 3.17928V18.109C27.5898 18.7116 25.9962 19.2563 23.4336 19.644V4.71436C25.9962 4.32662 27.5898 3.78193 27.5898 3.17928Z" stroke="#2C362B" stroke-miterlimit="10" stroke-linecap="round" stroke-linejoin="round"/>
<path d="M0.410156 12.0345V3.17938C0.410156 3.78641 2.02672 4.33438 4.62109 4.72266V19.6523C2.02672 19.2641 0.410156 18.7161 0.410156 18.1091V14.0575" stroke="#2C362B" stroke-miterlimit="10" stroke-linecap="round" stroke-linejoin="round"/>
<path d="M18.9901 16.0805C18.8532 16.3961 18.6721 16.7057 18.4326 17.0374C17.1422 18.8241 15.5349 20.0376 14.0009 20.0376C12.4669 20.0376 10.8596 18.8241 9.56926 17.0374C9.3376 16.7166 9.16063 16.4166 9.02539 16.1117" stroke="#2C362B" stroke-miterlimit="10" stroke-linecap="round" stroke-linejoin="round"/>
<path d="M11.2894 21.0989L9.75977 21.5591" stroke="#2C362B" stroke-miterlimit="10" stroke-linecap="round" stroke-linejoin="round"/>
<path d="M16.7559 21.099L18.1923 21.5347" stroke="#2C362B" stroke-miterlimit="10" stroke-linecap="round" stroke-linejoin="round"/>
<path d="M13.8316 23.4448C12.6867 23.4027 12.0367 22.9333 11.6747 22.484C11.3754 22.1126 11.2462 21.6325 11.3016 21.1588L11.5346 19.1648" stroke="#2C362B" stroke-miterlimit="10" stroke-linecap="round" stroke-linejoin="round"/>
<path d="M16.4706 19.1955L16.6995 21.1592C16.7547 21.6327 16.6255 22.1126 16.3264 22.4838C16.1741 22.6729 15.9708 22.8655 15.7012 23.0283" stroke="#2C362B" stroke-miterlimit="10" stroke-linecap="round" stroke-linejoin="round"/>
<path d="M4.31445 26.9258L4.7327 24.5779C4.98301 23.137 6.00873 21.9802 7.40905 21.5588L9.0243 21.0731C9.35642 20.9732 9.69603 21.2064 9.72091 21.5523C9.80393 22.7065 10.0868 25.1043 11.042 26.9258" stroke="#2C362B" stroke-miterlimit="10" stroke-linecap="round" stroke-linejoin="round"/>
<path d="M23.6865 26.9258L23.2683 24.5779C23.018 23.137 21.9923 21.9802 20.5919 21.5588L18.9767 21.0731C18.6446 20.9732 18.305 21.2064 18.2801 21.5523C18.1971 22.7065 17.9142 25.1043 16.959 26.9258" stroke="#2C362B" stroke-miterlimit="10" stroke-linecap="round" stroke-linejoin="round"/>
<path d="M19.8242 7.22474C20.5192 8.47391 20.6992 9.99051 20.1946 11.432C20.1484 11.5642 20.0827 11.6975 20.0066 11.8291" stroke="#2C362B" stroke-miterlimit="10" stroke-linecap="round" stroke-linejoin="round"/>
<path d="M8.00577 11.8359C7.66348 11.1333 7.51758 10.3158 7.51758 9.52856C7.51758 7.40248 9.31625 5.15449 11.2766 6.11929C12.6584 4.65973 14.845 4.06468 16.8971 4.77759C17.5402 5.00087 18.1136 5.33288 18.603 5.74512" stroke="#2C362B" stroke-miterlimit="10" stroke-linecap="round" stroke-linejoin="round"/>
<path d="M14.7315 10.4953C13.3091 10.1103 12.5384 9.22085 11.8077 8.41492C11.6703 8.26338 11.4194 8.31151 11.3498 8.5039C11.0521 9.32727 10.663 10.0118 9.93848 10.4378C9.90573 10.4571 9.87352 10.4782 9.8418 10.501" stroke="#2C362B" stroke-miterlimit="10" stroke-linecap="round" stroke-linejoin="round"/>
<path d="M8.25579 14.7666H7.00197C6.69884 14.7666 6.45312 14.5209 6.45312 14.2178V12.4065C6.45312 12.1034 6.69884 11.8577 7.00197 11.8577H8.23173" stroke="#2C362B" stroke-miterlimit="10" stroke-linecap="round" stroke-linejoin="round"/>
<path d="M19.791 11.8577H20.9987C21.3018 11.8577 21.5475 12.1034 21.5475 12.4065V14.2178C21.5475 14.5209 21.3018 14.7666 20.9987 14.7666H19.8151" stroke="#2C362B" stroke-miterlimit="10" stroke-linecap="round" stroke-linejoin="round"/>
<path d="M19.7349 11.6107V15.0136C19.7349 15.6199 19.2435 16.1113 18.6372 16.1113H16.0947C15.6349 16.1113 15.215 15.8506 15.0111 15.4386L14.9993 15.4148C14.9049 15.2244 14.7611 15.0696 14.5877 14.962C14.3432 14.8104 14.0397 14.7525 13.7359 14.8254C13.4077 14.9041 13.1372 15.1361 12.9875 15.4386C12.7836 15.8506 12.3636 16.1113 11.9039 16.1113H9.36141C8.75515 16.1113 8.26367 15.6199 8.26367 15.0136V11.6107C8.26367 11.0044 8.75515 10.5129 9.36141 10.5129H18.6372C19.2435 10.5129 19.7349 11.0044 19.7349 11.6107Z" stroke="#2C362B" stroke-miterlimit="10" stroke-linecap="round" stroke-linejoin="round"/>
<path d="M12.9512 17.4063C13.5848 17.9167 14.4709 17.9167 15.1045 17.4063" stroke="#2C362B" stroke-miterlimit="10" stroke-linecap="round" stroke-linejoin="round"/>
</g>
</g>
<defs>
<clipPath id="clip0_734_30917">
<rect width="28" height="28" fill="white"/>
</clipPath>
</defs>
</svg>
