<svg width="27" height="27" viewBox="0 0 27 27" fill="none" xmlns="http://www.w3.org/2000/svg">
<path d="M24.8817 7.48921C24.6067 6.46688 23.8006 5.66099 22.7785 5.3857C20.9111 4.87476 13.4413 4.87476 13.4413 4.87476C13.4413 4.87476 5.97182 4.87476 4.10441 5.36633C3.10189 5.64132 2.27619 6.46702 2.0012 7.48921C1.50977 9.35647 1.50977 13.2289 1.50977 13.2289C1.50977 13.2289 1.50977 17.1209 2.0012 18.9686C2.27648 19.9908 3.08223 20.7967 4.10456 21.072C5.99148 21.5831 13.4416 21.5831 13.4416 21.5831C13.4416 21.5831 20.9111 21.5831 22.7785 21.0915C23.8008 20.8164 24.6067 20.0105 24.882 18.9883C25.3733 17.1209 25.3733 13.2486 25.3733 13.2486C25.3733 13.2486 25.3929 9.35647 24.8817 7.48921ZM11.0631 16.8064V9.65142L17.2746 13.2289L11.0631 16.8064Z" fill="white"/>
</svg>
