<svg width="81" height="81" viewBox="0 0 81 81" fill="none" xmlns="http://www.w3.org/2000/svg">
<g clip-path="url(#clip0_482_17046)">
<path d="M79.3311 21.0558C78.3974 17.5859 75.6616 14.8507 72.1922 13.9163C65.8536 12.1816 40.4992 12.1816 40.4992 12.1816C40.4992 12.1816 15.1454 12.1816 8.80681 13.8502C5.40422 14.7839 2.60169 17.5865 1.66792 21.0558C0 27.3938 0 40.5382 0 40.5382C0 40.5382 0 53.7487 1.66792 60.0206C2.60231 63.4899 5.33748 66.2257 8.80743 67.1601C15.2122 68.8948 40.4998 68.8948 40.4998 68.8948C40.4998 68.8948 65.8536 68.8948 72.1922 67.2262C75.6622 66.2924 78.3974 63.5567 79.3317 60.0873C80.9997 53.7487 80.9997 40.6049 80.9997 40.6049C80.9997 40.6049 81.0664 27.3938 79.3311 21.0558Z" fill="#FF0000"/>
<path d="M32.4258 52.6821L53.5093 40.5388L32.4258 28.3955V52.6821Z" fill="white"/>
</g>
<defs>
<clipPath id="clip0_482_17046">
<rect width="81" height="81" fill="white"/>
</clipPath>
</defs>
</svg>
