<svg width="48" height="48" viewBox="0 0 48 48" fill="none" xmlns="http://www.w3.org/2000/svg">
<path d="M22.0586 21.3375C21.1085 22.2206 19.7526 22.2169 18.8072 21.3375C18.507 21.0663 18.0455 21.0883 17.7746 21.3813C17.4963 21.6815 17.5183 22.143 17.8113 22.4139C19.3112 23.7939 21.5209 23.8251 23.0547 22.4139C23.3475 22.143 23.3694 21.6815 23.0913 21.3813C22.8204 21.0811 22.359 21.0663 22.0586 21.3375Z" fill="white"/>
<path d="M25.6534 18.0707C25.6534 17.0543 24.8347 16.2354 23.8182 16.2354C22.8016 16.2354 21.9688 17.0543 21.9688 18.0707C21.9688 19.0871 22.8016 19.9202 23.8182 19.9202C24.8347 19.9202 25.6534 19.0871 25.6534 18.0707Z" fill="white"/>
<path d="M18.7122 18.0707C18.7122 17.0543 17.8791 16.2354 16.8627 16.2354C15.8463 16.2354 15.0273 17.0543 15.0273 18.0707C15.0273 19.0871 15.8463 19.9202 16.8627 19.9202C17.8791 19.9202 18.7122 19.0871 18.7122 18.0707Z" fill="white"/>
<path d="M46.5033 4.87012C46.5033 3.3877 45.2962 2.18066 43.8138 2.18066H32.1738C30.6914 2.18066 29.4844 3.3877 29.4844 4.87012V10.9266C29.4844 12.2819 30.4939 13.4114 31.7997 13.5947V15.6421C31.7997 16.5466 32.8232 17.0868 33.5715 16.5527L37.6444 13.6161H43.8138C45.2962 13.6161 46.5033 12.4091 46.5033 10.9266V4.87012ZM33.6421 9.09852C32.8656 9.09852 32.2304 8.46329 32.2304 7.68675C32.2304 6.91021 32.8656 6.27499 33.6421 6.27499C34.4187 6.27499 35.0539 6.91021 35.0539 7.68675C35.0539 8.46329 34.4187 9.09852 33.6421 9.09852ZM37.9903 9.09852C37.2139 9.09852 36.5856 8.46329 36.5856 7.68675C36.5856 6.91021 37.2139 6.27499 37.9903 6.27499C38.7739 6.27499 39.4021 6.91021 39.4021 7.68675C39.4021 8.46329 38.7739 9.09852 37.9903 9.09852ZM42.3457 9.09852C41.5692 9.09852 40.9339 8.46329 40.9339 7.68675C40.9339 6.91021 41.5692 6.27499 42.3457 6.27499C43.1221 6.27499 43.7575 6.91021 43.7575 7.68675C43.7575 8.46329 43.1221 9.09852 42.3457 9.09852Z" fill="white"/>
<path d="M2.06881 44.6547C2.44657 44.7223 2.80503 44.4693 2.87155 44.0929C3.2956 41.6826 7.15919 42.2823 6.72047 44.7712C6.65429 45.1479 6.9059 45.5074 7.28262 45.5736C7.32329 45.5808 7.36362 45.5843 7.4036 45.5843C7.73345 45.5843 8.02607 45.3475 8.08536 45.0118C8.36702 43.4121 7.4639 41.8664 5.97047 41.3087L6.69806 37.1788C7.57094 37.0396 8.30215 36.3713 8.46415 35.4517C8.52774 35.0905 8.48707 34.7382 8.37884 34.4132L10.1937 33.2062L11.9229 43.2705C12.1769 44.746 13.4546 45.819 14.9512 45.819H25.2147C26.7111 45.819 27.9888 44.746 28.243 43.2705C28.63 41.022 27.2933 48.7884 29.9868 33.1379L31.9046 34.4129C31.7962 34.7382 31.7557 35.0905 31.8193 35.4517C31.9813 36.3713 32.7123 37.0396 33.5854 37.1788L34.313 41.3087C32.824 41.8646 31.9152 43.4076 32.1984 45.0118C32.2577 45.3478 32.55 45.5843 32.8798 45.5843C32.9198 45.5843 32.9601 45.5808 33.0008 45.5736C33.3775 45.5071 33.6291 45.1476 33.5626 44.7709C33.1256 42.2936 36.9793 41.6364 37.4115 44.0929C37.4777 44.4693 37.8331 44.7226 38.2143 44.6547C38.591 44.5885 38.8426 44.2294 38.7764 43.8523C38.6213 42.9741 38.1336 42.2082 37.4029 41.6964C36.8888 41.3362 36.296 41.1418 35.6844 41.1067L34.9501 36.9382C35.7228 36.5088 36.1814 35.6309 36.0194 34.7117C35.815 33.5519 34.7092 32.7774 33.5493 32.9814C33.2509 33.0342 32.9793 33.1483 32.742 33.3058L29.7735 31.3319C29.3068 30.2603 28.242 29.492 26.9653 29.492H24.3887V26.4496H24.8053C27.4029 26.4496 29.5346 24.4095 29.6689 21.84L30.8828 21.586C31.4758 21.4588 31.9558 21.0497 32.1888 20.513H33.0287C33.4382 20.513 33.7629 20.1884 33.7629 19.7861C33.7629 19.3767 33.4382 19.052 33.0287 19.052H32.1888C31.9558 18.5153 31.4758 18.1059 30.8828 17.9718L29.6689 17.7178C29.6689 17.7178 29.6689 17.7178 29.6689 17.7105C29.5205 15.1483 27.3958 13.1154 24.8053 13.1154H23.8099L23.2241 11.6612C22.8853 10.8213 22.1794 10.2212 21.3324 9.99546V9.16963C21.3324 8.76706 21.0077 8.44238 20.6053 8.44238C20.1958 8.44238 19.8711 8.76706 19.8711 9.16963V9.99546C19.0241 10.2212 18.3182 10.8213 17.9863 11.6612L17.3935 13.1154H16.0593C13.5182 13.1154 11.4218 15.0707 11.2029 17.5696H11.1958L9.28997 17.9718C8.68991 18.1059 8.21702 18.5153 7.98402 19.052H7.137C6.7346 19.052 6.40285 19.3767 6.40285 19.7861C6.40285 20.1884 6.7346 20.513 7.137 20.513H7.98402C8.21702 21.0497 8.68991 21.4588 9.28997 21.586L11.1958 21.9882H11.2029C11.4147 24.4871 13.5111 26.4496 16.0593 26.4496H16.6101V29.492H13.2006C11.8824 29.492 10.7827 30.3158 10.344 31.4422L7.54147 33.3058C7.30416 33.1483 7.03257 33.0342 6.73408 32.9814C5.57427 32.7774 4.4684 33.5519 4.26401 34.7117C4.10202 35.6313 4.5606 36.5088 5.33335 36.9382L4.59903 41.1063C3.98724 41.1418 3.39441 41.3362 2.88016 41.6964C2.14947 42.2082 1.66176 42.9741 1.50666 43.8523C1.44048 44.2294 1.69209 44.5885 2.06881 44.6547ZM16.0593 24.9882C14.1746 24.9882 12.65 23.4565 12.65 21.5719V18.0001C12.65 16.1154 14.1746 14.5765 16.0593 14.5765H24.8053C26.6828 14.5765 28.2147 16.1154 28.2147 18.0001V21.5719C28.2147 23.4565 26.6828 24.9882 24.8053 24.9882H16.0593ZM15.7841 32.9153H24.3817C24.7911 32.9153 25.1087 33.2472 25.1087 33.6494C25.1087 34.052 24.7911 34.3836 24.3817 34.3836H15.7841C15.3748 34.3836 15.057 34.052 15.057 33.6494C15.057 33.2472 15.3748 32.9153 15.7841 32.9153ZM15.7841 36.9248H24.3817C24.7911 36.9248 25.1087 37.2567 25.1087 37.659C25.1087 38.0612 24.7911 38.3931 24.3817 38.3931H15.7841C15.3748 38.3931 15.057 38.0612 15.057 37.659C15.057 37.2567 15.3748 36.9248 15.7841 36.9248ZM15.7841 40.9343H24.3817C24.7911 40.9343 25.1087 41.259 25.1087 41.6685C25.1087 42.0707 24.7911 42.3954 24.3817 42.3954H15.7841C15.3748 42.3954 15.057 42.0707 15.057 41.6685C15.057 41.259 15.3748 40.9343 15.7841 40.9343Z" fill="white"/>
</svg>
