<svg width="48" height="48" viewBox="0 0 48 48" fill="none" xmlns="http://www.w3.org/2000/svg">
<g clip-path="url(#clip0_482_12544)">
<path d="M41.1743 15.2338C37.1753 12.0928 33.2362 8.95477 29.2522 5.81375C27.5242 4.48475 26.6842 2.79574 27.0352 0.611723C27.0952 0.0687194 26.7922 -0.114282 26.1952 0.0687194C24.8212 0.488722 23.6872 1.27773 23.0302 2.54673C22.1302 4.35874 20.7052 5.02475 18.9052 4.96475C16.2141 4.84175 14.5461 6.29676 13.1121 8.35477C11.5521 10.5388 10.7871 13.0768 10.1901 15.6178C9.5331 18.3418 9.2271 21.0688 9.11909 23.8409C8.99609 25.9619 9.05909 28.0199 8.99609 30.1289C8.99609 30.2519 8.99609 30.3149 8.99609 30.3749V35.9999H35.3992V31.7579C35.3992 31.7579 35.6122 29.9729 34.2922 28.6649C32.9722 27.3569 31.5712 26.1329 31.5712 26.1329C30.8962 25.5809 30.2812 24.9509 29.7502 24.2639L24.8812 17.9638C25.1842 18.2098 25.4782 18.4438 25.7812 18.6898C27.2782 19.8358 28.8862 20.3188 30.7342 19.8358C31.8052 19.5898 32.8882 19.7128 33.8392 20.3158C34.3702 20.6698 34.9582 20.9758 35.5492 21.2818C36.9383 22.0018 38.6483 21.6718 39.6473 20.4718C40.2623 19.7338 40.8773 18.9958 41.4923 18.2698C42.2753 17.3428 42.1313 15.9838 41.1743 15.2338Z" fill="white"/>
<path d="M38.8409 45.831L35.8409 39.828C35.5859 39.321 35.0669 39 34.4999 39H10.4997C9.93275 39 9.41374 39.321 9.15874 39.828L6.15872 45.828C5.92472 46.293 5.95172 46.845 6.22472 47.286C6.49773 47.7271 6.98073 48.0001 7.49973 48.0001H37.4999C38.0189 48.0001 38.5019 47.73 38.7779 47.289C39.0509 46.848 39.0749 46.296 38.8409 45.831Z" fill="white"/>
</g>
<defs>
<clipPath id="clip0_482_12544">
<rect width="48" height="48" fill="white"/>
</clipPath>
</defs>
</svg>
