<svg width="48" height="48" viewBox="0 0 48 48" fill="none" xmlns="http://www.w3.org/2000/svg">
<path d="M26.9685 22.9513C30.3638 22.525 33.7118 23.8914 35.8589 26.5364C36.0165 26.7306 36.2978 26.773 36.4997 26.6256C37.4724 25.9148 38.3098 25.0269 38.9664 24.002C43.0584 17.6175 38.5143 9 30.7511 9C25.6852 9 21.5098 12.8823 21.045 17.8282C21.0263 18.0279 21.1366 18.2187 21.3202 18.2998C23.4394 19.2371 25.2499 20.7815 26.5217 22.7449C26.6181 22.8938 26.7926 22.9733 26.9685 22.9513Z" fill="white"/>
<path d="M30.75 7.5C31.5785 7.5 32.25 6.82837 32.25 6V3C32.25 2.17162 31.5785 1.5 30.75 1.5C29.9215 1.5 29.25 2.17162 29.25 3V6C29.25 6.82837 29.9215 7.5 30.75 7.5Z" fill="white"/>
<path d="M46.5 17.25H43.5C42.6715 17.25 42 17.9216 42 18.75C42 19.5784 42.6715 20.25 43.5 20.25H46.5C47.3285 20.25 48 19.5784 48 18.75C48 17.9216 47.3285 17.25 46.5 17.25Z" fill="white"/>
<path d="M40.8263 26.7049C40.2406 26.1192 39.2909 26.1192 38.705 26.7049C38.1192 27.2908 38.1192 28.2405 38.705 28.8262L40.8263 30.9475C41.1192 31.2405 41.503 31.3869 41.8869 31.3869C43.2114 31.3869 43.8951 29.7737 42.9475 28.8263L40.8263 26.7049Z" fill="white"/>
<path d="M20.6739 10.7952C21.2597 11.381 22.2094 11.381 22.7952 10.7952C23.3811 10.2093 23.3811 9.25962 22.7952 8.67387L20.6739 6.55259C20.0884 5.96684 19.1386 5.96684 18.5527 6.55259C17.9668 7.13844 17.9668 8.08812 18.5527 8.67387L20.6739 10.7952Z" fill="white"/>
<path d="M39.7673 11.2346C40.1512 11.2346 40.535 11.0882 40.8279 10.7952L42.9492 8.67391C43.535 8.08807 43.535 7.13838 42.9492 6.55263C42.3634 5.96688 41.4137 5.96679 40.8279 6.55263L38.7067 8.674C37.7589 9.62172 38.443 11.2346 39.7673 11.2346Z" fill="white"/>
<path d="M34.9247 34.125C36.0811 28.4274 30.1143 24.0347 25.0542 26.6312C23.9421 22.9609 20.5333 20.2891 16.5 20.2891C11.2656 20.2891 7.13306 24.7721 7.59844 30.0256C3.34669 30.3577 0 33.9129 0 38.25C0 42.7937 3.68109 46.5 8.25 46.5H35.0625C38.4798 46.5 41.25 43.7297 41.25 40.3125C41.25 37.0464 38.68 34.125 34.9247 34.125Z" fill="white"/>
</svg>
