<svg width="48" height="48" viewBox="0 0 48 48" fill="none" xmlns="http://www.w3.org/2000/svg">
<path d="M38.8535 22.213C39.075 22.4437 39.1765 22.776 39.0843 23.1084C38.3366 25.7853 37.2289 28.7668 35.8904 31.7299C32.7058 38.8007 27.0104 45.8622 24.6473 45.8622C24.5088 45.8622 24.3796 45.8438 24.2596 45.7884C23.8996 45.6222 22.7827 45.1237 23.6319 39.4099C23.9642 37.213 24.8504 32.773 27.1027 27.7699C28.4504 24.7976 29.955 22.0007 31.4596 19.6653C31.6443 19.3884 31.9581 19.2407 32.2719 19.2499C32.7427 18.2899 33.2596 17.2468 33.7673 16.2314C34.515 17.173 35.475 17.9299 36.6012 18.4284C37.5796 18.8714 38.6689 19.1114 39.7488 19.1114C39.8781 19.1114 40.0073 19.1114 40.1365 19.1022C39.7119 20.1453 39.2596 21.2253 38.8535 22.213Z" fill="white"/>
<path d="M46.1537 7.73957C46.163 9.90883 45.7199 12.4196 45.083 13.8319C44.1045 15.9919 41.9814 17.2657 39.7476 17.2657C38.9537 17.2657 38.1322 17.0996 37.3568 16.7488C35.9352 16.1119 34.8553 14.958 34.3014 13.4996C33.7476 12.0411 33.7937 10.4534 34.4399 9.0319C35.7045 6.74263 37.163 6.33647 38.446 5.97651C39.8307 5.59802 41.1414 5.22882 42.7476 2.5796C42.9876 2.18262 43.486 2.02572 43.9106 2.21958C45.7568 3.05032 46.1537 5.68112 46.1537 7.73957Z" fill="white"/>
<path d="M32.5769 14.1552C31.9769 12.5768 31.9123 10.8876 32.3738 9.29984C31.5523 8.56139 30.6753 7.92447 29.7523 7.3614C27.0292 5.70906 23.9 4.75832 20.6507 4.6937C15.6661 4.60141 10.9399 6.46599 7.37688 9.95525C3.81381 13.4537 1.84766 18.1245 1.84766 23.1183C1.84766 30.0045 5.64149 36.2629 11.7431 39.4476C12.4723 39.8352 13.2569 40.0291 14.0508 40.0291C14.983 40.0291 15.9246 39.7614 16.7646 39.2352C18.2877 38.2752 19.1553 36.6599 19.1 34.8967C18.9984 31.8506 19.9953 29.3306 21.9061 27.8075C22.9677 26.9675 24.2784 26.4691 25.7369 26.3306C27.0292 23.5245 28.4784 20.8937 29.9092 18.6691C30.1861 18.2445 30.5553 17.9214 30.98 17.7091C31.5154 16.6291 32.0969 15.4383 32.66 14.3399C32.6231 14.2845 32.6046 14.2199 32.5769 14.1552ZM12.2138 30.0414C10.5338 30.0414 9.18613 28.6845 9.18613 27.0137C9.18613 25.3429 10.5338 23.986 12.2138 23.986C13.8846 23.986 15.2323 25.3429 15.2323 27.0137C15.2323 28.6845 13.8846 30.0414 12.2138 30.0414ZM13.8384 19.7122C12.1584 19.7122 10.8108 18.3552 10.8108 16.6845C10.8108 15.0137 12.1584 13.6476 13.8384 13.6476C15.5092 13.6476 16.8569 15.0137 16.8569 16.6845C16.8569 18.3552 15.5092 19.7122 13.8384 19.7122ZM24.4354 18.0876C22.7554 18.0876 21.4077 16.7214 21.4077 15.0598C21.4077 13.3891 22.7554 12.0229 24.4354 12.0229C26.1061 12.0229 27.4538 13.3891 27.4538 15.0598C27.4538 16.7214 26.1061 18.0876 24.4354 18.0876Z" fill="white"/>
</svg>
