<svg width="56" height="56" viewBox="0 0 56 56" fill="none" xmlns="http://www.w3.org/2000/svg">
<path d="M47.3206 9.80417L48.165 8.26155L49.7085 7.41717L48.165 6.5728L47.3206 5.0293L46.4771 6.5728L44.9336 7.41717L46.4771 8.26155L47.3206 9.80417Z" fill="white"/>
<path d="M12.3106 45.5605L11.7366 46.6097L10.6875 47.1837L11.7366 47.7568L12.3106 48.8059L12.8838 47.7568L13.9329 47.1837L12.8838 46.6097L12.3106 45.5605Z" fill="white"/>
<path d="M45.3614 38.5283L44.7874 39.5774L43.7383 40.1514L44.7874 40.7246L45.3614 41.7737L45.9345 40.7246L46.9837 40.1514L45.9345 39.5774L45.3614 38.5283Z" fill="white"/>
<path d="M5.57537 10.4124L6.14937 9.36324L7.1985 8.78924L6.14937 8.21612L5.57537 7.16699L5.00225 8.21612L3.95312 8.78924L5.00225 9.36324L5.57537 10.4124Z" fill="white"/>
<path d="M10.5018 28.6664C10.6926 28.8115 10.9329 28.8758 11.1706 28.8452C11.4084 28.8147 11.6247 28.6919 11.7727 28.5033C11.9207 28.3147 11.9886 28.0755 11.9617 27.8373C11.9348 27.599 11.8153 27.381 11.629 27.2301L9.06544 25.2211C8.93 25.1191 8.76902 25.0566 8.60027 25.0404C8.43151 25.0241 8.26156 25.0549 8.10919 25.1292C7.95681 25.2035 7.82794 25.3185 7.73681 25.4614C7.64569 25.6044 7.59585 25.7698 7.59281 25.9393V30.83C7.23014 30.6909 6.8449 30.6201 6.45648 30.621C6.08099 30.5966 5.7045 30.6495 5.35028 30.7765C4.99607 30.9034 4.67166 31.1017 4.39712 31.359C4.12258 31.6163 3.90374 31.9272 3.75414 32.2725C3.60453 32.6177 3.52734 32.99 3.52734 33.3663C3.52734 33.7426 3.60453 34.1149 3.75414 34.4601C3.90374 34.8054 4.12258 35.1163 4.39712 35.3736C4.67166 35.6309 4.99607 35.8292 5.35028 35.9561C5.7045 36.0831 6.08099 36.136 6.45648 36.1116C6.84226 36.1263 7.227 36.0624 7.58729 35.9237C7.94758 35.785 8.2759 35.5745 8.55226 35.3049C8.82862 35.0354 9.04726 34.7124 9.19487 34.3557C9.34248 33.999 9.41598 33.6159 9.41089 33.2299V27.8028L10.5018 28.6664Z" fill="white"/>
<path d="M52.1553 16.8668L49.5917 14.8577C49.4573 14.7544 49.2969 14.6904 49.1283 14.6729C48.9597 14.6554 48.7895 14.685 48.6368 14.7586C48.4841 14.8321 48.3548 14.9466 48.2634 15.0893C48.1719 15.2321 48.122 15.3974 48.119 15.5669V20.4667C46.2993 19.7046 43.9757 21.0561 44.0282 23.003C44.1444 26.5796 49.7087 26.6475 49.9371 23.0938C49.9506 23.0187 49.9506 22.9417 49.9371 22.8666V17.4395L51.028 18.294C51.2177 18.4387 51.4566 18.5031 51.6933 18.4733C51.93 18.4435 52.1455 18.3219 52.2934 18.1347C52.4412 17.9475 52.5096 17.7096 52.4838 17.4725C52.458 17.2353 52.34 17.0178 52.1553 16.8668Z" fill="white"/>
<path d="M35.2428 33.4496L31.377 35.925L30.5572 32.1636C30.5412 32.0924 30.5331 32.0196 30.533 31.9466L30.5733 23.3791C30.5728 23.1343 30.6627 22.8979 30.8259 22.7155C30.9891 22.533 31.214 22.4173 31.4573 22.3905L36.9305 21.7234C37.3426 21.6705 37.7375 21.5254 38.0857 21.2988C38.434 21.0723 38.7267 20.7702 38.9422 20.415C39.1576 20.0598 39.2903 19.6606 39.3302 19.247C39.3701 18.8335 39.3164 18.4163 39.1729 18.0264L36.1429 9.90893C35.8959 9.269 35.4073 8.75175 34.7825 8.46862C34.1577 8.18549 33.4467 8.15915 32.8026 8.39528C32.1586 8.6314 31.6331 9.11109 31.3394 9.73099C31.0456 10.3509 31.0072 11.0614 31.2323 11.7093L33.0647 16.7887L29.1105 17.3593C29.0006 17.3741 28.8889 17.3686 28.781 17.3432L22.1021 15.8162C21.9619 15.7896 21.8315 15.7257 21.7244 15.6313C20.9127 14.908 18.9838 12.7621 18.6221 8.38992C18.479 7.62744 18.0421 6.95167 17.4056 6.50808C16.7692 6.06449 15.9839 5.88856 15.219 6.01816C14.4541 6.14776 13.7707 6.57253 13.3159 7.20102C12.8611 7.82951 12.6712 8.61147 12.7872 9.37856C13.2855 12.2558 14.692 17.5844 18.5578 21.0323C18.8068 21.252 19.0069 21.5214 19.1454 21.8232C19.2838 22.125 19.3574 22.4524 19.3615 22.7844V30.709C18.5578 34.1464 15.3937 42.0437 21.1217 49.9739C21.4066 50.2899 21.7551 50.542 22.1443 50.7137C22.5335 50.8855 22.9546 50.973 23.3801 50.9704C23.9311 50.9663 24.4715 50.8178 24.9473 50.5397C25.4231 50.2616 25.8177 49.8636 26.0917 49.3855C26.3657 48.9073 26.5096 48.3657 26.5091 47.8146C26.5085 47.2635 26.3634 46.7222 26.0884 46.2446C24.7624 44.0746 22.7692 39.7587 24.24 35.1293L24.4248 34.7355C24.4876 34.607 24.5894 34.5015 24.7156 34.4343C24.8419 34.367 24.9862 34.3413 25.1279 34.3609C25.2696 34.3805 25.4014 34.4444 25.5047 34.5434C25.6079 34.6425 25.6773 34.7716 25.7028 34.9123L26.6591 40.5382C26.7557 41.0656 26.973 41.5635 27.2941 41.993C27.8071 42.6745 28.5603 43.1353 29.4007 43.2816C30.2412 43.4279 31.1058 43.2488 31.8189 42.7806L38.4656 38.4165C39.1091 37.9825 39.5565 37.3132 39.7114 36.5527C39.8664 35.7921 39.7164 35.0011 39.294 34.35C38.8715 33.6989 38.2102 33.2397 37.4525 33.0713C36.6948 32.9029 35.9013 33.0387 35.2428 33.4496Z" fill="white"/>
<path d="M25.7877 15.6291C26.6906 15.6291 27.5732 15.3614 28.3239 14.8598C29.0746 14.3581 29.6597 13.6452 30.0053 12.811C30.3508 11.9769 30.4412 11.059 30.265 10.1734C30.0889 9.2879 29.6541 8.47449 29.0156 7.83606C28.3772 7.19764 27.5638 6.76286 26.6782 6.58673C25.7927 6.4106 24.8748 6.50101 24.0407 6.84654C23.2065 7.19207 22.4936 7.7772 21.992 8.52792C21.4904 9.27865 21.2226 10.1613 21.2227 11.0641C21.2246 12.2743 21.7062 13.4343 22.5619 14.29C23.4176 15.1456 24.5776 15.6272 25.7877 15.6291Z" fill="white"/>
</svg>
