<svg width="44" height="44" viewBox="0 0 44 44" fill="none" xmlns="http://www.w3.org/2000/svg">
<g clip-path="url(#clip0_482_12513)">
<path d="M7.65173 33.2148C6.79236 33.2148 5.97595 33.5672 5.37439 34.1773C4.79001 34.7617 4.47204 35.5523 4.48064 36.3773C4.51501 38.0703 5.89861 39.4195 7.59158 39.4281H40.3853C39.6291 37.5805 39.6978 35.518 40.6603 33.2148H7.65173Z" fill="white"/>
<path d="M43.1519 30.8168C43.1519 30.1379 42.6019 29.5965 41.923 29.5879H7.58233C3.86123 29.6309 0.887795 32.6816 0.92217 36.3941C0.965139 40.0551 3.92139 43.0113 7.58233 43.0543H41.923C42.6019 43.0715 43.1604 42.5387 43.1776 41.8598C43.1948 41.1809 42.662 40.6223 41.9831 40.6051C41.9573 40.6051 41.9401 40.6051 41.9144 40.6051H7.58233C5.25342 40.5965 3.3542 38.723 3.30264 36.3941C3.28545 35.2512 3.72373 34.1598 4.53155 33.352C5.35654 32.5184 6.48233 32.0457 7.65108 32.0457H41.9315C42.6019 32.0371 43.1519 31.4957 43.1519 30.8168Z" fill="white"/>
<path d="M19.2602 20.4008L7.16016 15.3047V24.3711C7.16016 26.2273 8.67266 27.7398 10.5289 27.7398H31.4891C33.3539 27.7398 34.8578 26.2359 34.8578 24.3711V15.3047L22.7578 20.4008C21.6406 20.8734 20.3773 20.8734 19.2602 20.4008Z" fill="white"/>
<path d="M43.8473 26.099L41.1145 21.3725V12.667L39.009 13.5521V21.3725L36.2762 26.099C35.9668 26.6318 36.1473 27.3193 36.6801 27.6287C36.852 27.7232 37.041 27.7834 37.2387 27.7748H42.8848C43.5035 27.7748 44.002 27.2764 44.002 26.6576C44.002 26.46 43.9504 26.2709 43.8473 26.099Z" fill="white"/>
<path d="M22.3023 19.3184L41.3202 11.309C41.896 11.0684 42.171 10.398 41.9218 9.82227C41.8101 9.54727 41.5866 9.33242 41.3202 9.2207L22.3023 1.20273C21.4773 0.850391 20.5406 0.850391 19.7156 1.20273L0.697585 9.2207C0.121804 9.46133 -0.153196 10.1316 0.0960224 10.7074C0.207741 10.9824 0.431179 11.1973 0.697585 11.309L19.7156 19.3184C20.5406 19.6707 21.4773 19.6707 22.3023 19.3184Z" fill="white"/>
</g>
<defs>
<clipPath id="clip0_482_12513">
<rect width="44" height="44" fill="white"/>
</clipPath>
</defs>
</svg>
