<svg width="48" height="48" viewBox="0 0 48 48" fill="none" xmlns="http://www.w3.org/2000/svg">
<g clip-path="url(#clip0_482_12642)">
<path d="M45.312 12.9326L45.156 13.0016C41.658 14.5586 38.025 15.6896 34.299 16.4336C35.352 21.4286 35.349 26.5886 34.293 31.5806C38.019 32.3216 41.67 33.4436 45.153 34.9946L45.306 35.0636C47.019 31.7486 48 27.9926 48 23.9996C48 20.0066 47.019 16.2506 45.312 12.9326Z" fill="white"/>
<path d="M17.4492 34.0471C18.7752 38.2681 20.9622 42.2671 23.9982 45.8011C27.0342 42.2671 29.2242 38.2681 30.5472 34.0471C26.2002 33.4711 21.7962 33.4741 17.4492 34.0471Z" fill="white"/>
<path d="M31.3266 16.9023C28.9146 17.2413 26.4786 17.4723 24.0006 17.4723C21.5196 17.4723 19.0836 17.2383 16.6716 16.9023C15.6606 21.5883 15.6606 26.4363 16.6776 31.1223C21.5346 30.4473 26.4636 30.4473 31.3206 31.1223C32.3376 26.4363 32.3406 21.5883 31.3266 16.9023Z" fill="white"/>
<path d="M23.9982 2.19922C20.9622 5.73322 18.7752 9.73222 17.4492 13.9562C21.7962 14.5292 26.2032 14.5292 30.5472 13.9562C29.2212 9.73522 27.0342 5.73322 23.9982 2.19922Z" fill="white"/>
<path d="M26.0664 0C29.5884 4.032 32.0964 8.631 33.5544 13.488C37.0524 12.804 40.4784 11.763 43.7484 10.32C39.7884 4.563 33.3984 0.63 26.0664 0Z" fill="white"/>
<path d="M4.24609 10.32C7.51909 11.76 10.9451 12.804 14.4401 13.488C15.8981 8.631 18.4061 4.032 21.9281 0C14.5961 0.63 8.20909 4.563 4.24609 10.32Z" fill="white"/>
<path d="M13.701 16.4365C9.975 15.6895 6.345 14.5615 2.85 13.0045L2.694 12.9355C0.981 16.2505 0 20.0065 0 23.9995C0 27.9925 0.981 31.7486 2.694 35.0665L2.85 34.9976C6.33 33.4436 9.981 32.3215 13.707 31.5835C12.648 26.5915 12.648 21.4315 13.701 16.4365Z" fill="white"/>
<path d="M14.4401 34.5146C10.9421 35.1956 7.51609 36.2396 4.24609 37.6796C8.20909 43.4366 14.5961 47.3696 21.9281 47.9996C18.4061 43.9676 15.8981 39.3686 14.4401 34.5146Z" fill="white"/>
<path d="M33.5544 34.5117C32.0994 39.3687 29.5884 43.9677 26.0664 47.9997C33.3984 47.3697 39.7884 43.4367 43.7484 37.6797C40.4784 36.2367 37.0524 35.1957 33.5544 34.5117Z" fill="white"/>
</g>
<defs>
<clipPath id="clip0_482_12642">
<rect width="48" height="48" fill="white"/>
</clipPath>
</defs>
</svg>
