<svg width="46" height="46" viewBox="0 0 46 46" fill="none" xmlns="http://www.w3.org/2000/svg">
<g clip-path="url(#clip0_482_12526)">
<path d="M37.2375 46.0005C37.6215 46.0005 38.0118 45.9188 38.3827 45.7458C39.4154 45.2647 40.0019 44.2173 39.9478 43.1455C38.3953 43.7913 36.4003 44.5558 35.0547 44.9011C35.5723 45.6004 36.3896 46.0005 37.2375 46.0005Z" fill="white"/>
<path d="M3.86753 42.4448C3.41836 43.8762 4.21457 45.4006 5.64597 45.8498C5.91674 45.9347 6.19054 45.9751 6.46 45.9751C7.51764 45.9751 8.50356 45.351 8.9423 44.3551C6.73359 43.6311 5.05316 42.7666 3.96945 42.1201L3.86753 42.4448Z" fill="white"/>
<path d="M37.6044 12.9058L41.3736 12.5435C42.3293 12.4516 43.0297 11.6024 42.9378 10.6467C42.8458 9.69096 41.9962 8.98949 41.0409 9.0825L37.4962 9.42323C37.4844 9.97302 37.4664 11.5485 37.6044 12.9058Z" fill="white"/>
<path d="M25.5305 22.3326L25.0928 17.4926C25.1358 17.3455 25.1956 17.2068 25.2745 17.0779C26.08 15.7587 28.6682 15.3608 31.2689 15.2606C33.7538 15.1648 36.2494 15.3404 37.2122 15.2443C37.5554 15.21 37.7042 15.1413 37.5878 15.0133C36.7889 14.1345 36.92 9.53609 36.9284 9.26228C36.9287 9.2538 36.9289 9.24902 36.9289 9.24902C36.9289 9.24902 36.7222 9.2688 36.3595 9.30422C34.2643 9.50892 26.8954 10.2439 23.184 10.8102C23.1714 10.8084 23.1592 10.8056 23.1464 10.8041C23.149 10.8036 23.1518 10.803 23.1547 10.8026L23.1434 10.8036C23.0319 10.791 22.9176 10.7893 22.8013 10.7999L14.4398 11.5562C14.2209 11.5759 14.0165 11.6381 13.8317 11.7318L13.815 11.6598C11.9192 12.1014 8.28194 14.2099 8.0392 19.0281C8.03834 19.0411 8.03703 19.0541 8.0366 19.0674C8.0366 19.0691 8.03638 19.0707 8.03616 19.0722C8.03551 19.087 8.03681 19.1015 8.03638 19.1163C8.03508 19.1719 8.03421 19.2278 8.03703 19.284C8.03942 19.3332 8.04572 19.3814 8.05137 19.4296C8.05398 19.4509 8.05442 19.472 8.05768 19.4935C8.05789 19.4953 8.05833 19.497 8.05876 19.4987C8.06463 19.5376 8.07354 19.5752 8.08136 19.6135C8.08745 19.6433 8.09266 19.6735 8.10005 19.7028C8.10874 19.7369 8.11961 19.7702 8.12982 19.8036C8.13982 19.8367 8.14938 19.8701 8.1609 19.9025C8.17111 19.931 8.18284 19.9584 8.19414 19.9862C8.20892 20.0227 8.2237 20.0592 8.24043 20.0946C8.25173 20.1185 8.26412 20.1418 8.27607 20.1652C8.29541 20.2028 8.3154 20.2402 8.33692 20.2765C8.34952 20.2978 8.36256 20.3184 8.37581 20.3391C8.39907 20.3756 8.42319 20.4114 8.44861 20.4464C8.46295 20.4662 8.47751 20.4855 8.49251 20.5049C8.51858 20.5386 8.54575 20.5712 8.57378 20.6031C8.59051 20.6222 8.60746 20.6413 8.62506 20.66C8.65288 20.6896 8.68178 20.7178 8.71112 20.7457C8.73111 20.7646 8.75067 20.7837 8.77131 20.8019C8.79978 20.8271 8.82955 20.8506 8.85932 20.8743C8.88257 20.8928 8.90517 20.9115 8.92908 20.9288C8.95841 20.9501 8.98905 20.9697 9.01948 20.9897C9.04534 21.0066 9.07033 21.0242 9.09684 21.0401C9.13313 21.0616 9.17072 21.0807 9.20832 21.1003C9.24635 21.1201 9.28503 21.1388 9.32436 21.1564C9.36717 21.1755 9.40998 21.1944 9.45409 21.2107C9.47734 21.2194 9.50168 21.2261 9.52537 21.2339C9.56731 21.2479 9.60903 21.2615 9.65184 21.2728C9.67509 21.2789 9.69878 21.2837 9.72225 21.2889C9.76723 21.2994 9.81243 21.3087 9.8585 21.3161C9.88153 21.3198 9.90479 21.3226 9.92804 21.3256C9.97476 21.3317 10.0219 21.3363 10.0695 21.3393C10.0821 21.3402 10.0945 21.3424 10.1071 21.343C10.1345 21.3443 10.1616 21.3446 10.1888 21.3448C10.1938 21.3448 10.1988 21.3454 10.2038 21.3454C10.2675 21.3454 10.3316 21.3417 10.3959 21.3359C10.4205 21.3337 10.4446 21.3306 10.4687 21.3276C10.4885 21.3252 10.5082 21.3239 10.5282 21.3209L12.464 21.031L16.9833 20.3543C18.1705 20.1765 17.5223 15.8782 16.3399 16.0562L12.0574 16.6974L12.0107 16.1992L16.2658 15.562C16.3145 15.5546 16.3632 15.5511 16.411 15.5511C16.6915 15.5511 16.9368 15.6709 17.1492 15.8693L18.3982 15.6822C18.5088 15.6657 18.6208 15.6572 18.7316 15.6572C19.8294 15.6572 20.7804 16.4769 20.9433 17.5638C21.0318 18.1554 20.8849 18.7456 20.5296 19.2262C20.1738 19.7069 19.6525 20.0205 19.0612 20.1089L17.8154 20.2956C17.6364 20.6077 17.3808 20.8002 17.0574 20.8487L13.6399 21.3604L13.9026 24.2665C19.201 24.805 24.5654 22.7292 25.5305 22.3326Z" fill="white"/>
<path d="M20.7383 9.0046C23.0093 7.54371 23.666 4.51843 22.2051 2.24743C20.7442 -0.0235572 17.7189 -0.680276 15.4479 0.780611C13.1769 2.2415 12.5202 5.26678 13.9811 7.53777C15.442 9.80877 18.4673 10.4655 20.7383 9.0046Z" fill="white"/>
<path d="M18.9872 19.6142C19.9369 19.4721 20.5914 18.587 20.4493 17.6374C20.307 16.6879 19.4225 16.0339 18.4724 16.1755L17.5039 16.3205C17.8396 16.8881 18.0398 17.6917 18.0972 18.4642C18.1345 18.9651 18.1063 19.4006 18.02 19.7589L18.9872 19.6142Z" fill="white"/>
<path d="M18.3214 25.5098C17.485 25.6041 16.6162 25.6608 15.7311 25.6608C15.1656 25.6608 14.5937 25.6352 14.0202 25.5847L14.1476 26.9931L9.12147 29.0175C8.36698 29.3213 7.78829 29.9476 7.54469 30.7238L7.50666 30.8453L7.40213 31.0754L3.05469 40.6504C3.05469 40.6504 5.64129 42.7346 10.2745 44.0943C10.3067 44.1036 10.3377 44.1134 10.3699 44.1228C11.8561 42.5929 12.4845 38.0516 12.7451 34.955C13.5043 34.3589 15.2232 33.0297 16.7692 31.9766C16.7409 33.4465 16.7498 34.6929 16.8383 35.1693L17.5997 35.0283L18.1204 34.9318C17.955 34.0397 18.1417 29.0038 18.3214 25.5098Z" fill="white"/>
<path d="M21.2478 25.0166C20.5761 25.1659 19.8585 25.3015 19.1071 25.4093C19.0197 27.0947 18.9298 29.157 18.8789 30.9437L19.0549 30.8728C19.4813 30.7011 19.8392 30.4328 20.116 30.104C20.2077 30.1746 20.3049 30.2396 20.4068 30.2989C20.4674 30.7959 20.6862 31.3996 21.3614 31.6471C21.3851 31.6558 21.4138 31.6653 21.4412 31.6747C21.5796 32.9214 21.5726 34.0583 21.2964 34.8317L22.5242 35.2702C22.5525 35.1909 22.5768 35.1073 22.6009 35.0232C23.4091 32.1988 21.8347 26.837 21.2478 25.0166Z" fill="white"/>
<path d="M40.9634 41.9401C38.6821 35.6032 36.4786 32.4173 34.7834 30.6343C34.3946 30.2255 34.0328 29.8898 33.7027 29.6075C33.4115 29.3026 33.0525 29.0649 32.6474 28.9214L25.9103 26.535L25.6528 23.6885C24.95 23.9634 23.6368 24.4349 21.9648 24.8485C22.3584 26.0486 23.3873 29.4108 23.5716 32.2671C25.5024 32.7847 28.1105 33.5153 29.5784 34.3509C30.7951 37.3208 33.2374 43.446 33.0306 44.2733C32.9745 44.498 33.1851 44.5726 33.5695 44.5434C35.0637 44.4307 39.2277 42.7261 40.9634 41.9401Z" fill="white"/>
</g>
<defs>
<clipPath id="clip0_482_12526">
<rect width="46" height="46" fill="white"/>
</clipPath>
</defs>
</svg>
