<svg width="42" height="42" viewBox="0 0 42 42" fill="none" xmlns="http://www.w3.org/2000/svg">
<g clip-path="url(#clip0_482_12497)">
<path d="M11.378 11.2383H10.8513L9.86719 16.1602H12.3621L11.378 11.2383Z" fill="white"/>
<path d="M31.2852 21.082C31.8165 22.5093 32.5232 23.6646 33.3053 24.6477C34.0873 23.6646 34.8761 22.5092 35.4074 21.082H31.2852Z" fill="white"/>
<path d="M38.3089 7.46484H23.0279L26.2141 33.0323C26.2705 34.078 25.9846 35.0625 25.3021 35.8333L19.9062 42H38.3089C40.3444 42 42.0003 40.3441 42.0003 38.3086V11.2383C42.0003 9.20276 40.3444 7.46484 38.3089 7.46484ZM38.3089 21.082H37.9803C37.2801 23.3283 36.1698 25.086 35.016 26.4716C35.9199 27.298 36.8865 27.9759 37.8475 28.7352C38.3774 29.1594 38.4639 29.9332 38.0385 30.4644C37.6151 30.9947 36.8382 31.0807 36.3094 30.6554C35.2652 29.8312 34.2851 29.1414 33.305 28.242C32.3249 29.1414 31.4268 29.8312 30.3826 30.6554C29.8538 31.0807 29.0769 30.9947 28.6535 30.4644C28.2281 29.9332 28.3146 29.1594 28.8445 28.7352C29.8055 27.9759 30.6901 27.298 31.594 26.4716C30.4401 25.0861 29.4118 23.3284 28.7117 21.082H28.3831C27.703 21.082 27.1526 20.5317 27.1526 19.8516C27.1526 19.1714 27.703 18.6211 28.3831 18.6211H32.0745V17.3906C32.0745 16.7105 32.6249 16.1602 33.305 16.1602C33.9851 16.1602 34.5355 16.7105 34.5355 17.3906V18.6211H38.3089C38.989 18.6211 39.5394 19.1714 39.5394 19.8516C39.5394 20.5317 38.989 21.082 38.3089 21.082Z" fill="white"/>
<path d="M20.0291 3.23359C19.7996 1.39027 18.2242 0 16.3665 0H3.69141C1.65588 0 0 1.65588 0 3.69141V30.9258C0 32.9613 1.65588 34.6172 3.69141 34.6172C11.0471 34.6172 16.3387 34.6172 23.096 34.6172C23.4549 34.2069 23.7558 33.9499 23.7686 33.4144C23.7717 33.2801 20.0457 3.36681 20.0291 3.23359ZM15.0892 23.5189C14.4367 23.6532 13.7758 23.2296 13.6412 22.554L12.8548 18.6211H9.37576L8.58933 22.554C8.45718 23.2197 7.81545 23.6571 7.14139 23.5189C6.47571 23.3856 6.04308 22.7379 6.17646 22.071L8.63732 9.76631C8.75265 9.19193 9.25739 8.77734 9.84375 8.77734H12.3867C12.9731 8.77734 13.4778 9.19193 13.5932 9.76631L16.0541 22.071C16.1875 22.7379 15.7549 23.3856 15.0892 23.5189Z" fill="white"/>
<path d="M14.375 37.0781L14.5861 38.7664C14.7269 39.897 15.4782 41.05 16.7139 41.6257C19.0459 39.0586 17.635 40.6116 20.8449 37.0781H14.375Z" fill="white"/>
</g>
<defs>
<clipPath id="clip0_482_12497">
<rect width="42" height="42" fill="white"/>
</clipPath>
</defs>
</svg>
