<svg width="46" height="46" viewBox="0 0 46 46" fill="none" xmlns="http://www.w3.org/2000/svg">
<g clip-path="url(#clip0_482_12618)">
<path d="M14.242 2.69531C12.0127 2.69531 10.1992 4.59865 10.1992 6.82795C10.1992 9.05724 12.0127 10.8707 14.242 10.8707C16.4713 10.8707 18.2848 9.05724 18.2848 6.82795C18.2847 4.59865 16.4713 2.69531 14.242 2.69531Z" fill="white"/>
<path d="M27.7174 13.5654H8.8512C5.87845 13.5654 3.46094 15.9829 3.46094 18.9558V27.0413C3.46094 28.527 4.67032 29.7364 6.15607 29.7364C6.57519 29.7364 8.19912 29.3804 8.62228 29.2955L6.26011 42.5612C5.85213 43.9904 6.67995 45.484 8.10909 45.8934C9.58765 46.3136 11.0375 45.4466 11.4425 44.043L14.2423 32.2268L17.0394 44.0417C17.4329 45.4103 18.9601 46.304 20.3741 45.892C21.7007 45.5137 22.6673 44.1519 22.2231 42.5625L19.6319 28.0125V18.9558H27.7174C29.2031 18.9558 30.4125 17.7464 30.4125 16.2607C30.4125 14.7749 29.2031 13.5654 27.7174 13.5654Z" fill="white"/>
<path d="M39.0534 5.4802L42.1434 2.30036C42.5289 1.91475 42.6447 1.3358 42.4355 0.831773C42.2276 0.32766 41.7354 0 41.1906 0H27.7148C26.9705 0 26.3672 0.603391 26.3672 1.34757V10.8705H41.1906C41.7354 10.8705 42.2276 10.5428 42.4355 10.0387C42.6447 9.53467 42.5289 8.95562 42.1433 8.57002L39.0534 5.4802Z" fill="white"/>
<path d="M27.7148 21.6513H26.3672V44.6502C26.3672 45.3951 26.9699 45.9977 27.7148 45.9977C28.4596 45.9977 29.0623 45.395 29.0623 44.6502V21.46C28.629 21.5724 28.1827 21.6513 27.7148 21.6513Z" fill="white"/>
</g>
<defs>
<clipPath id="clip0_482_12618">
<rect width="46" height="46" fill="white"/>
</clipPath>
</defs>
</svg>
