<svg width="44" height="44" viewBox="0 0 44 44" fill="none" xmlns="http://www.w3.org/2000/svg">
<g clip-path="url(#clip0_482_12631)">
<path fill-rule="evenodd" clip-rule="evenodd" d="M4.67552 16.252C4.67552 15.4761 4.88142 14.7 5.53455 14.2215C5.96389 13.9069 6.50091 13.7882 7.02556 13.7882C7.5503 13.7882 8.08741 13.9069 8.51684 14.2215C9.17005 14.7 9.37612 15.476 9.37612 16.252C9.37612 16.9586 9.20666 17.6883 8.8385 18.2958C8.52139 18.8194 8.04298 19.2642 7.43445 19.4086C7.30048 19.4404 7.16332 19.4566 7.02556 19.4566C6.88763 19.4566 6.7503 19.4404 6.61607 19.4085C6.0078 19.2638 5.52956 18.8189 5.21271 18.2955C4.8449 17.688 4.67552 16.9585 4.67552 16.252ZM38.8341 0H39.1042H43.7717L43.2374 1.02627C43.1844 1.1281 43.1844 1.24945 43.2374 1.35128L43.7717 2.37755H39.1042V7.31646C38.9838 7.28716 38.858 7.27152 38.7287 7.27152C38.5994 7.27152 38.4738 7.28501 38.3531 7.31079V0H38.8341ZM38.686 15.7837L36.0827 15.8876H36.0773C35.3359 15.8876 34.6418 16.1801 34.1182 16.7047C33.5944 17.2294 33.3028 17.9242 33.3028 18.666V23.1616C33.3028 23.2872 33.3696 23.4034 33.4783 23.4662L38.7588 26.5189V31.1565H36.006V27.9257C36.006 27.7983 35.9373 27.6812 35.8262 27.6189L30.3835 24.5657C30.2748 24.5048 30.1419 24.5059 30.0344 24.5691C29.9267 24.6324 29.86 24.7476 29.86 24.8725V33.5617H26.9264V17.6834C26.9264 17.5376 26.8364 17.4073 26.7004 17.3551C26.5644 17.3027 26.4107 17.3399 26.3133 17.4482L24.5909 19.3642C24.3423 19.6408 24.0643 19.8184 23.709 19.928L20.0642 21.0537L20.1142 20.6415C20.1521 20.3291 20.1162 20.0117 19.9946 19.7202C19.9073 19.5111 19.78 19.3246 19.6234 19.1613L19.3346 18.8602L22.0021 17.9178C22.4706 17.7523 22.8357 17.4995 23.1555 17.1194L24.2441 15.8256C24.6303 15.3667 25.0289 14.8853 25.4638 14.472C25.8026 14.1499 26.1736 13.8671 26.6173 13.707C26.9069 13.6026 27.2048 13.5584 27.512 13.5584L36.6287 13.5582C37.1236 13.5529 37.5259 13.145 37.5269 12.6505L37.535 8.85801C37.5365 8.18348 38.0684 7.72028 38.7286 7.72028C39.3565 7.72028 39.8673 8.23066 39.8673 8.85861V14.6185C39.8673 15.2728 39.3348 15.7801 38.686 15.7837ZM0 44V41.9934H10.4724V44H0ZM11.1758 44V40.0107H21.6483V44H11.1758ZM22.3517 44V37.9334H32.8241V44H22.3517ZM33.5275 44V35.4435H44V44H33.5275ZM3.91695 23.6018V38.233H6.76904V30.7501C6.76904 30.625 6.8359 30.5099 6.94349 30.4465C7.05117 30.3832 7.18403 30.3821 7.293 30.4432L12.6129 33.4279C12.724 33.4902 12.7927 33.6074 12.7927 33.7348V36.0462H15.4679V32.3641L10.3098 29.382C10.2011 29.3191 10.1343 29.203 10.1343 29.0775V25.5652C10.1343 24.8391 10.4201 24.1594 10.9328 23.6458C11.4454 23.1323 12.1243 22.8456 12.8502 22.8456H14.5216C14.7582 22.8456 14.9588 22.8112 15.1816 22.7318L18.7709 21.4518C19.0329 21.3415 19.2405 21.1144 19.3476 20.8533C19.4617 20.5753 19.4606 20.268 19.345 19.9906C19.1077 19.4216 18.4497 19.1461 17.8792 19.3786C17.3562 19.562 16.8262 19.7352 16.301 19.9128C15.7717 20.0918 15.2424 20.271 14.7129 20.4497C14.427 20.5461 14.1601 20.5902 13.8584 20.5902H4.54996C3.65939 20.5902 2.43555 20.8239 1.81045 21.5122C1.5143 21.8383 1.37285 22.2335 1.37285 22.6725V29.3C1.37285 30.2185 2.00312 30.9854 2.86138 31.2638L3.21363 31.3781V23.6019C3.21363 23.4077 3.37116 23.2502 3.56529 23.2502C3.75951 23.2501 3.91695 23.4076 3.91695 23.6018ZM28.516 8.96517C28.516 9.68971 28.6899 10.4377 29.0675 11.0606C29.3926 11.597 29.8829 12.0527 30.5062 12.2016C30.6445 12.2346 30.7861 12.2514 30.9283 12.2514C31.0704 12.2514 31.2118 12.2347 31.3501 12.2017C31.9736 12.0529 32.4639 11.5973 32.7893 11.0608C33.1671 10.4379 33.3411 9.6898 33.3411 8.96509C33.3411 8.16879 33.1299 7.37198 32.4595 6.88093C32.0186 6.55815 31.467 6.43646 30.9284 6.43646C30.3898 6.43646 29.8384 6.55823 29.3977 6.88093C28.7271 7.37215 28.516 8.16887 28.516 8.96517Z" fill="white"/>
</g>
<defs>
<clipPath id="clip0_482_12631">
<rect width="44" height="44" fill="white"/>
</clipPath>
</defs>
</svg>
