<svg width="43" height="43" viewBox="0 0 43 43" fill="none" xmlns="http://www.w3.org/2000/svg">
<g clip-path="url(#clip0_482_12637)">
<path d="M0 4.7776V20.3055H20.3055V0H4.7776C2.13898 0 0 2.13898 0 4.7776ZM6.56948 8.95844H8.95844V6.56948C8.95844 5.90974 9.49319 5.375 10.1529 5.375C10.8127 5.375 11.3474 5.90974 11.3474 6.56948V8.95844H13.7364C14.3958 8.95844 14.9308 9.49319 14.9308 10.1529C14.9308 10.8127 14.3961 11.3474 13.7364 11.3474H11.3474V13.7364C11.3474 14.3958 10.8127 14.9308 10.1529 14.9308C9.49319 14.9308 8.95844 14.3961 8.95844 13.7364V11.3474H6.56948C5.90974 11.3474 5.375 10.8127 5.375 10.1529C5.375 9.49319 5.90974 8.95844 6.56948 8.95844Z" fill="white"/>
<path d="M38.2232 0H22.6953V20.3055H43.0008V4.7776C43.0008 2.13898 40.8619 0 38.2232 0ZM36.4314 11.3474H29.2648C28.6051 11.3474 28.0703 10.8127 28.0703 10.1526C28.0703 9.49286 28.6051 8.95811 29.2648 8.95811H36.4314C37.0911 8.95811 37.6258 9.49286 37.6258 10.1526C37.6258 10.8127 37.0911 11.3474 36.4314 11.3474Z" fill="white"/>
<path d="M0 38.2223C0 40.8609 2.13898 42.9999 4.7776 42.9999H20.3055V22.6943H0V38.2223ZM6.77485 31.1581C6.31654 30.6833 6.32967 29.9275 6.80405 29.4692C7.26694 29.022 8.00082 29.022 8.46372 29.4692L10.1529 31.1581L11.8418 29.4692C12.3165 29.0109 13.0727 29.024 13.531 29.4984C13.9778 29.9613 13.9778 30.6952 13.531 31.1581L11.8418 32.8473L13.531 34.5361C14.0054 34.9944 14.0185 35.7506 13.5602 36.225C13.1019 36.6997 12.3457 36.7128 11.8713 36.2545C11.8612 36.245 11.8516 36.2352 11.8418 36.225L10.1529 34.5361L8.46372 36.225C7.98934 36.6836 7.23315 36.6705 6.77485 36.1958C6.3277 35.7329 6.3277 34.999 6.77485 34.5361L8.46372 32.8473L6.77485 31.1581Z" fill="white"/>
<path d="M22.6953 42.9999H38.2232C40.8619 42.9999 43.0008 40.8609 43.0008 38.2223V22.6943H22.6953V42.9999ZM29.2648 29.2638H36.4314C37.0911 29.2638 37.6258 29.7986 37.6258 30.4583C37.6258 31.118 37.0911 31.6528 36.4314 31.6528H29.2648C28.6051 31.6528 28.0703 31.118 28.0703 30.4583C28.0703 29.7986 28.6051 29.2638 29.2648 29.2638ZM29.2648 34.0414H36.4314C37.0911 34.0414 37.6258 34.5762 37.6258 35.2359C37.6258 35.8956 37.0911 36.4304 36.4314 36.4304H29.2648C28.6051 36.4304 28.0703 35.8956 28.0703 35.2359C28.0703 34.5762 28.6051 34.0414 29.2648 34.0414Z" fill="white"/>
</g>
<defs>
<clipPath id="clip0_482_12637">
<rect width="43" height="43" fill="white"/>
</clipPath>
</defs>
</svg>
