<svg width="49" height="49" viewBox="0 0 49 49" fill="none" xmlns="http://www.w3.org/2000/svg">
<path d="M7.49476 5.78223C7.49344 5.78223 7.49195 5.78223 7.49063 5.78223C7.02719 5.78223 6.59131 5.96288 6.26216 6.2912C5.92939 6.62315 5.74609 7.06514 5.74609 7.53567V33.8283C5.74609 34.7925 6.53356 35.5788 7.50169 35.5813C11.5831 35.591 18.421 36.4416 23.1382 41.3781V13.8621C23.1382 13.5353 23.0547 13.2283 22.8971 12.9742C19.0255 6.73913 11.5854 5.7918 7.49476 5.78223Z" fill="white"/>
<path d="M43.2552 33.8285V7.53567C43.2552 7.06514 43.0719 6.62315 42.7391 6.2912C42.41 5.96288 41.9738 5.78223 41.5108 5.78223C41.5093 5.78223 41.5079 5.78223 41.5065 5.78223C37.4161 5.79196 29.976 6.7393 26.1042 12.9744C25.9466 13.2284 25.8633 13.5355 25.8633 13.8623V41.3781C30.5805 36.4416 37.4184 35.591 41.4998 35.5813C42.4677 35.5788 43.2552 34.7925 43.2552 33.8285Z" fill="white"/>
<path d="M47.2481 11.8457H45.9767V33.8283C45.9767 36.29 43.971 38.2974 41.5055 38.3035C38.0437 38.3117 32.3356 38.9887 28.293 42.8148C35.2846 41.1029 42.6551 42.2157 46.8556 43.173C47.3801 43.2924 47.9221 43.169 48.3423 42.8341C48.761 42.5 49.0012 42.0006 49.0012 41.4646V13.5988C49.0014 12.6322 48.2148 11.8457 47.2481 11.8457Z" fill="white"/>
<path d="M3.02448 33.8283V11.8457H1.75312C0.786643 11.8457 0 12.6322 0 13.5988V41.4641C0 42.0003 0.240216 42.4995 0.658945 42.8336C1.07883 43.1684 1.62031 43.2923 2.14561 43.1725C6.3461 42.2151 13.7167 41.1024 20.7081 42.8143C16.6657 38.9883 10.9576 38.3116 7.49571 38.3033C5.03035 38.2974 3.02448 36.29 3.02448 33.8283Z" fill="white"/>
</svg>
