<svg width="44" height="44" viewBox="0 0 44 44" fill="none" xmlns="http://www.w3.org/2000/svg">
<g clip-path="url(#clip0_482_12604)">
<path d="M15.8107 22.0006C19.3129 22.0006 22.7685 19.3986 26.1458 19.3986C28.4642 19.3986 30.3166 20.7856 30.9697 22.733C31.3008 23.7203 32.5467 24.0325 33.3208 23.3358C33.5602 23.1192 33.7212 22.8295 33.7788 22.5118C33.8364 22.1942 33.7873 21.8664 33.6393 21.5795C32.6631 19.658 31.2263 18.0081 29.4572 16.7771C27.688 15.5461 25.6415 14.7723 23.5005 14.5248C21.3595 14.2773 19.1905 14.5639 17.1871 15.3588C15.1838 16.1538 13.4085 17.4324 12.0197 19.0806C11.8439 19.2879 11.7258 19.5377 11.6773 19.8051C11.6287 20.0725 11.6514 20.3479 11.743 20.6037C11.8346 20.8595 11.992 21.0867 12.1993 21.2624C12.4066 21.4381 12.6565 21.5562 12.9238 21.6047C13.9608 21.7909 15.0194 22.0006 15.8107 22.0006Z" fill="white"/>
<path d="M12.375 44H0.6875C0.505164 44 0.330295 43.9276 0.201364 43.7986C0.0724328 43.6697 0 43.4948 0 43.3125V35.75C0 33.3579 0.37675 29.9203 2.17173 27.1282C4.06596 24.1816 7.03622 22.6875 11 22.6875C11.9738 22.6875 14.7691 23.375 15.8125 23.375C18.4029 23.375 21.0659 22.3089 23.4156 21.3682C30.2304 18.6398 31.4823 26.0979 27.8438 27.475C25.1599 28.4908 20.5734 29.1998 18.4113 31.2795L29.9139 28.2526L36.4995 22.3255C37.4258 18.1216 37.6555 12.375 43.3125 12.375C43.4119 12.3764 43.5098 12.3991 43.5997 12.4416C43.6896 12.484 43.7694 12.5452 43.8336 12.6211C43.8979 12.6969 43.9451 12.7856 43.9722 12.8813C43.9993 12.9769 44.0056 13.0772 43.9907 13.1755C43.9193 13.6052 42.0795 25.6155 41.7362 25.9236L30.7362 36.9236C30.4984 37.2244 15.5786 40.5288 15.2091 40.6141C14.5978 40.7528 14.0521 41.0957 13.6618 41.5862C13.2716 42.0768 13.0602 42.6857 13.0625 43.3125C13.0625 43.4948 12.9901 43.6697 12.8611 43.7986C12.7322 43.9276 12.5573 44 12.375 44Z" fill="white"/>
<path d="M35.011 1.00095C34.7876 0.928244 29.507 -0.766959 25.9922 0.464697C24.0126 1.15838 22.7336 2.1269 22.0219 3.15763C21.3257 2.11452 20.0514 1.13441 18.0638 0.437626C14.5819 -0.782686 9.34113 0.928673 9.11941 1.00206C9.02048 1.03642 8.93059 1.09268 8.85645 1.16665C8.78232 1.24063 8.72586 1.33039 8.6913 1.42925C8.65673 1.52811 8.64495 1.6335 8.65683 1.73755C8.66872 1.8416 8.70396 1.94162 8.75993 2.03013C9.83475 3.67816 13.3908 8.64242 18.5239 8.64242C19.5351 8.64242 20.5419 8.38169 21.3143 7.83461V12.4597C21.3143 12.642 21.3867 12.8169 21.5156 12.9458C21.6446 13.0747 21.8194 13.1472 22.0018 13.1472C22.1841 13.1472 22.359 13.0747 22.4879 12.9458C22.6169 12.8169 22.6893 12.642 22.6893 12.4597V7.91488C24.2682 9.01427 26.8154 8.72767 28.6481 8.08546C32.1622 6.85398 35.2423 2.22942 35.3718 2.03323C35.4283 1.94445 35.464 1.844 35.4761 1.73945C35.4883 1.63489 35.4765 1.52894 35.4418 1.42957C35.4071 1.3302 35.3503 1.24001 35.2757 1.16576C35.201 1.09152 35.1105 1.03517 35.011 1.00095Z" fill="white"/>
</g>
<defs>
<clipPath id="clip0_482_12604">
<rect width="44" height="44" fill="white"/>
</clipPath>
</defs>
</svg>
