<svg width="50" height="50" viewBox="0 0 50 50" fill="none" xmlns="http://www.w3.org/2000/svg">
<path d="M25 16.6016C29.5844 16.6016 33.3008 12.8852 33.3008 8.30078C33.3008 3.71639 29.5844 0 25 0C20.4156 0 16.6992 3.71639 16.6992 8.30078C16.6992 12.8852 20.4156 16.6016 25 16.6016Z" fill="white"/>
<path d="M31.0994 17.7266C29.3419 18.8679 27.2471 19.5317 24.9999 19.5317C22.7527 19.5317 20.6579 18.8679 18.9004 17.7266C16.9575 18.469 15.1562 19.5645 13.5898 20.9703L24.9999 25.2491L36.41 20.9703C34.8437 19.5645 33.0423 18.4689 31.0994 17.7266Z" fill="white"/>
<path d="M42.5781 30.2734H41.6016C40.7926 30.2734 40.1367 30.9293 40.1367 31.7383V35.6445C40.1367 36.4535 40.7926 37.1094 41.6016 37.1094H42.5781C44.4658 37.1094 45.9961 35.5791 45.9961 33.6914C45.9961 31.8037 44.4658 30.2734 42.5781 30.2734Z" fill="white"/>
<path d="M8.54063 22.8782C8.1457 23.1519 7.91016 23.6017 7.91016 24.0822V27.3434H8.39844C10.8216 27.3434 12.793 29.3148 12.793 31.7379V35.6442C12.793 38.0673 10.8216 40.0387 8.39844 40.0387H7.91016V43.1251C7.91016 43.7358 8.28896 44.2824 8.86064 44.4967L23.5352 49.9996V27.8278L9.88936 22.7106C9.43945 22.5417 8.93545 22.6043 8.54063 22.8782Z" fill="white"/>
<path d="M37.207 35.6442V31.7379C37.207 29.3148 39.1784 27.3434 41.6016 27.3434H42.0898V24.0822C42.0898 23.6017 41.8543 23.1519 41.4594 22.8782C41.0645 22.6043 40.5604 22.5417 40.1106 22.7106L26.4648 27.8278V49.9996L41.1394 44.4967C41.711 44.2824 42.0898 43.7358 42.0898 43.1251V40.0387H41.6016C39.1784 40.0387 37.207 38.0673 37.207 35.6442Z" fill="white"/>
<path d="M9.86328 35.6445V31.7383C9.86328 30.9293 9.20742 30.2734 8.39844 30.2734H7.42188C5.53418 30.2734 4.00391 31.8037 4.00391 33.6914C4.00391 35.5791 5.53418 37.1094 7.42188 37.1094H8.39844C9.20742 37.1094 9.86328 36.4535 9.86328 35.6445Z" fill="white"/>
</svg>
