<svg width="46" height="46" viewBox="0 0 46 46" fill="none" xmlns="http://www.w3.org/2000/svg">
<path d="M42.3101 11.8404C42.2551 10.6302 42.2551 9.47504 42.2551 8.31988C42.2551 7.38475 41.54 6.66966 40.6049 6.66966C33.7289 6.66966 28.5032 4.68939 24.1576 0.453812C23.4976 -0.151271 22.5074 -0.151271 21.8473 0.453812C17.5017 4.68939 12.276 6.66966 5.40009 6.66966C4.46497 6.66966 3.74987 7.38475 3.74987 8.31988C3.74987 9.47504 3.74987 10.6302 3.69486 11.8404C3.47483 23.3919 3.14479 39.2341 22.4524 45.89L23.0025 46L23.5526 45.89C42.8052 39.2341 42.5301 23.4469 42.3101 11.8404ZM21.6823 27.8475C21.3523 28.1226 20.9672 28.2876 20.5271 28.2876H20.4721C20.0321 28.2876 19.592 28.0676 19.317 27.7375L14.2013 22.0717L16.6766 19.8715L20.6922 24.3271L29.6034 15.8559L31.8587 18.2762L21.6823 27.8475Z" fill="white"/>
</svg>
