<svg width="44" height="44" viewBox="0 0 44 44" fill="none" xmlns="http://www.w3.org/2000/svg">
<g clip-path="url(#clip0_482_12471)">
<path d="M29.7911 43.9997H14.2077C13.5294 43.9997 12.9519 43.5047 12.8492 42.8337L11.0159 30.917C10.9554 30.521 11.0691 30.1158 11.3312 29.8115C11.5934 29.5072 11.9729 29.333 12.3744 29.333H31.6244C32.0259 29.333 32.4072 29.509 32.6676 29.8133C32.9279 30.1177 33.0434 30.521 32.9829 30.9188L31.1496 42.8355C31.0469 43.5047 30.4694 43.9997 29.7911 43.9997Z" fill="white"/>
<path d="M22.0013 14.6667C26.0514 14.6667 29.3346 11.3834 29.3346 7.33333C29.3346 3.28325 26.0514 0 22.0013 0C17.9512 0 14.668 3.28325 14.668 7.33333C14.668 11.3834 17.9512 14.6667 22.0013 14.6667Z" fill="white"/>
<path d="M42.5629 23.8333C42.2714 19.7688 40.0861 16.0068 36.6632 13.7317C36.6541 12.221 35.4276 11 33.9151 11C32.3971 11 31.1651 12.232 31.1651 13.75C31.1651 15.268 32.3971 16.5 33.9151 16.5C34.4174 16.5 34.8812 16.3552 35.2864 16.1205C37.8659 17.897 39.5324 20.7442 39.8129 23.8333H36.5551C35.8951 19.69 32.3017 16.5 27.9567 16.5H16.0401C11.6951 16.5 8.10172 19.69 7.44172 23.8333H1.37339C0.399888 23.8333 -0.228945 24.8197 0.0717215 25.685L3.73839 35.7683C3.94006 36.3 4.45339 36.6667 5.04006 36.6667H8.19339L7.38672 31.4783C7.16672 30.0117 7.58839 28.545 8.54172 27.4267C9.35939 26.4458 10.8059 25.6667 12.3734 25.6667H31.6234C33.0076 25.6667 34.4046 26.2368 35.4551 27.4267C36.4084 28.545 36.8301 30.0117 36.6101 31.4783L35.8034 36.6667H38.9567C39.5434 36.6667 40.0567 36.3 40.2584 35.7683L43.9251 25.685C44.2147 24.8508 43.6611 23.8333 42.5629 23.8333Z" fill="white"/>
</g>
<defs>
<clipPath id="clip0_482_12471">
<rect width="44" height="44" fill="white"/>
</clipPath>
</defs>
</svg>
