<svg width="42" height="42" viewBox="0 0 42 42" fill="none" xmlns="http://www.w3.org/2000/svg">
<g clip-path="url(#clip0_482_12554)">
<path d="M23.625 35H18.375C16.9277 35 15.75 36.1777 15.75 37.625V41.125C15.75 41.608 16.142 42.0001 16.625 42.0001H25.3751C25.8581 42.0001 26.2501 41.608 26.2501 41.125V37.625C26.25 36.1777 25.0723 35 23.625 35Z" fill="white"/>
<path d="M11.375 35H6.125C4.67772 35 3.5 36.1777 3.5 37.625V41.125C3.5 41.608 3.89203 42.0001 4.37503 42.0001H13.125C13.608 42.0001 14 41.608 14 41.125V37.625C14 36.1777 12.8222 35 11.375 35Z" fill="white"/>
<path d="M35.875 35H30.625C29.1777 35 28 36.1777 28 37.625V41.125C28 41.608 28.392 42.0001 28.875 42.0001H37.6251C38.1081 42.0001 38.5001 41.608 38.5001 41.125V37.625C38.5 36.1777 37.3223 35 35.875 35Z" fill="white"/>
<path d="M23.625 26.25H18.375C16.9277 26.25 15.75 27.4277 15.75 28.875V32.375C15.75 32.858 16.142 33.2501 16.625 33.2501H25.3751C25.8581 33.2501 26.2501 32.858 26.2501 32.375V28.875C26.25 27.4277 25.0723 26.25 23.625 26.25Z" fill="white"/>
<path d="M11.375 26.25H6.125C4.67772 26.25 3.5 27.4277 3.5 28.875V32.375C3.5 32.858 3.89203 33.2501 4.37503 33.2501H13.125C13.608 33.2501 14 32.858 14 32.375V28.875C14 27.4277 12.8222 26.25 11.375 26.25Z" fill="white"/>
<path d="M39.375 0H2.62503C2.14203 0 1.75 0.392027 1.75 0.875027V24.99C1.75 25.3348 1.95303 25.648 2.26975 25.7897C2.59 25.9315 2.9575 25.8702 3.21122 25.641C4.0267 24.9043 5.06275 24.5 6.12497 24.5H9.02297C9.0352 24.5 9.04922 24.5017 9.058 24.5C9.541 24.5 9.93303 24.108 9.93303 23.625C9.93303 23.4553 9.88578 23.296 9.80178 23.163C9.14028 20.8723 8.1445 18.5483 7.32903 16.9942C10.4703 14.9537 13.9772 8.21978 15.2372 5.64728C16.2872 6.22305 18.2192 7.00005 21 7.00005C23.7808 7.00005 25.7128 6.22305 26.7645 5.64728C28.0245 8.21978 31.5315 14.9538 34.6727 16.9942C33.8327 18.599 32.7968 21.0262 32.1353 23.3905C32.0618 23.6547 32.1143 23.9382 32.2806 24.1552C32.4468 24.3722 32.7023 24.5 32.9771 24.5H35.8751C36.9373 24.5 37.9734 24.9043 38.7888 25.641C38.9533 25.788 39.1633 25.865 39.3751 25.865C39.4941 25.865 39.6166 25.8405 39.7304 25.7898C40.0471 25.6498 40.2501 25.3366 40.2501 24.9901V0.875027C40.2501 0.392027 39.858 0 39.375 0Z" fill="white"/>
<path d="M35.875 26.25H30.625C29.1777 26.25 28 27.4277 28 28.875V32.375C28 32.858 28.392 33.2501 28.875 33.2501H37.6251C38.1081 33.2501 38.5001 32.858 38.5001 32.375V28.875C38.5 27.4277 37.3223 26.25 35.875 26.25Z" fill="white"/>
<path d="M33.25 21H8.75003C8.26703 21 7.875 21.392 7.875 21.875C7.875 22.358 8.26703 22.7501 8.75003 22.7501H33.2501C33.7331 22.7501 34.1251 22.358 34.1251 21.875C34.1251 21.392 33.733 21 33.25 21Z" fill="white"/>
<path d="M41.125 0H39.375C38.892 0 38.5 0.392027 38.5 0.875027C38.5 1.35803 38.892 1.74997 39.375 1.74997H41.125C41.608 1.74997 42 1.35795 42 0.874945C42 0.391945 41.608 0 41.125 0Z" fill="white"/>
<path d="M2.625 0H0.875027C0.392027 0 0 0.392027 0 0.875027C0 1.35803 0.392027 1.75005 0.875027 1.75005H2.625C3.108 1.75005 3.50003 1.35803 3.50003 0.875027C3.50003 0.392027 3.108 0 2.625 0Z" fill="white"/>
</g>
<defs>
<clipPath id="clip0_482_12554">
<rect width="42" height="42" fill="white"/>
</clipPath>
</defs>
</svg>
