<svg width="42" height="42" viewBox="0 0 42 42" fill="none" xmlns="http://www.w3.org/2000/svg">
<path d="M8.21507 7.26554C8.62049 7.49369 11.3494 8.81209 12.6678 9.44693C12.673 9.95864 12.6843 10.8435 12.7017 10.8586C12.847 12.1257 13.0964 13.5335 13.1687 13.931C13.0488 13.9975 12.4327 14.4004 12.4327 15.6535C12.4332 15.6605 12.4339 15.667 12.4344 15.6742C12.4335 15.7071 12.4327 15.7402 12.4327 15.7742C12.6979 19.2573 14.0831 17.7562 14.3687 19.2818C14.8439 21.8184 17.0899 23.6537 18.488 24.2873C19.296 24.6533 20.1276 24.84 21.0015 24.8579C21.8755 24.8401 22.707 24.6533 23.5151 24.2873C24.9131 23.6537 27.1592 21.8184 27.6343 19.2818C27.9199 17.7561 29.3052 19.2573 29.5704 15.7742C29.5704 15.7401 29.5695 15.7071 29.5686 15.6742C29.5692 15.6671 29.5698 15.6606 29.5704 15.6535C29.5704 14.4003 28.9541 13.9975 28.8344 13.931C28.9067 13.5335 29.1561 12.1258 29.3013 10.8586C29.3186 10.8435 29.33 9.95873 29.3352 9.44693C30.0593 9.09818 31.2086 8.54346 32.165 8.0763V11.4433C31.8994 11.6001 31.7126 11.8768 31.7126 12.2068C31.7126 12.499 31.8609 12.7465 32.077 12.9101C32.077 12.9101 31.6928 15.0699 31.5686 15.7051C31.4443 16.3401 33.7596 16.2127 33.6554 15.7051C33.5513 15.1973 33.1472 12.9101 33.1472 12.9101C33.3634 12.7465 33.5117 12.499 33.5117 12.2068C33.5117 11.8767 33.3257 11.6002 33.0602 11.4433V7.63638C33.4167 7.45956 33.682 7.32512 33.7879 7.26554C34.0748 7.10412 34.2292 6.8976 34.1967 6.68303C34.2359 6.45932 34.0741 6.21885 33.6399 6.00627C30.5415 4.48961 22.6424 0.623977 21.8613 0.251419C21.5206 0.0889067 21.2401 0.0171114 21.0015 0C20.763 0.0171114 20.4825 0.0889067 20.1417 0.251419C19.3606 0.623977 11.4615 4.4897 8.36319 6.00627C7.92888 6.21885 7.76718 6.45932 7.80648 6.68303C7.7737 6.8976 7.92825 7.10412 8.21507 7.26554Z" fill="white"/>
<path d="M31.5159 29.052C30.0582 28.5265 27.521 27.0113 27.0863 26.7775C26.9736 26.712 26.8431 26.6738 26.7034 26.6738C26.3984 26.6738 26.1358 26.8528 26.0136 27.1118C24.8117 29.1238 22.5835 34.9746 21.0288 35.0831C21.0193 35.0824 21.0095 35.0805 20.9999 35.0794C20.9903 35.0805 20.9806 35.0824 20.9711 35.0831C19.4164 34.9746 17.1882 29.1238 15.9863 27.1118C15.864 26.8528 15.6015 26.6738 15.2965 26.6738C15.1567 26.6738 15.0263 26.712 14.9135 26.7775C14.4789 27.0113 11.9416 28.5265 10.484 29.052C5.5912 30.8162 3.39062 32.6155 3.39062 33.8423C3.39062 33.8779 3.39062 33.9185 3.39062 33.9631C3.39062 35.4573 3.39062 41.8795 3.39062 41.8795C3.39062 41.9577 3.39062 42.0003 3.39062 42.0003H20.9711H20.9999H21.0288H38.6093C38.6093 42.0003 38.6093 41.9577 38.6093 41.8795C38.6093 41.8795 38.6093 35.4571 38.6093 33.9631C38.6093 33.9185 38.6093 33.8779 38.6093 33.8423C38.6092 32.6155 36.4087 30.8162 31.5159 29.052Z" fill="white"/>
</svg>
