<svg width="48" height="48" viewBox="0 0 48 48" fill="none" xmlns="http://www.w3.org/2000/svg">
<g clip-path="url(#clip0_482_12537)">
<path d="M16.7624 34.0139C17.3672 34.4284 17.571 34.5681 18.2458 34.5681C18.9205 34.5681 19.1242 34.4284 19.729 34.0139C20.5525 33.4495 21.7971 32.5964 23.999 32.5964C26.201 32.5964 27.4455 33.4494 28.2692 34.0139C28.874 34.4284 29.0777 34.5681 29.7526 34.5681C30.4275 34.5681 30.6313 34.4284 31.236 34.0138C31.853 33.591 32.7063 33.0062 34.0213 32.7394L30.1559 25.596L33.3905 16.7524L41.589 9.71747C42.7006 8.76366 42.8285 7.08936 41.8747 5.97781C40.9208 4.86627 39.2466 4.73836 38.135 5.69217L29.4107 13.1782C29.0661 13.474 28.8031 13.8534 28.6471 14.2799L24.6886 25.1026L24.6685 25.1621L10.4453 32.88C11.0185 32.7094 11.6919 32.5964 12.4924 32.5964C14.6943 32.5964 15.9389 33.4495 16.7624 34.0139Z" fill="white"/>
<path d="M38.5705 29.9247C41.4985 29.5948 43.6047 26.9538 43.2747 24.0258C42.9448 21.0978 40.3038 18.9917 37.3758 19.3216C34.4478 19.6515 32.3417 22.2925 32.6716 25.2205C33.0015 28.1485 35.6425 30.2547 38.5705 29.9247Z" fill="white"/>
<path d="M3.30509 36.8601C4.05812 37.3763 4.99542 38.0186 6.73912 38.0186C8.48291 38.0186 9.42012 37.3763 10.1731 36.8601C10.8361 36.4058 11.3596 36.047 12.4926 36.047C13.6256 36.047 14.1491 36.4058 14.8119 36.8601C15.5651 37.3763 16.5023 38.0186 18.2461 38.0186C19.9898 38.0186 20.927 37.3763 21.68 36.8601C22.3428 36.4058 22.8664 36.047 23.9993 36.047C25.1322 36.047 25.6558 36.4058 26.3187 36.8601C27.0717 37.3763 28.009 38.0186 29.7527 38.0186C31.4965 38.0186 32.4338 37.3763 33.1868 36.8601C33.8498 36.4058 34.3733 36.047 35.5063 36.047C36.6394 36.047 37.163 36.4058 37.826 36.8602C38.5791 37.3763 39.5164 38.0186 41.2603 38.0186C43.0042 38.0186 43.9415 37.3763 44.6945 36.8602C45.3574 36.4058 45.8811 36.047 47.0142 36.047C47.5587 36.047 48.0001 35.6055 48.0001 35.0611C48.0001 34.5166 47.5587 34.0752 47.0142 34.0752C45.2703 34.0752 44.333 34.7176 43.5799 35.2336C42.917 35.688 42.3933 36.0469 41.2603 36.0469C40.1272 36.0469 39.6036 35.688 38.9406 35.2336C38.1875 34.7175 37.2502 34.0752 35.5063 34.0752C33.7625 34.0752 32.8252 34.7176 32.0722 35.2336C31.4093 35.688 30.8857 36.0469 29.7527 36.0469C28.6198 36.0469 28.0962 35.688 27.4333 35.2337C26.6803 34.7176 25.743 34.0752 23.9993 34.0752C22.2556 34.0752 21.3183 34.7176 20.5653 35.2337C19.9024 35.6881 19.3789 36.0469 18.2461 36.0469C17.1131 36.0469 16.5896 35.688 15.9267 35.2337C15.1736 34.7176 14.2364 34.0752 12.4926 34.0752C10.7488 34.0752 9.81154 34.7176 9.05851 35.2337C8.3956 35.6881 7.87204 36.0469 6.73912 36.0469C5.60619 36.0469 5.08264 35.6881 4.41991 35.2337C3.66688 34.7176 2.72958 34.0752 0.985881 34.0752C0.44141 34.0752 0 34.5166 0 35.0611C0 35.6055 0.44141 36.047 0.985881 36.047C2.1188 36.0469 2.64227 36.4058 3.30509 36.8601Z" fill="white"/>
<path d="M33.1868 41.7888C32.4338 42.305 31.4965 42.9473 29.7527 42.9473C28.0089 42.9473 27.0717 42.305 26.3187 41.7888C25.6558 41.3345 25.1322 40.9757 23.9993 40.9757C22.8664 40.9757 22.3428 41.3345 21.68 41.7888C20.927 42.305 19.9898 42.9473 18.2461 42.9473C16.5023 42.9473 15.5651 42.305 14.8119 41.7888C14.1491 41.3345 13.6256 40.9757 12.4926 40.9757C11.3597 40.9757 10.8361 41.3346 10.1731 41.7888C9.42012 42.305 8.48281 42.9473 6.73912 42.9473C3.55735 42.9473 3.39108 40.9757 0.985881 40.9757C0.44141 40.9757 0 40.5343 0 39.9898C0 39.4453 0.44141 39.0039 0.985881 39.0039C4.16765 39.0039 4.33392 40.9756 6.73912 40.9756C9.09274 40.9756 9.3496 39.0039 12.4926 39.0039C14.2364 39.0039 15.1736 39.6463 15.9267 40.1624C16.5896 40.6168 17.1131 40.9756 18.2461 40.9756C19.3789 40.9756 19.9024 40.6168 20.5653 40.1624C21.3183 39.6463 22.2555 39.0039 23.9993 39.0039C25.7431 39.0039 26.6803 39.6463 27.4333 40.1624C28.0962 40.6168 28.6198 40.9756 29.7527 40.9756C30.8857 40.9756 31.4093 40.6167 32.0722 40.1623C32.8252 39.6462 33.7625 39.0039 35.5063 39.0039C37.2502 39.0039 38.1875 39.6463 38.9406 40.1623C39.6036 40.6167 40.1272 40.9756 41.2603 40.9756C42.3933 40.9756 42.917 40.6167 43.5799 40.1623C44.333 39.6462 45.2703 39.0039 47.0142 39.0039C47.5587 39.0039 48.0001 39.4453 48.0001 39.9898C48.0001 40.5343 47.5587 40.9757 47.0142 40.9757C45.8811 40.9757 45.3575 41.3346 44.6945 41.7889C43.9414 42.3051 43.0041 42.9473 41.2603 42.9473C39.5164 42.9473 38.5791 42.305 37.826 41.7889C37.1631 41.3346 36.6394 40.9757 35.5063 40.9757C34.3734 40.9757 33.8498 41.3346 33.1868 41.7888Z" fill="white"/>
<path d="M37.8259 41.7889C38.579 42.3051 39.5163 42.9473 41.2602 42.9473C43.0041 42.9473 43.9414 42.305 44.6944 41.7889C45.3574 41.3346 45.881 40.9757 47.0141 40.9757C47.5586 40.9757 48 40.5343 48 39.9898C48 39.4453 47.5586 39.0039 47.0141 39.0039C45.2702 39.0039 44.3329 39.6463 43.5798 40.1623C42.9169 40.6167 42.3932 40.9756 41.2602 40.9756C40.1271 40.9756 39.6036 40.6167 38.9406 40.1623C38.1874 39.6462 37.2501 39.0039 35.5062 39.0039C33.7625 39.0039 32.8251 39.6463 32.0721 40.1623C31.4092 40.6167 30.8856 40.9756 29.7526 40.9756C28.6197 40.9756 28.0961 40.6167 27.4332 40.1624C26.6802 39.6463 25.7429 39.0039 23.9992 39.0039C22.2555 39.0039 21.3182 39.6463 20.5652 40.1624C19.9024 40.6168 19.3788 40.9756 18.246 40.9756C17.113 40.9756 16.5895 40.6167 15.9266 40.1624C15.1735 39.6463 14.2363 39.0039 12.4925 39.0039C9.31058 39.0039 9.14432 40.9756 6.73902 40.9756C5.6061 40.9756 5.08254 40.6168 4.41982 40.1624C3.66679 39.6463 2.72948 39.0039 0.985787 39.0039C0.44141 39.004 0 39.4453 0 39.9898C0 40.5343 0.44141 40.9757 0.985881 40.9757C3.33941 40.9757 3.59627 42.9473 6.73912 42.9473C8.48291 42.9473 9.42012 42.305 10.1731 41.7888C10.8361 41.3345 11.3596 40.9757 12.4926 40.9757C13.6256 40.9757 14.1491 41.3345 14.8119 41.7888C15.5651 42.305 16.5023 42.9473 18.2461 42.9473C19.9898 42.9473 20.927 42.305 21.68 41.7888C22.3428 41.3345 22.8664 40.9757 23.9993 40.9757C25.1322 40.9757 25.6558 41.3346 26.3187 41.7888C27.0717 42.305 28.009 42.9473 29.7527 42.9473C31.4965 42.9473 32.4338 42.305 33.1868 41.7888C33.8498 41.3345 34.3733 40.9757 35.5063 40.9757C36.6394 40.9757 37.163 41.3346 37.8259 41.7889Z" fill="white"/>
</g>
<defs>
<clipPath id="clip0_482_12537">
<rect width="48" height="48" fill="white"/>
</clipPath>
</defs>
</svg>
