<svg width="62" height="62" viewBox="0 0 62 62" fill="none" xmlns="http://www.w3.org/2000/svg">
<path d="M28.9315 56.7301C16.3171 55.7278 6.27306 45.6812 5.27073 33.0693C5.31465 33.0693 5.35598 33.0849 5.3999 33.0797C6.1749 32.9841 6.95248 32.9376 7.75073 32.9376C19.5023 32.9376 29.0632 42.4985 29.0632 54.2501C29.0632 55.0484 29.0167 55.8234 28.9211 56.6009C28.916 56.6449 28.9341 56.6862 28.9315 56.7301ZM33.0777 5.40185C32.9821 6.17685 32.9356 6.95443 32.9356 7.75268C32.9356 19.5043 42.4966 29.0652 54.2481 29.0652C55.0464 29.0652 55.8214 29.0187 56.599 28.9231C56.6429 28.9179 56.6842 28.936 56.7281 28.9334C55.7258 16.319 45.6818 6.27502 33.0674 5.27268C33.0674 5.3166 33.0829 5.35793 33.0777 5.40185ZM54.2481 32.9402C40.3601 32.9402 29.0606 21.6407 29.0606 7.75268C29.0606 6.90535 29.1226 6.08385 29.2105 5.25977C16.3765 6.1381 6.13873 16.3758 5.25781 29.2124C6.0819 29.1246 6.9034 29.0626 7.75073 29.0626C21.6387 29.0626 32.9382 40.3621 32.9382 54.2501C32.9382 55.0974 32.8762 55.9189 32.7884 56.743C45.625 55.8621 55.8627 45.6244 56.7436 32.7878C55.9196 32.8756 55.0981 32.9376 54.2507 32.9376L54.2481 32.9402Z" fill="white"/>
</svg>
