<svg width="62" height="62" viewBox="0 0 62 62" fill="none" xmlns="http://www.w3.org/2000/svg">
<g clip-path="url(#clip0_482_12594)">
<path d="M19.0054 18.7348V15.1427C19.0054 14.5693 18.5406 14.1045 17.9672 14.1045C17.3939 14.1045 16.929 14.5693 16.929 15.1427V19.5758C16.2853 21.3718 10.0666 38.6266 2.9757 45.0946L2.02056 42.3641C1.83135 41.8223 1.23867 41.5364 0.696866 41.7256C0.155059 41.9148 -0.130833 42.5075 0.0583773 43.0493L1.50147 47.2021C1.5195 47.2415 1.5404 47.2797 1.56376 47.3163C1.58945 47.3746 1.62073 47.4302 1.6572 47.4824C1.71092 47.5307 1.77023 47.5725 1.83369 47.607L1.93751 47.7108C1.99007 47.7438 2.04574 47.7715 2.10362 47.7939L2.2282 47.8562C2.33488 47.8729 2.44337 47.8729 2.55004 47.8562H25.2242C25.1963 47.8168 25.172 47.7752 25.1515 47.7316L24.539 45.7798L23.5838 42.7379C23.4463 42.2992 23.6903 41.832 24.1289 41.6945C24.5675 41.5569 25.0347 41.8009 25.1723 42.2395L26.2831 45.7798L26.3662 46.0393L26.6257 45.7798C32.7199 39.9763 37.4749 28.3693 40.1223 20.7697C40.3646 20.0637 40.593 19.3854 40.8075 18.7348H19.0054Z" fill="white"/>
<path d="M42.1673 19.96L41.887 20.8113C39.4161 28.0475 34.9103 39.3015 28.9303 45.811C28.26 46.5493 27.5421 47.2429 26.7812 47.8874H42.2503L42.1673 19.96Z" fill="white"/>
<path d="M61.5141 41.3584C61.476 41.3345 61.4366 41.3133 61.3957 41.2946C60.8869 41.0304 60.2602 41.2286 59.996 41.7376C59.9953 41.7388 59.9948 41.74 59.9942 41.741L58.25 45.0944C49.9444 36.2593 45.0234 22.1295 44.2344 19.7832V25.7632L44.2967 45.8107V47.8871H58.5199C58.613 47.8992 58.7072 47.8992 58.8002 47.8871H58.904L59.0702 47.804L59.1636 47.7314L59.2882 47.6172L59.3609 47.5134L59.4335 47.4199L61.8421 42.7896C62.1467 42.3037 61.9998 41.663 61.5141 41.3584Z" fill="white"/>
</g>
<defs>
<clipPath id="clip0_482_12594">
<rect width="62" height="62" fill="white"/>
</clipPath>
</defs>
</svg>
