<svg width="53" height="53" viewBox="0 0 53 53" fill="none" xmlns="http://www.w3.org/2000/svg">
<path d="M24.3477 7.63023V8.78346C25.9481 8.67509 26.8049 8.80489 26.8939 8.81945C27.409 8.90355 27.849 9.23634 28.0706 9.70863L30.3196 14.5019C30.5917 14.5654 30.8509 14.6996 31.0653 14.9087C31.3366 15.1731 31.6613 15.3802 32.0292 15.4699C32.764 15.649 33.493 15.4448 34.0082 14.9438C34.5399 14.4271 35.351 14.2957 35.9778 14.6919C36.8738 15.258 36.9701 16.4574 36.2673 17.1601C35.2758 18.152 33.9572 18.6983 32.5545 18.6983C32.4643 18.6983 32.3746 18.6959 32.2848 18.6914L35.3082 25.1357C35.436 25.4074 35.5569 25.6812 35.6717 25.9561C39.076 24.8826 42.9481 25.6799 45.6537 28.3548C46.2586 28.9524 46.3257 29.9285 45.7604 30.5642C45.4446 30.9192 45.0103 31.0967 44.5761 31.0967C44.1713 31.0967 43.7661 30.9423 43.4576 30.6333C41.6238 28.8 38.9911 28.2424 36.6701 28.9577C37.5503 32.4675 37.4917 36.0897 36.5831 39.4863C37.0109 39.6279 37.4464 39.754 37.8888 39.864C38.4023 39.9914 38.9389 39.9926 39.4528 39.8656C47.3649 37.9085 52.9992 30.7931 52.9992 22.5494V7.63023C52.9992 6.89147 52.5431 6.22913 51.8517 5.96913C49.6726 5.15031 45.4612 4.03711 38.674 4.03711C31.8865 4.03711 27.6747 5.15071 25.4952 5.96953C24.8038 6.22913 24.3477 6.89147 24.3477 7.63023ZM41.839 14.9228C42.4568 14.305 43.4584 14.305 44.0767 14.9228C44.4705 15.3167 44.9942 15.5338 45.5514 15.5338C46.1086 15.5338 46.6326 15.3167 47.0265 14.9228C47.6443 14.3046 48.6463 14.3046 49.2642 14.9228C49.882 15.5407 49.882 16.5423 49.2642 17.1601C48.2723 18.152 46.9541 18.6983 45.5514 18.6983C44.1491 18.6983 42.8304 18.152 41.8386 17.1601C41.2211 16.5423 41.2211 15.5407 41.839 14.9228Z" fill="white"/>
<path d="M32.4444 26.4798L26.0737 12.9015C25.7805 12.2764 25.1311 11.8999 24.4425 11.9521C22.1421 12.1259 17.8272 12.889 11.6122 15.8048C5.46723 18.6879 2.12723 21.4848 0.502117 23.1516C-0.0134388 23.6805 -0.14526 24.4738 0.168522 25.1426L6.50521 38.6494C10.0065 46.1122 18.1305 50.161 26.125 48.5719C26.6418 48.4692 27.1254 48.2424 27.5346 47.9104C33.8669 42.7783 35.9457 33.9431 32.4444 26.4798ZM19.6416 25.4677C20.6254 22.7448 23.6411 21.3295 26.364 22.3137C27.1857 22.6105 27.6111 23.5175 27.3143 24.3396C27.0175 25.1612 26.1105 25.587 25.2884 25.2898C24.2068 24.8992 23.0087 25.4613 22.6177 26.5429C22.3847 27.1875 21.7774 27.5882 21.1296 27.5882C20.9509 27.5882 20.7693 27.5578 20.5918 27.4936C19.7702 27.1964 19.3444 26.2894 19.6416 25.4677ZM13.5224 30.8101C12.9984 30.6209 12.4319 30.6467 11.9272 30.8837C11.423 31.1202 11.0409 31.5392 10.8517 32.0632C10.6187 32.7077 10.011 33.1085 9.36321 33.1085C9.18489 33.1085 9.00333 33.0777 8.82582 33.0138C8.00376 32.717 7.57838 31.8101 7.87518 30.988C8.35191 29.669 9.31348 28.6144 10.5832 28.0188C11.8532 27.4232 13.2786 27.3573 14.5976 27.834C15.4197 28.1308 15.8451 29.0378 15.5483 29.8599C15.2511 30.6815 14.3441 31.1069 13.5224 30.8101ZM18.8353 41.1528C17.7172 41.1528 16.5814 40.9627 15.4706 40.5612C14.6486 40.2644 14.2232 39.3574 14.52 38.5353C14.8172 37.7137 15.7238 37.2879 16.5458 37.5851C20.0544 38.8528 23.9403 37.0295 25.208 33.5213C25.5048 32.6993 26.4117 32.2739 27.2338 32.5707C28.0555 32.8679 28.4808 33.7748 28.184 34.5969C26.7247 38.6352 22.9011 41.1528 18.8353 41.1528Z" fill="white"/>
</svg>
